<ttFont>
    <TTGlyph name=".notdef" xMin="174" yMin="0" xMax="1016" yMax="1462">
      <contour>
        <pt x="174" y="1462" on="1"/>
        <pt x="1016" y="1462" on="1"/>
        <pt x="1016" y="0" on="1"/>
        <pt x="174" y="0" on="1"/>
      </contour>
      <contour>
        <pt x="279" y="104" on="1"/>
        <pt x="911" y="104" on="1"/>
        <pt x="911" y="1358" on="1"/>
        <pt x="279" y="1358" on="1"/>
      </contour>
    </TTGlyph>
    <TTGlyph name="A" xMin="0" yMin="0" xMax="1094" yMax="1468">
      <contour>
        <pt x="821" y="0" on="1"/>
        <pt x="737" y="369" on="1"/>
        <pt x="356" y="369" on="1"/>
        <pt x="272" y="0" on="1"/>
        <pt x="0" y="0" on="1"/>
        <pt x="362" y="1468" on="1"/>
        <pt x="731" y="1468" on="1"/>
        <pt x="1094" y="0" on="1"/>
      </contour>
      <contour>
        <pt x="686" y="610" on="1"/>
        <pt x="608" y="950" on="1"/>
        <pt x="601" y="981" on="0"/>
        <pt x="552" y="1230" on="0"/>
        <pt x="547" y="1272" on="1"/>
        <pt x="534" y="1186" on="0"/>
        <pt x="494" y="979" on="0"/>
        <pt x="410" y="610" on="1"/>
      </contour>
    </TTGlyph>
    <TTGlyph name="AE" xMin="0" yMin="0" xMax="1339" yMax="1462">
      <contour>
        <pt x="1339" y="0" on="1"/>
        <pt x="684" y="0" on="1"/>
        <pt x="684" y="369" on="1"/>
        <pt x="385" y="369" on="1"/>
        <pt x="272" y="0" on="1"/>
        <pt x="0" y="0" on="1"/>
        <pt x="473" y="1462" on="1"/>
        <pt x="1339" y="1462" on="1"/>
        <pt x="1339" y="1227" on="1"/>
        <pt x="956" y="1227" on="1"/>
        <pt x="956" y="879" on="1"/>
        <pt x="1311" y="879" on="1"/>
        <pt x="1311" y="643" on="1"/>
        <pt x="956" y="643" on="1"/>
        <pt x="956" y="238" on="1"/>
        <pt x="1339" y="238" on="1"/>
      </contour>
      <contour>
        <pt x="645" y="1227" on="1"/>
        <pt x="631" y="1178" on="1"/>
        <pt x="461" y="610" on="1"/>
        <pt x="684" y="610" on="1"/>
        <pt x="684" y="1227" on="1"/>
      </contour>
    </TTGlyph>
    <TTGlyph name="AEacute" xMin="0" yMin="0" xMax="1339" yMax="1907">
      <component glyphName="AE" x="0" y="0" flags="0x204"/>
      <component glyphName="acute" x="418" y="338" flags="0x4"/>
    </TTGlyph>
    <TTGlyph name="Aacute" xMin="0" yMin="0" xMax="1094" yMax="1907">
      <component glyphName="A" x="0" y="0" flags="0x204"/>
      <component glyphName="acute" x="94" y="338" flags="0x4"/>
    </TTGlyph>
    <TTGlyph name="Abreve" xMin="0" yMin="0" xMax="1094" yMax="1905">
      <component glyphName="A" x="0" y="0" flags="0x204"/>
      <component glyphName="breve" x="-15" y="338" flags="0x4"/>
    </TTGlyph>
    <TTGlyph name="Acircumflex" xMin="0" yMin="0" xMax="1094" yMax="1907">
      <component glyphName="A" x="0" y="0" flags="0x204"/>
      <component glyphName="circumflex" x="-19" y="338" flags="0x4"/>
    </TTGlyph>
    <TTGlyph name="Adieresis" xMin="0" yMin="0" xMax="1094" yMax="1870">
      <component glyphName="A" x="0" y="0" flags="0x204"/>
      <component glyphName="dieresis" x="-17" y="338" flags="0x4"/>
    </TTGlyph>
    <TTGlyph name="Agrave" xMin="0" yMin="0" xMax="1094" yMax="1907">
      <component glyphName="A" x="0" y="0" flags="0x204"/>
      <component glyphName="grave" x="-118" y="338" flags="0x4"/>
    </TTGlyph>
    <TTGlyph name="Alpha" xMin="0" yMin="0" xMax="1094" yMax="1468">
      <component glyphName="A" x="0" y="0" flags="0x204"/>
    </TTGlyph>
    <TTGlyph name="Alphatonos" xMin="-38" yMin="0" xMax="1127" yMax="1468">
      <component glyphName="A" x="33" y="0" flags="0x4"/>
      <component glyphName="tonos" x="-468" y="-105" flags="0x4"/>
    </TTGlyph>
    <TTGlyph name="Amacron" xMin="0" yMin="0" xMax="1094" yMax="1813">
      <component glyphName="A" x="0" y="0" flags="0x204"/>
      <component glyphName="macron" x="4" y="338" flags="0x4"/>
    </TTGlyph>
    <TTGlyph name="Aogonek" xMin="0" yMin="-483" xMax="1094" yMax="1468">
      <component glyphName="A" x="0" y="0" flags="0x204"/>
      <component glyphName="ogonek" x="707" y="0" flags="0x4"/>
    </TTGlyph>
    <TTGlyph name="Aring" xMin="0" yMin="0" xMax="1094" yMax="1802">
      <component glyphName="A" x="0" y="0" flags="0x204"/>
      <component glyphName="ring" x="-9" y="96" flags="0x4"/>
    </TTGlyph>
    <TTGlyph name="Aringacute" xMin="0" yMin="0" xMax="1094" yMax="1962">
      <contour>
        <pt x="793" y="1456" on="1"/>
        <pt x="793" y="1371" on="0"/>
        <pt x="741" y="1313" on="1"/>
        <pt x="1094" y="0" on="1"/>
        <pt x="821" y="0" on="1"/>
        <pt x="741" y="322" on="1"/>
        <pt x="350" y="322" on="1"/>
        <pt x="272" y="0" on="1"/>
        <pt x="0" y="0" on="1"/>
        <pt x="348" y="1311" on="1"/>
        <pt x="301" y="1367" on="0"/>
        <pt x="301" y="1454" on="1"/>
        <pt x="301" y="1560" on="0"/>
        <pt x="432" y="1688" on="0"/>
        <pt x="543" y="1688" on="1"/>
        <pt x="652" y="1688" on="0"/>
        <pt x="793" y="1560" on="0"/>
      </contour>
      <contour>
        <pt x="690" y="563" on="1"/>
        <pt x="602" y="915" on="0"/>
        <pt x="556" y="1120" on="0"/>
        <pt x="547" y="1167" on="1"/>
        <pt x="541" y="1135" on="0"/>
        <pt x="483" y="874" on="1"/>
        <pt x="406" y="563" on="1"/>
      </contour>
      <contour>
        <pt x="430" y="1761" on="1"/>
        <pt x="470" y="1798" on="0"/>
        <pt x="571" y="1916" on="0"/>
        <pt x="604" y="1962" on="1"/>
        <pt x="922" y="1962" on="1"/>
        <pt x="922" y="1948" on="1"/>
        <pt x="896" y="1919" on="0"/>
        <pt x="686" y="1779" on="0"/>
        <pt x="616" y="1743" on="1"/>
        <pt x="430" y="1743" on="1"/>
      </contour>
      <contour>
        <pt x="643" y="1454" on="1"/>
        <pt x="643" y="1501" on="0"/>
        <pt x="586" y="1554" on="0"/>
        <pt x="543" y="1554" on="1"/>
        <pt x="499" y="1554" on="0"/>
        <pt x="444" y="1501" on="0"/>
        <pt x="444" y="1454" on="1"/>
        <pt x="444" y="1356" on="0"/>
        <pt x="551" y="1356" on="1"/>
        <pt x="591" y="1356" on="0"/>
        <pt x="643" y="1409" on="0"/>
      </contour>
    </TTGlyph>
    <TTGlyph name="Atilde" xMin="0" yMin="0" xMax="1094" yMax="1880">
      <component glyphName="A" x="0" y="0" flags="0x204"/>
      <component glyphName="tilde" x="-11" y="338" flags="0x4"/>
    </TTGlyph>
    <TTGlyph name="B" xMin="129" yMin="0" xMax="967" yMax="1462">
      <contour>
        <pt x="129" y="1462" on="1"/>
        <pt x="502" y="1462" on="1"/>
        <pt x="730" y="1462" on="0"/>
        <pt x="938" y="1285" on="0"/>
        <pt x="938" y="1092" on="1"/>
        <pt x="938" y="965" on="0"/>
        <pt x="828" y="794" on="0"/>
        <pt x="733" y="776" on="1"/>
        <pt x="733" y="766" on="1"/>
        <pt x="857" y="735" on="0"/>
        <pt x="967" y="565" on="0"/>
        <pt x="967" y="424" on="1"/>
        <pt x="967" y="225" on="0"/>
        <pt x="754" y="0" on="0"/>
        <pt x="569" y="0" on="1"/>
        <pt x="129" y="0" on="1"/>
      </contour>
      <contour>
        <pt x="385" y="874" on="1"/>
        <pt x="510" y="874" on="1"/>
        <pt x="596" y="874" on="0"/>
        <pt x="666" y="966" on="0"/>
        <pt x="666" y="1057" on="1"/>
        <pt x="666" y="1148" on="0"/>
        <pt x="586" y="1227" on="0"/>
        <pt x="500" y="1227" on="1"/>
        <pt x="385" y="1227" on="1"/>
      </contour>
      <contour>
        <pt x="385" y="647" on="1"/>
        <pt x="385" y="238" on="1"/>
        <pt x="522" y="238" on="1"/>
        <pt x="607" y="238" on="0"/>
        <pt x="690" y="342" on="0"/>
        <pt x="690" y="451" on="1"/>
        <pt x="690" y="647" on="0"/>
        <pt x="518" y="647" on="1"/>
      </contour>
    </TTGlyph>
    <TTGlyph name="Beta" xMin="129" yMin="0" xMax="967" yMax="1462">
      <component glyphName="B" x="0" y="0" flags="0x204"/>
    </TTGlyph>
    <TTGlyph name="C" xMin="84" yMin="-20" xMax="911" yMax="1483">
      <contour>
        <pt x="614" y="1245" on="1"/>
        <pt x="497" y="1245" on="0"/>
        <pt x="362" y="971" on="0"/>
        <pt x="362" y="727" on="1"/>
        <pt x="362" y="219" on="0"/>
        <pt x="627" y="219" on="1"/>
        <pt x="743" y="219" on="0"/>
        <pt x="870" y="293" on="1"/>
        <pt x="870" y="51" on="1"/>
        <pt x="763" y="-20" on="0"/>
        <pt x="596" y="-20" on="1"/>
        <pt x="349" y="-20" on="0"/>
        <pt x="84" y="373" on="0"/>
        <pt x="84" y="729" on="1"/>
        <pt x="84" y="1085" on="0"/>
        <pt x="357" y="1483" on="0"/>
        <pt x="600" y="1483" on="1"/>
        <pt x="680" y="1483" on="0"/>
        <pt x="827" y="1439" on="0"/>
        <pt x="911" y="1384" on="1"/>
        <pt x="821" y="1163" on="1"/>
        <pt x="776" y="1194" on="0"/>
        <pt x="674" y="1245" on="0"/>
      </contour>
    </TTGlyph>
    <TTGlyph name="Cacute" xMin="84" yMin="-20" xMax="911" yMax="1907">
      <component glyphName="C" x="0" y="0" flags="0x204"/>
      <component glyphName="acute" x="104" y="338" flags="0x4"/>
    </TTGlyph>
    <TTGlyph name="Ccaron" xMin="84" yMin="-20" xMax="911" yMax="1907">
      <component glyphName="C" x="0" y="0" flags="0x204"/>
      <component glyphName="caron" x="-13" y="338" flags="0x4"/>
    </TTGlyph>
    <TTGlyph name="Ccedilla" xMin="84" yMin="-492" xMax="911" yMax="1483">
      <component glyphName="C" x="0" y="0" flags="0x204"/>
      <component glyphName="cedilla" x="350" y="0" flags="0x4"/>
    </TTGlyph>
    <TTGlyph name="Ccircumflex" xMin="84" yMin="-20" xMax="911" yMax="1907">
      <component glyphName="C" x="0" y="0" flags="0x204"/>
      <component glyphName="circumflex" x="-13" y="338" flags="0x4"/>
    </TTGlyph>
    <TTGlyph name="Cdot" xMin="84" yMin="-20" xMax="911" yMax="1886">
      <component glyphName="C" x="0" y="0" flags="0x204"/>
      <component glyphName="dotaccent" x="262" y="338" flags="0x4"/>
    </TTGlyph>
    <TTGlyph name="Chi" xMin="0" yMin="0" xMax="969" yMax="1462">
      <component glyphName="X" x="0" y="0" flags="0x204"/>
    </TTGlyph>
    <TTGlyph name="D" xMin="129" yMin="0" xMax="1059" yMax="1462">
      <contour>
        <pt x="1059" y="745" on="1"/>
        <pt x="1059" y="383" on="0"/>
        <pt x="764" y="0" on="0"/>
        <pt x="487" y="0" on="1"/>
        <pt x="129" y="0" on="1"/>
        <pt x="129" y="1462" on="1"/>
        <pt x="520" y="1462" on="1"/>
        <pt x="775" y="1462" on="0"/>
        <pt x="1059" y="1085" on="0"/>
      </contour>
      <contour>
        <pt x="780" y="737" on="1"/>
        <pt x="780" y="1227" on="0"/>
        <pt x="510" y="1227" on="1"/>
        <pt x="401" y="1227" on="1"/>
        <pt x="401" y="238" on="1"/>
        <pt x="489" y="238" on="1"/>
        <pt x="638" y="238" on="0"/>
        <pt x="780" y="487" on="0"/>
      </contour>
    </TTGlyph>
    <TTGlyph name="Dcaron" xMin="129" yMin="0" xMax="1059" yMax="1907">
      <component glyphName="D" x="0" y="0" flags="0x204"/>
      <component glyphName="caron" x="-28" y="338" flags="0x4"/>
    </TTGlyph>
    <TTGlyph name="Dcroat" xMin="0" yMin="0" xMax="1059" yMax="1462">
      <component glyphName="Eth" x="0" y="0" flags="0x204"/>
    </TTGlyph>
    <TTGlyph name="Delta" xMin="35" yMin="0" xMax="1051" yMax="1468">
      <contour>
        <pt x="35" y="160" on="1"/>
        <pt x="356" y="1468" on="1"/>
        <pt x="727" y="1468" on="1"/>
        <pt x="1051" y="160" on="1"/>
        <pt x="1051" y="0" on="1"/>
        <pt x="35" y="0" on="1"/>
      </contour>
      <contour>
        <pt x="541" y="1266" on="1"/>
        <pt x="504" y="1044" on="0"/>
        <pt x="473" y="920" on="1"/>
        <pt x="319" y="240" on="1"/>
        <pt x="762" y="240" on="1"/>
        <pt x="574" y="1091" on="0"/>
        <pt x="546" y="1220" on="0"/>
      </contour>
    </TTGlyph>
    <TTGlyph name="E" xMin="129" yMin="0" xMax="788" yMax="1462">
      <contour>
        <pt x="788" y="0" on="1"/>
        <pt x="129" y="0" on="1"/>
        <pt x="129" y="1462" on="1"/>
        <pt x="788" y="1462" on="1"/>
        <pt x="788" y="1227" on="1"/>
        <pt x="401" y="1227" on="1"/>
        <pt x="401" y="879" on="1"/>
        <pt x="760" y="879" on="1"/>
        <pt x="760" y="643" on="1"/>
        <pt x="401" y="643" on="1"/>
        <pt x="401" y="238" on="1"/>
        <pt x="788" y="238" on="1"/>
      </contour>
    </TTGlyph>
    <TTGlyph name="Eacute" xMin="129" yMin="0" xMax="826" yMax="1907">
      <component glyphName="E" x="0" y="0" flags="0x204"/>
      <component glyphName="acute" x="25" y="338" flags="0x4"/>
    </TTGlyph>
    <TTGlyph name="Ebreve" xMin="129" yMin="0" xMax="788" yMax="1905">
      <component glyphName="E" x="0" y="0" flags="0x204"/>
      <component glyphName="breve" x="-103" y="338" flags="0x4"/>
    </TTGlyph>
    <TTGlyph name="Ecaron" xMin="103" yMin="0" xMax="814" yMax="1907">
      <component glyphName="E" x="0" y="0" flags="0x204"/>
      <component glyphName="caron" x="-108" y="338" flags="0x4"/>
    </TTGlyph>
    <TTGlyph name="Ecircumflex" xMin="103" yMin="0" xMax="814" yMax="1907">
      <component glyphName="E" x="0" y="0" flags="0x204"/>
      <component glyphName="circumflex" x="-108" y="338" flags="0x4"/>
    </TTGlyph>
    <TTGlyph name="Edieresis" xMin="129" yMin="0" xMax="794" yMax="1870">
      <component glyphName="E" x="0" y="0" flags="0x204"/>
      <component glyphName="dieresis" x="-103" y="338" flags="0x4"/>
    </TTGlyph>
    <TTGlyph name="Edotaccent" xMin="129" yMin="0" xMax="788" yMax="1857">
      <component glyphName="E" x="0" y="0" flags="0x204"/>
      <component glyphName="dotaccent" x="174" y="309" flags="0x4"/>
    </TTGlyph>
    <TTGlyph name="Egrave" xMin="89" yMin="0" xMax="788" yMax="1907">
      <component glyphName="E" x="0" y="0" flags="0x204"/>
      <component glyphName="grave" x="-222" y="338" flags="0x4"/>
    </TTGlyph>
    <TTGlyph name="Emacron" xMin="129" yMin="0" xMax="788" yMax="1813">
      <component glyphName="E" x="0" y="0" flags="0x204"/>
      <component glyphName="macron" x="-83" y="338" flags="0x4"/>
    </TTGlyph>
    <TTGlyph name="Eng" xMin="129" yMin="-422" xMax="1153" yMax="1462">
      <contour>
        <pt x="768" y="-422" on="1"/>
        <pt x="661" y="-422" on="0"/>
        <pt x="598" y="-397" on="1"/>
        <pt x="598" y="-160" on="1"/>
        <pt x="668" y="-180" on="0"/>
        <pt x="729" y="-180" on="1"/>
        <pt x="887" y="-180" on="0"/>
        <pt x="901" y="0" on="1"/>
        <pt x="373" y="1067" on="1"/>
        <pt x="358" y="1067" on="1"/>
        <pt x="381" y="772" on="0"/>
        <pt x="381" y="649" on="1"/>
        <pt x="381" y="0" on="1"/>
        <pt x="129" y="0" on="1"/>
        <pt x="129" y="1462" on="1"/>
        <pt x="451" y="1462" on="1"/>
        <pt x="909" y="541" on="1"/>
        <pt x="922" y="541" on="1"/>
        <pt x="903" y="782" on="0"/>
        <pt x="903" y="942" on="1"/>
        <pt x="903" y="1462" on="1"/>
        <pt x="1153" y="1462" on="1"/>
        <pt x="1153" y="45" on="1"/>
        <pt x="1153" y="-174" on="0"/>
        <pt x="949" y="-422" on="0"/>
      </contour>
    </TTGlyph>
    <TTGlyph name="Eogonek" xMin="129" yMin="-483" xMax="788" yMax="1462">
      <component glyphName="E" x="0" y="0" flags="0x204"/>
      <component glyphName="ogonek" x="373" y="0" flags="0x4"/>
    </TTGlyph>
    <TTGlyph name="Epsilon" xMin="129" yMin="0" xMax="788" yMax="1462">
      <component glyphName="E" x="0" y="0" flags="0x204"/>
    </TTGlyph>
    <TTGlyph name="Epsilontonos" xMin="-38" yMin="0" xMax="1036" yMax="1462">
      <component glyphName="E" x="248" y="0" flags="0x4"/>
      <component glyphName="tonos" x="-468" y="-105" flags="0x4"/>
    </TTGlyph>
    <TTGlyph name="Eta" xMin="129" yMin="0" xMax="1032" yMax="1462">
      <component glyphName="H" x="0" y="0" flags="0x204"/>
    </TTGlyph>
    <TTGlyph name="Etatonos" xMin="-38" yMin="0" xMax="1294" yMax="1462">
      <component glyphName="H" x="262" y="0" flags="0x4"/>
      <component glyphName="tonos" x="-468" y="-105" flags="0x4"/>
    </TTGlyph>
    <TTGlyph name="Eth" xMin="0" yMin="0" xMax="1059" yMax="1462">
      <contour>
        <pt x="0" y="842" on="1"/>
        <pt x="129" y="842" on="1"/>
        <pt x="129" y="1462" on="1"/>
        <pt x="520" y="1462" on="1"/>
        <pt x="775" y="1462" on="0"/>
        <pt x="1059" y="1085" on="0"/>
        <pt x="1059" y="745" on="1"/>
        <pt x="1059" y="383" on="0"/>
        <pt x="764" y="0" on="0"/>
        <pt x="487" y="0" on="1"/>
        <pt x="129" y="0" on="1"/>
        <pt x="129" y="604" on="1"/>
        <pt x="0" y="604" on="1"/>
      </contour>
      <contour>
        <pt x="780" y="737" on="1"/>
        <pt x="780" y="1227" on="0"/>
        <pt x="510" y="1227" on="1"/>
        <pt x="401" y="1227" on="1"/>
        <pt x="401" y="842" on="1"/>
        <pt x="584" y="842" on="1"/>
        <pt x="584" y="604" on="1"/>
        <pt x="401" y="604" on="1"/>
        <pt x="401" y="238" on="1"/>
        <pt x="489" y="238" on="1"/>
        <pt x="638" y="238" on="0"/>
        <pt x="780" y="487" on="0"/>
      </contour>
    </TTGlyph>
    <TTGlyph name="Euro" xMin="41" yMin="-20" xMax="928" yMax="1485">
      <contour>
        <pt x="659" y="1247" on="1"/>
        <pt x="574" y="1247" on="0"/>
        <pt x="463" y="1092" on="0"/>
        <pt x="440" y="946" on="1"/>
        <pt x="735" y="946" on="1"/>
        <pt x="735" y="778" on="1"/>
        <pt x="426" y="778" on="1"/>
        <pt x="426" y="655" on="1"/>
        <pt x="690" y="655" on="1"/>
        <pt x="690" y="487" on="1"/>
        <pt x="442" y="487" on="1"/>
        <pt x="493" y="219" on="0"/>
        <pt x="674" y="219" on="1"/>
        <pt x="782" y="219" on="0"/>
        <pt x="907" y="293" on="1"/>
        <pt x="907" y="51" on="1"/>
        <pt x="798" y="-20" on="0"/>
        <pt x="645" y="-20" on="1"/>
        <pt x="451" y="-20" on="0"/>
        <pt x="209" y="239" on="0"/>
        <pt x="172" y="487" on="1"/>
        <pt x="41" y="487" on="1"/>
        <pt x="41" y="655" on="1"/>
        <pt x="158" y="655" on="1"/>
        <pt x="158" y="778" on="1"/>
        <pt x="41" y="778" on="1"/>
        <pt x="41" y="946" on="1"/>
        <pt x="170" y="946" on="1"/>
        <pt x="208" y="1209" on="0"/>
        <pt x="456" y="1485" on="0"/>
        <pt x="647" y="1485" on="1"/>
        <pt x="734" y="1485" on="0"/>
        <pt x="863" y="1452" on="0"/>
        <pt x="928" y="1415" on="1"/>
        <pt x="838" y="1200" on="1"/>
        <pt x="742" y="1247" on="0"/>
      </contour>
    </TTGlyph>
    <TTGlyph name="F" xMin="129" yMin="0" xMax="784" yMax="1462">
      <contour>
        <pt x="399" y="0" on="1"/>
        <pt x="129" y="0" on="1"/>
        <pt x="129" y="1462" on="1"/>
        <pt x="784" y="1462" on="1"/>
        <pt x="784" y="1227" on="1"/>
        <pt x="399" y="1227" on="1"/>
        <pt x="399" y="821" on="1"/>
        <pt x="758" y="821" on="1"/>
        <pt x="758" y="586" on="1"/>
        <pt x="399" y="586" on="1"/>
      </contour>
    </TTGlyph>
    <TTGlyph name="G" xMin="84" yMin="-20" xMax="1018" yMax="1483">
      <contour>
        <pt x="571" y="811" on="1"/>
        <pt x="1018" y="811" on="1"/>
        <pt x="1018" y="61" on="1"/>
        <pt x="828" y="-20" on="0"/>
        <pt x="614" y="-20" on="1"/>
        <pt x="359" y="-20" on="0"/>
        <pt x="84" y="368" on="0"/>
        <pt x="84" y="733" on="1"/>
        <pt x="84" y="1085" on="0"/>
        <pt x="399" y="1483" on="0"/>
        <pt x="682" y="1483" on="1"/>
        <pt x="857" y="1483" on="0"/>
        <pt x="1016" y="1393" on="1"/>
        <pt x="930" y="1171" on="1"/>
        <pt x="806" y="1243" on="0"/>
        <pt x="698" y="1243" on="1"/>
        <pt x="543" y="1243" on="0"/>
        <pt x="362" y="966" on="0"/>
        <pt x="362" y="727" on="1"/>
        <pt x="362" y="481" on="0"/>
        <pt x="493" y="219" on="0"/>
        <pt x="618" y="219" on="1"/>
        <pt x="684" y="219" on="0"/>
        <pt x="752" y="236" on="1"/>
        <pt x="752" y="571" on="1"/>
        <pt x="571" y="571" on="1"/>
      </contour>
    </TTGlyph>
    <TTGlyph name="Gamma" xMin="129" yMin="0" xMax="782" yMax="1462">
      <contour>
        <pt x="782" y="1462" on="1"/>
        <pt x="782" y="1227" on="1"/>
        <pt x="399" y="1227" on="1"/>
        <pt x="399" y="0" on="1"/>
        <pt x="129" y="0" on="1"/>
        <pt x="129" y="1462" on="1"/>
      </contour>
    </TTGlyph>
    <TTGlyph name="Gbreve" xMin="84" yMin="-20" xMax="1018" yMax="1905">
      <component glyphName="G" x="0" y="0" flags="0x204"/>
      <component glyphName="breve" x="51" y="338" flags="0x4"/>
    </TTGlyph>
    <TTGlyph name="Gcircumflex" xMin="84" yMin="-20" xMax="1018" yMax="1907">
      <component glyphName="G" x="0" y="0" flags="0x204"/>
      <component glyphName="circumflex" x="47" y="338" flags="0x4"/>
    </TTGlyph>
    <TTGlyph name="Gcommaaccent" xMin="84" yMin="-453" xMax="1018" yMax="1483">
      <component glyphName="G" x="0" y="0" flags="0x204"/>
      <component glyphName="commaaccent" x="98" y="0" flags="0x4"/>
    </TTGlyph>
    <TTGlyph name="Gdot" xMin="84" yMin="-20" xMax="1018" yMax="1886">
      <component glyphName="G" x="0" y="0" flags="0x204"/>
      <component glyphName="dotaccent" x="326" y="338" flags="0x4"/>
    </TTGlyph>
    <TTGlyph name="H" xMin="129" yMin="0" xMax="1032" yMax="1462">
      <contour>
        <pt x="1032" y="0" on="1"/>
        <pt x="760" y="0" on="1"/>
        <pt x="760" y="641" on="1"/>
        <pt x="401" y="641" on="1"/>
        <pt x="401" y="0" on="1"/>
        <pt x="129" y="0" on="1"/>
        <pt x="129" y="1462" on="1"/>
        <pt x="401" y="1462" on="1"/>
        <pt x="401" y="881" on="1"/>
        <pt x="760" y="881" on="1"/>
        <pt x="760" y="1462" on="1"/>
        <pt x="1032" y="1462" on="1"/>
      </contour>
    </TTGlyph>
    <TTGlyph name="Hbar" xMin="-12" yMin="0" xMax="1174" yMax="1462">
      <contour>
        <pt x="1032" y="1257" on="1"/>
        <pt x="1174" y="1257" on="1"/>
        <pt x="1174" y="1069" on="1"/>
        <pt x="1032" y="1069" on="1"/>
        <pt x="1032" y="0" on="1"/>
        <pt x="760" y="0" on="1"/>
        <pt x="760" y="641" on="1"/>
        <pt x="401" y="641" on="1"/>
        <pt x="401" y="0" on="1"/>
        <pt x="129" y="0" on="1"/>
        <pt x="129" y="1069" on="1"/>
        <pt x="-12" y="1069" on="1"/>
        <pt x="-12" y="1257" on="1"/>
        <pt x="129" y="1257" on="1"/>
        <pt x="129" y="1462" on="1"/>
        <pt x="401" y="1462" on="1"/>
        <pt x="401" y="1257" on="1"/>
        <pt x="760" y="1257" on="1"/>
        <pt x="760" y="1462" on="1"/>
        <pt x="1032" y="1462" on="1"/>
      </contour>
      <contour>
        <pt x="760" y="881" on="1"/>
        <pt x="760" y="1069" on="1"/>
        <pt x="401" y="1069" on="1"/>
        <pt x="401" y="881" on="1"/>
      </contour>
    </TTGlyph>
    <TTGlyph name="Hcircumflex" xMin="129" yMin="0" xMax="1032" yMax="1907">
      <component glyphName="H" x="0" y="0" flags="0x204"/>
      <component glyphName="circumflex" x="-1" y="338" flags="0x4"/>
    </TTGlyph>
    <TTGlyph name="I" xMin="178" yMin="0" xMax="434" yMax="1462">
      <contour>
        <pt x="178" y="0" on="1"/>
        <pt x="178" y="1462" on="1"/>
        <pt x="434" y="1462" on="1"/>
        <pt x="434" y="0" on="1"/>
      </contour>
    </TTGlyph>
    <TTGlyph name="I.alt" xMin="63" yMin="0" xMax="549" yMax="1462">
      <contour>
        <pt x="549" y="0" on="1"/>
        <pt x="63" y="0" on="1"/>
        <pt x="63" y="162" on="1"/>
        <pt x="178" y="219" on="1"/>
        <pt x="178" y="1243" on="1"/>
        <pt x="63" y="1300" on="1"/>
        <pt x="63" y="1462" on="1"/>
        <pt x="549" y="1462" on="1"/>
        <pt x="549" y="1300" on="1"/>
        <pt x="434" y="1243" on="1"/>
        <pt x="434" y="219" on="1"/>
        <pt x="549" y="162" on="1"/>
      </contour>
    </TTGlyph>
    <TTGlyph name="IJ" xMin="178" yMin="-422" xMax="1034" yMax="1462">
      <component glyphName="I" x="0" y="0" flags="0x4"/>
      <component glyphName="J" x="633" y="0" flags="0x4"/>
    </TTGlyph>
    <TTGlyph name="IJ.alt" xMin="63" yMin="-422" xMax="1034" yMax="1462">
      <component glyphName="I.alt" x="0" y="0" flags="0x4"/>
      <component glyphName="J" x="633" y="0" flags="0x4"/>
    </TTGlyph>
    <TTGlyph name="Iacute" xMin="167" yMin="0" xMax="657" yMax="1907">
      <component glyphName="I" x="0" y="0" flags="0x204"/>
      <component glyphName="acute" x="-144" y="338" flags="0x4"/>
    </TTGlyph>
    <TTGlyph name="Iacute.alt" xMin="63" yMin="0" xMax="657" yMax="1907">
      <component glyphName="I.alt" x="0" y="0" flags="0x204"/>
      <component glyphName="acute" x="-144" y="338" flags="0x4"/>
    </TTGlyph>
    <TTGlyph name="Ibreve" xMin="-3" yMin="0" xMax="617" yMax="1905">
      <component glyphName="I" x="0" y="0" flags="0x204"/>
      <component glyphName="breve" x="-255" y="338" flags="0x4"/>
    </TTGlyph>
    <TTGlyph name="Ibreve.alt" xMin="1" yMin="0" xMax="621" yMax="1905">
      <component glyphName="I.alt" x="0" y="0" flags="0x204"/>
      <component glyphName="breve" x="-251" y="338" flags="0x4"/>
    </TTGlyph>
    <TTGlyph name="Icircumflex" xMin="-48" yMin="0" xMax="663" yMax="1907">
      <component glyphName="I" x="0" y="0" flags="0x204"/>
      <component glyphName="circumflex" x="-259" y="338" flags="0x4"/>
    </TTGlyph>
    <TTGlyph name="Icircumflex.alt" xMin="-46" yMin="0" xMax="665" yMax="1907">
      <component glyphName="I.alt" x="0" y="0" flags="0x204"/>
      <component glyphName="circumflex" x="-257" y="338" flags="0x4"/>
    </TTGlyph>
    <TTGlyph name="Idieresis" xMin="-24" yMin="0" xMax="640" yMax="1870">
      <component glyphName="I" x="0" y="0" flags="0x204"/>
      <component glyphName="dieresis" x="-257" y="338" flags="0x4"/>
    </TTGlyph>
    <TTGlyph name="Idieresis.alt" xMin="-18" yMin="0" xMax="646" yMax="1870">
      <component glyphName="I.alt" x="0" y="0" flags="0x204"/>
      <component glyphName="dieresis" x="-251" y="338" flags="0x4"/>
    </TTGlyph>
    <TTGlyph name="Idotaccent" xMin="149" yMin="0" xMax="456" yMax="1886">
      <component glyphName="I" x="0" y="0" flags="0x204"/>
      <component glyphName="dotaccent" x="18" y="338" flags="0x4"/>
    </TTGlyph>
    <TTGlyph name="Idotaccent.alt" xMin="63" yMin="0" xMax="549" yMax="1886">
      <component glyphName="I.alt" x="0" y="0" flags="0x204"/>
      <component glyphName="dotaccent" x="16" y="338" flags="0x4"/>
    </TTGlyph>
    <TTGlyph name="Igrave" xMin="-50" yMin="0" xMax="440" yMax="1907">
      <component glyphName="I" x="0" y="0" flags="0x204"/>
      <component glyphName="grave" x="-361" y="338" flags="0x4"/>
    </TTGlyph>
    <TTGlyph name="Igrave.alt" xMin="-48" yMin="0" xMax="549" yMax="1907">
      <component glyphName="I.alt" x="0" y="0" flags="0x204"/>
      <component glyphName="grave" x="-359" y="338" flags="0x4"/>
    </TTGlyph>
    <TTGlyph name="Imacron" xMin="5" yMin="0" xMax="611" yMax="1813">
      <component glyphName="I" x="0" y="0" flags="0x204"/>
      <component glyphName="macron" x="-235" y="338" flags="0x4"/>
    </TTGlyph>
    <TTGlyph name="Imacron.alt" xMin="10" yMin="0" xMax="616" yMax="1813">
      <component glyphName="I.alt" x="0" y="0" flags="0x204"/>
      <component glyphName="macron" x="-230" y="338" flags="0x4"/>
    </TTGlyph>
    <TTGlyph name="Iogonek" xMin="107" yMin="-483" xMax="459" yMax="1462">
      <component glyphName="I" x="0" y="0" flags="0x204"/>
      <component glyphName="ogonek" x="78" y="0" flags="0x4"/>
    </TTGlyph>
    <TTGlyph name="Iogonek.alt" xMin="63" yMin="-483" xMax="549" yMax="1462">
      <component glyphName="I.alt" x="0" y="0" flags="0x204"/>
      <component glyphName="ogonek" x="111" y="0" flags="0x4"/>
    </TTGlyph>
    <TTGlyph name="Iota" xMin="178" yMin="0" xMax="434" yMax="1462">
      <component glyphName="I" x="0" y="0" flags="0x204"/>
    </TTGlyph>
    <TTGlyph name="Iota.alt" xMin="63" yMin="0" xMax="549" yMax="1462">
      <component glyphName="I.alt" x="0" y="0" flags="0x204"/>
    </TTGlyph>
    <TTGlyph name="Iotadieresis" xMin="-24" yMin="0" xMax="640" yMax="1870">
      <component glyphName="I" x="0" y="0" flags="0x204"/>
      <component glyphName="dieresis" x="-257" y="338" flags="0x4"/>
    </TTGlyph>
    <TTGlyph name="Iotadieresis.alt" xMin="-18" yMin="0" xMax="646" yMax="1870">
      <component glyphName="I" x="0" y="0" flags="0x204"/>
      <component glyphName="dieresis" x="-251" y="338" flags="0x4"/>
    </TTGlyph>
    <TTGlyph name="Iotatonos" xMin="-38" yMin="0" xMax="647" yMax="1462">
      <component glyphName="I" x="213" y="0" flags="0x4"/>
      <component glyphName="tonos" x="-468" y="-105" flags="0x4"/>
    </TTGlyph>
    <TTGlyph name="Iotatonos.alt" xMin="-54" yMin="0" xMax="844" yMax="1462">
      <component glyphName="I.alt" x="295" y="0" flags="0x4"/>
      <component glyphName="tonos" x="-484" y="-105" flags="0x4"/>
    </TTGlyph>
    <TTGlyph name="Itilde" xMin="-30" yMin="0" xMax="664" yMax="1880">
      <component glyphName="I" x="0" y="0" flags="0x204"/>
      <component glyphName="tilde" x="-251" y="338" flags="0x4"/>
    </TTGlyph>
    <TTGlyph name="Itilde.alt" xMin="-28" yMin="0" xMax="666" yMax="1880">
      <component glyphName="I.alt" x="0" y="0" flags="0x204"/>
      <component glyphName="tilde" x="-249" y="338" flags="0x4"/>
    </TTGlyph>
    <TTGlyph name="J" xMin="-154" yMin="-422" xMax="401" yMax="1462">
      <contour>
        <pt x="14" y="-422" on="1"/>
        <pt x="-92" y="-422" on="0"/>
        <pt x="-154" y="-397" on="1"/>
        <pt x="-154" y="-160" on="1"/>
        <pt x="-89" y="-180" on="0"/>
        <pt x="-31" y="-180" on="1"/>
        <pt x="52" y="-180" on="0"/>
        <pt x="129" y="-74" on="0"/>
        <pt x="129" y="31" on="1"/>
        <pt x="129" y="1462" on="1"/>
        <pt x="401" y="1462" on="1"/>
        <pt x="401" y="45" on="1"/>
        <pt x="401" y="-99" on="0"/>
        <pt x="304" y="-311" on="0"/>
        <pt x="127" y="-422" on="0"/>
      </contour>
    </TTGlyph>
    <TTGlyph name="Jcircumflex" xMin="-154" yMin="-422" xMax="622" yMax="1907">
      <component glyphName="J" x="0" y="0" flags="0x204"/>
      <component glyphName="circumflex" x="-300" y="338" flags="0x4"/>
    </TTGlyph>
    <TTGlyph name="K" xMin="129" yMin="0" xMax="1040" yMax="1462">
      <contour>
        <pt x="1040" y="0" on="1"/>
        <pt x="750" y="0" on="1"/>
        <pt x="510" y="625" on="1"/>
        <pt x="401" y="516" on="1"/>
        <pt x="401" y="0" on="1"/>
        <pt x="129" y="0" on="1"/>
        <pt x="129" y="1462" on="1"/>
        <pt x="401" y="1462" on="1"/>
        <pt x="401" y="737" on="1"/>
        <pt x="496" y="956" on="1"/>
        <pt x="745" y="1462" on="1"/>
        <pt x="1036" y="1462" on="1"/>
        <pt x="698" y="829" on="1"/>
      </contour>
    </TTGlyph>
    <TTGlyph name="Kappa" xMin="129" yMin="0" xMax="1040" yMax="1462">
      <component glyphName="K" x="0" y="0" flags="0x204"/>
    </TTGlyph>
    <TTGlyph name="Kcommaaccent" xMin="129" yMin="-453" xMax="1040" yMax="1462">
      <component glyphName="K" x="0" y="0" flags="0x204"/>
      <component glyphName="commaaccent" x="55" y="0" flags="0x4"/>
    </TTGlyph>
    <TTGlyph name="L" xMin="129" yMin="0" xMax="778" yMax="1462">
      <contour>
        <pt x="129" y="0" on="1"/>
        <pt x="129" y="1462" on="1"/>
        <pt x="401" y="1462" on="1"/>
        <pt x="401" y="238" on="1"/>
        <pt x="778" y="238" on="1"/>
        <pt x="778" y="0" on="1"/>
      </contour>
    </TTGlyph>
    <TTGlyph name="Lacute" xMin="129" yMin="0" xMax="778" yMax="1907">
      <component glyphName="L" x="0" y="0" flags="0x204"/>
      <component glyphName="acute" x="-151" y="338" flags="0x4"/>
    </TTGlyph>
    <TTGlyph name="Lambda" xMin="0" yMin="0" xMax="1032" yMax="1462">
      <contour>
        <pt x="274" y="0" on="1"/>
        <pt x="0" y="0" on="1"/>
        <pt x="344" y="1462" on="1"/>
        <pt x="690" y="1462" on="1"/>
        <pt x="1032" y="0" on="1"/>
        <pt x="758" y="0" on="1"/>
        <pt x="567" y="893" on="1"/>
        <pt x="560" y="923" on="0"/>
        <pt x="528" y="1125" on="0"/>
        <pt x="516" y="1221" on="1"/>
        <pt x="508" y="1149" on="0"/>
        <pt x="463" y="893" on="1"/>
      </contour>
    </TTGlyph>
    <TTGlyph name="Lcaron" xMin="129" yMin="0" xMax="831" yMax="1463">
      <component glyphName="L" x="0" y="0" flags="0x204"/>
      <component glyphName="caroncommaaccent" x="184" y="-93" flags="0x4"/>
    </TTGlyph>
    <TTGlyph name="Lcommaaccent" xMin="129" yMin="-453" xMax="778" yMax="1462">
      <component glyphName="L" x="0" y="0" flags="0x204"/>
      <component glyphName="commaaccent" x="-62" y="0" flags="0x4"/>
    </TTGlyph>
    <TTGlyph name="Ldot" xMin="129" yMin="0" xMax="823" yMax="1462">
      <component glyphName="L" x="0" y="0" flags="0x204"/>
      <component glyphName="dotaccent" x="385" y="-658" flags="0x4"/>
    </TTGlyph>
    <TTGlyph name="Lslash" xMin="-18" yMin="0" xMax="819" yMax="1462">
      <contour>
        <pt x="170" y="0" on="1"/>
        <pt x="170" y="481" on="1"/>
        <pt x="100" y="430" on="1"/>
        <pt x="-18" y="604" on="1"/>
        <pt x="170" y="739" on="1"/>
        <pt x="170" y="1462" on="1"/>
        <pt x="442" y="1462" on="1"/>
        <pt x="442" y="936" on="1"/>
        <pt x="567" y="1026" on="1"/>
        <pt x="688" y="854" on="1"/>
        <pt x="442" y="678" on="1"/>
        <pt x="442" y="238" on="1"/>
        <pt x="819" y="238" on="1"/>
        <pt x="819" y="0" on="1"/>
      </contour>
    </TTGlyph>
    <TTGlyph name="M" xMin="129" yMin="0" xMax="1477" yMax="1462">
      <contour>
        <pt x="651" y="0" on="1"/>
        <pt x="373" y="1245" on="1"/>
        <pt x="362" y="1245" on="1"/>
        <pt x="381" y="1101" on="0"/>
        <pt x="381" y="981" on="1"/>
        <pt x="381" y="0" on="1"/>
        <pt x="129" y="0" on="1"/>
        <pt x="129" y="1462" on="1"/>
        <pt x="547" y="1462" on="1"/>
        <pt x="797" y="313" on="1"/>
        <pt x="805" y="313" on="1"/>
        <pt x="1053" y="1462" on="1"/>
        <pt x="1477" y="1462" on="1"/>
        <pt x="1477" y="0" on="1"/>
        <pt x="1219" y="0" on="1"/>
        <pt x="1219" y="991" on="1"/>
        <pt x="1219" y="1114" on="0"/>
        <pt x="1233" y="1243" on="1"/>
        <pt x="1225" y="1243" on="1"/>
        <pt x="948" y="0" on="1"/>
      </contour>
    </TTGlyph>
    <TTGlyph name="Mu" xMin="129" yMin="0" xMax="1477" yMax="1462">
      <component glyphName="M" x="0" y="0" flags="0x204"/>
    </TTGlyph>
    <TTGlyph name="N" xMin="129" yMin="0" xMax="1153" yMax="1462">
      <contour>
        <pt x="1153" y="0" on="1"/>
        <pt x="821" y="0" on="1"/>
        <pt x="369" y="1059" on="1"/>
        <pt x="356" y="1059" on="1"/>
        <pt x="381" y="938" on="0"/>
        <pt x="381" y="799" on="1"/>
        <pt x="381" y="0" on="1"/>
        <pt x="129" y="0" on="1"/>
        <pt x="129" y="1462" on="1"/>
        <pt x="463" y="1462" on="1"/>
        <pt x="911" y="414" on="1"/>
        <pt x="922" y="414" on="1"/>
        <pt x="903" y="519" on="0"/>
        <pt x="903" y="664" on="1"/>
        <pt x="903" y="1462" on="1"/>
        <pt x="1153" y="1462" on="1"/>
      </contour>
    </TTGlyph>
    <TTGlyph name="Nacute" xMin="129" yMin="0" xMax="1153" yMax="1907">
      <component glyphName="N" x="0" y="0" flags="0x204"/>
      <component glyphName="acute" x="184" y="338" flags="0x4"/>
    </TTGlyph>
    <TTGlyph name="Ncaron" xMin="129" yMin="0" xMax="1153" yMax="1907">
      <component glyphName="N" x="0" y="0" flags="0x204"/>
      <component glyphName="caron" x="74" y="338" flags="0x4"/>
    </TTGlyph>
    <TTGlyph name="Ncommaaccent" xMin="129" yMin="-453" xMax="1153" yMax="1462">
      <component glyphName="N" x="0" y="0" flags="0x204"/>
      <component glyphName="commaaccent" x="131" y="0" flags="0x4"/>
    </TTGlyph>
    <TTGlyph name="Ntilde" xMin="129" yMin="0" xMax="1153" yMax="1880">
      <component glyphName="N" x="0" y="0" flags="0x204"/>
      <component glyphName="tilde" x="82" y="338" flags="0x4"/>
    </TTGlyph>
    <TTGlyph name="Nu" xMin="129" yMin="0" xMax="1153" yMax="1462">
      <component glyphName="N" x="0" y="0" flags="0x204"/>
    </TTGlyph>
    <TTGlyph name="O" xMin="84" yMin="-20" xMax="1135" yMax="1485">
      <contour>
        <pt x="1135" y="733" on="1"/>
        <pt x="1135" y="370" on="0"/>
        <pt x="863" y="-20" on="0"/>
        <pt x="610" y="-20" on="1"/>
        <pt x="356" y="-20" on="0"/>
        <pt x="84" y="369" on="0"/>
        <pt x="84" y="735" on="1"/>
        <pt x="84" y="1098" on="0"/>
        <pt x="356" y="1485" on="0"/>
        <pt x="612" y="1485" on="1"/>
        <pt x="865" y="1485" on="0"/>
        <pt x="1135" y="1096" on="0"/>
      </contour>
      <contour>
        <pt x="362" y="733" on="1"/>
        <pt x="362" y="483" on="0"/>
        <pt x="488" y="221" on="0"/>
        <pt x="610" y="221" on="1"/>
        <pt x="856" y="221" on="0"/>
        <pt x="856" y="733" on="1"/>
        <pt x="856" y="1245" on="0"/>
        <pt x="612" y="1245" on="1"/>
        <pt x="488" y="1245" on="0"/>
        <pt x="362" y="984" on="0"/>
      </contour>
    </TTGlyph>
    <TTGlyph name="OE" xMin="84" yMin="-20" xMax="1360" yMax="1485">
      <contour>
        <pt x="1360" y="0" on="1"/>
        <pt x="760" y="0" on="1"/>
        <pt x="684" y="-20" on="0"/>
        <pt x="610" y="-20" on="1"/>
        <pt x="356" y="-20" on="0"/>
        <pt x="84" y="369" on="0"/>
        <pt x="84" y="735" on="1"/>
        <pt x="84" y="1098" on="0"/>
        <pt x="356" y="1485" on="0"/>
        <pt x="612" y="1485" on="1"/>
        <pt x="693" y="1485" on="0"/>
        <pt x="770" y="1462" on="1"/>
        <pt x="1360" y="1462" on="1"/>
        <pt x="1360" y="1227" on="1"/>
        <pt x="977" y="1227" on="1"/>
        <pt x="977" y="879" on="1"/>
        <pt x="1331" y="879" on="1"/>
        <pt x="1331" y="643" on="1"/>
        <pt x="977" y="643" on="1"/>
        <pt x="977" y="238" on="1"/>
        <pt x="1360" y="238" on="1"/>
      </contour>
      <contour>
        <pt x="612" y="1245" on="1"/>
        <pt x="488" y="1245" on="0"/>
        <pt x="362" y="984" on="0"/>
        <pt x="362" y="733" on="1"/>
        <pt x="362" y="483" on="0"/>
        <pt x="488" y="221" on="0"/>
        <pt x="610" y="221" on="1"/>
        <pt x="664" y="221" on="0"/>
        <pt x="705" y="236" on="1"/>
        <pt x="705" y="1231" on="1"/>
        <pt x="658" y="1245" on="0"/>
      </contour>
    </TTGlyph>
    <TTGlyph name="Oacute" xMin="84" yMin="-20" xMax="1135" yMax="1907">
      <component glyphName="O" x="0" y="0" flags="0x204"/>
      <component glyphName="acute" x="166" y="338" flags="0x4"/>
    </TTGlyph>
    <TTGlyph name="Obreve" xMin="84" yMin="-20" xMax="1135" yMax="1905">
      <component glyphName="O" x="0" y="0" flags="0x204"/>
      <component glyphName="breve" x="45" y="338" flags="0x4"/>
    </TTGlyph>
    <TTGlyph name="Ocircumflex" xMin="84" yMin="-20" xMax="1135" yMax="1907">
      <component glyphName="O" x="0" y="0" flags="0x204"/>
      <component glyphName="circumflex" x="41" y="338" flags="0x4"/>
    </TTGlyph>
    <TTGlyph name="Odieresis" xMin="84" yMin="-20" xMax="1135" yMax="1870">
      <component glyphName="O" x="0" y="0" flags="0x204"/>
      <component glyphName="dieresis" x="43" y="338" flags="0x4"/>
    </TTGlyph>
    <TTGlyph name="Ograve" xMin="84" yMin="-20" xMax="1135" yMax="1907">
      <component glyphName="O" x="0" y="0" flags="0x204"/>
      <component glyphName="grave" x="-67" y="338" flags="0x4"/>
    </TTGlyph>
    <TTGlyph name="Ohorn" xMin="84" yMin="-20" xMax="1364" yMax="1556">
      <contour>
        <pt x="1135" y="733" on="1"/>
        <pt x="1135" y="370" on="0"/>
        <pt x="863" y="-20" on="0"/>
        <pt x="610" y="-20" on="1"/>
        <pt x="356" y="-20" on="0"/>
        <pt x="84" y="369" on="0"/>
        <pt x="84" y="735" on="1"/>
        <pt x="84" y="1098" on="0"/>
        <pt x="356" y="1485" on="0"/>
        <pt x="612" y="1485" on="1"/>
        <pt x="858" y="1485" on="0"/>
        <pt x="997" y="1294" on="1"/>
        <pt x="1065" y="1360" on="0"/>
        <pt x="1069" y="1556" on="1"/>
        <pt x="1350" y="1556" on="1"/>
        <pt x="1364" y="1534" on="1"/>
        <pt x="1329" y="1367" on="0"/>
        <pt x="1192" y="1170" on="0"/>
        <pt x="1081" y="1122" on="1"/>
        <pt x="1135" y="950" on="0"/>
      </contour>
      <contour>
        <pt x="362" y="733" on="1"/>
        <pt x="362" y="483" on="0"/>
        <pt x="488" y="221" on="0"/>
        <pt x="610" y="221" on="1"/>
        <pt x="856" y="221" on="0"/>
        <pt x="856" y="733" on="1"/>
        <pt x="856" y="1245" on="0"/>
        <pt x="612" y="1245" on="1"/>
        <pt x="488" y="1245" on="0"/>
        <pt x="362" y="984" on="0"/>
      </contour>
    </TTGlyph>
    <TTGlyph name="Ohungarumlaut" xMin="84" yMin="-20" xMax="1144" yMax="1907">
      <component glyphName="O" x="0" y="0" flags="0x204"/>
      <component glyphName="hungarumlaut" x="147" y="338" flags="0x4"/>
    </TTGlyph>
    <TTGlyph name="Omacron" xMin="84" yMin="-20" xMax="1135" yMax="1813">
      <component glyphName="O" x="0" y="0" flags="0x204"/>
      <component glyphName="macron" x="68" y="338" flags="0x4"/>
    </TTGlyph>
    <TTGlyph name="Omega" xMin="37" yMin="0" xMax="1192" yMax="1485">
      <component glyphName="uni03A9" x="0" y="0" flags="0x204"/>
    </TTGlyph>
    <TTGlyph name="Omegatonos" xMin="-18" yMin="0" xMax="1370" yMax="1485">
      <component glyphName="uni03A9" x="178" y="0" flags="0x4"/>
      <component glyphName="tonos" x="-448" y="-105" flags="0x4"/>
    </TTGlyph>
    <TTGlyph name="Omicron" xMin="84" yMin="-20" xMax="1135" yMax="1485">
      <component glyphName="O" x="0" y="0" flags="0x204"/>
    </TTGlyph>
    <TTGlyph name="Omicrontonos" xMin="-18" yMin="-20" xMax="1305" yMax="1485">
      <component glyphName="O" x="170" y="0" flags="0x4"/>
      <component glyphName="tonos" x="-448" y="-105" flags="0x4"/>
    </TTGlyph>
    <TTGlyph name="Oslash" xMin="84" yMin="-102" xMax="1135" yMax="1559">
      <contour>
        <pt x="1135" y="733" on="1"/>
        <pt x="1135" y="370" on="0"/>
        <pt x="863" y="-20" on="0"/>
        <pt x="610" y="-20" on="1"/>
        <pt x="475" y="-20" on="0"/>
        <pt x="369" y="37" on="1"/>
        <pt x="299" y="-102" on="1"/>
        <pt x="133" y="-25" on="1"/>
        <pt x="229" y="162" on="1"/>
        <pt x="84" y="355" on="0"/>
        <pt x="84" y="735" on="1"/>
        <pt x="84" y="1098" on="0"/>
        <pt x="356" y="1485" on="0"/>
        <pt x="612" y="1485" on="1"/>
        <pt x="749" y="1485" on="0"/>
        <pt x="864" y="1417" on="1"/>
        <pt x="936" y="1559" on="1"/>
        <pt x="1102" y="1483" on="1"/>
        <pt x="1001" y="1286" on="1"/>
        <pt x="1135" y="1094" on="0"/>
      </contour>
      <contour>
        <pt x="856" y="733" on="1"/>
        <pt x="856" y="885" on="0"/>
        <pt x="844" y="969" on="1"/>
        <pt x="481" y="260" on="1"/>
        <pt x="529" y="221" on="0"/>
        <pt x="610" y="221" on="1"/>
        <pt x="856" y="221" on="0"/>
      </contour>
      <contour>
        <pt x="362" y="733" on="1"/>
        <pt x="362" y="575" on="0"/>
        <pt x="383" y="467" on="1"/>
        <pt x="754" y="1196" on="1"/>
        <pt x="701" y="1245" on="0"/>
        <pt x="612" y="1245" on="1"/>
        <pt x="488" y="1245" on="0"/>
        <pt x="362" y="984" on="0"/>
      </contour>
    </TTGlyph>
    <TTGlyph name="Oslashacute" xMin="84" yMin="-102" xMax="1135" yMax="1907">
      <component glyphName="Oslash" x="0" y="0" flags="0x204"/>
      <component glyphName="acute" x="162" y="338" flags="0x4"/>
    </TTGlyph>
    <TTGlyph name="Otilde" xMin="84" yMin="-20" xMax="1135" yMax="1880">
      <component glyphName="O" x="0" y="0" flags="0x204"/>
      <component glyphName="tilde" x="51" y="338" flags="0x4"/>
    </TTGlyph>
    <TTGlyph name="P" xMin="129" yMin="0" xMax="926" yMax="1462">
      <contour>
        <pt x="926" y="1012" on="1"/>
        <pt x="926" y="779" on="0"/>
        <pt x="691" y="530" on="0"/>
        <pt x="469" y="530" on="1"/>
        <pt x="401" y="530" on="1"/>
        <pt x="401" y="0" on="1"/>
        <pt x="129" y="0" on="1"/>
        <pt x="129" y="1462" on="1"/>
        <pt x="500" y="1462" on="1"/>
        <pt x="926" y="1462" on="0"/>
      </contour>
      <contour>
        <pt x="401" y="766" on="1"/>
        <pt x="453" y="766" on="1"/>
        <pt x="553" y="766" on="0"/>
        <pt x="651" y="876" on="0"/>
        <pt x="651" y="1001" on="1"/>
        <pt x="651" y="1116" on="0"/>
        <pt x="561" y="1227" on="0"/>
        <pt x="467" y="1227" on="1"/>
        <pt x="401" y="1227" on="1"/>
      </contour>
    </TTGlyph>
    <TTGlyph name="Phi" xMin="74" yMin="-20" xMax="1356" yMax="1483">
      <contour>
        <pt x="588" y="1483" on="1"/>
        <pt x="844" y="1483" on="1"/>
        <pt x="844" y="1303" on="1"/>
        <pt x="881" y="1303" on="1"/>
        <pt x="1107" y="1303" on="0"/>
        <pt x="1356" y="1015" on="0"/>
        <pt x="1356" y="762" on="1"/>
        <pt x="1356" y="593" on="0"/>
        <pt x="1238" y="342" on="0"/>
        <pt x="1013" y="205" on="0"/>
        <pt x="854" y="205" on="1"/>
        <pt x="844" y="205" on="1"/>
        <pt x="844" y="-20" on="1"/>
        <pt x="588" y="-20" on="1"/>
        <pt x="588" y="205" on="1"/>
        <pt x="575" y="205" on="1"/>
        <pt x="336" y="205" on="0"/>
        <pt x="74" y="495" on="0"/>
        <pt x="74" y="754" on="1"/>
        <pt x="74" y="916" on="0"/>
        <pt x="190" y="1166" on="0"/>
        <pt x="408" y="1303" on="0"/>
        <pt x="555" y="1303" on="1"/>
        <pt x="588" y="1303" on="1"/>
      </contour>
      <contour>
        <pt x="844" y="410" on="1"/>
        <pt x="852" y="410" on="1"/>
        <pt x="960" y="410" on="0"/>
        <pt x="1077" y="594" on="0"/>
        <pt x="1077" y="760" on="1"/>
        <pt x="1077" y="923" on="0"/>
        <pt x="970" y="1096" on="0"/>
        <pt x="870" y="1096" on="1"/>
        <pt x="844" y="1096" on="1"/>
      </contour>
      <contour>
        <pt x="588" y="1096" on="1"/>
        <pt x="559" y="1096" on="1"/>
        <pt x="459" y="1096" on="0"/>
        <pt x="352" y="919" on="0"/>
        <pt x="352" y="760" on="1"/>
        <pt x="352" y="595" on="0"/>
        <pt x="471" y="410" on="0"/>
        <pt x="578" y="410" on="1"/>
        <pt x="588" y="410" on="1"/>
      </contour>
    </TTGlyph>
    <TTGlyph name="Pi" xMin="129" yMin="0" xMax="1032" yMax="1462">
      <contour>
        <pt x="1032" y="0" on="1"/>
        <pt x="762" y="0" on="1"/>
        <pt x="762" y="1223" on="1"/>
        <pt x="401" y="1223" on="1"/>
        <pt x="401" y="0" on="1"/>
        <pt x="129" y="0" on="1"/>
        <pt x="129" y="1462" on="1"/>
        <pt x="1032" y="1462" on="1"/>
      </contour>
    </TTGlyph>
    <TTGlyph name="Psi" xMin="94" yMin="0" xMax="1356" yMax="1462">
      <contour>
        <pt x="854" y="0" on="1"/>
        <pt x="598" y="0" on="1"/>
        <pt x="598" y="438" on="1"/>
        <pt x="567" y="438" on="1"/>
        <pt x="330" y="438" on="0"/>
        <pt x="94" y="701" on="0"/>
        <pt x="94" y="979" on="1"/>
        <pt x="94" y="1462" on="1"/>
        <pt x="350" y="1462" on="1"/>
        <pt x="350" y="983" on="1"/>
        <pt x="350" y="815" on="0"/>
        <pt x="457" y="670" on="0"/>
        <pt x="578" y="670" on="1"/>
        <pt x="598" y="670" on="1"/>
        <pt x="598" y="1462" on="1"/>
        <pt x="854" y="1462" on="1"/>
        <pt x="854" y="670" on="1"/>
        <pt x="874" y="670" on="1"/>
        <pt x="992" y="670" on="0"/>
        <pt x="1102" y="821" on="0"/>
        <pt x="1102" y="979" on="1"/>
        <pt x="1102" y="1462" on="1"/>
        <pt x="1356" y="1462" on="1"/>
        <pt x="1356" y="983" on="1"/>
        <pt x="1356" y="704" on="0"/>
        <pt x="1122" y="438" on="0"/>
        <pt x="883" y="438" on="1"/>
        <pt x="854" y="438" on="1"/>
      </contour>
    </TTGlyph>
    <TTGlyph name="Q" xMin="84" yMin="-348" xMax="1141" yMax="1485">
      <contour>
        <pt x="1135" y="733" on="1"/>
        <pt x="1135" y="482" on="0"/>
        <pt x="1002" y="136" on="0"/>
        <pt x="872" y="51" on="1"/>
        <pt x="1141" y="-348" on="1"/>
        <pt x="827" y="-348" on="1"/>
        <pt x="625" y="-20" on="1"/>
        <pt x="610" y="-20" on="1"/>
        <pt x="356" y="-20" on="0"/>
        <pt x="84" y="369" on="0"/>
        <pt x="84" y="735" on="1"/>
        <pt x="84" y="1098" on="0"/>
        <pt x="356" y="1485" on="0"/>
        <pt x="612" y="1485" on="1"/>
        <pt x="865" y="1485" on="0"/>
        <pt x="1135" y="1096" on="0"/>
      </contour>
      <contour>
        <pt x="362" y="733" on="1"/>
        <pt x="362" y="483" on="0"/>
        <pt x="488" y="221" on="0"/>
        <pt x="610" y="221" on="1"/>
        <pt x="856" y="221" on="0"/>
        <pt x="856" y="733" on="1"/>
        <pt x="856" y="1245" on="0"/>
        <pt x="612" y="1245" on="1"/>
        <pt x="488" y="1245" on="0"/>
        <pt x="362" y="984" on="0"/>
      </contour>
    </TTGlyph>
    <TTGlyph name="R" xMin="129" yMin="0" xMax="1020" yMax="1462">
      <contour>
        <pt x="401" y="569" on="1"/>
        <pt x="401" y="0" on="1"/>
        <pt x="129" y="0" on="1"/>
        <pt x="129" y="1462" on="1"/>
        <pt x="485" y="1462" on="1"/>
        <pt x="711" y="1462" on="0"/>
        <pt x="926" y="1248" on="0"/>
        <pt x="926" y="1028" on="1"/>
        <pt x="926" y="751" on="0"/>
        <pt x="739" y="641" on="1"/>
        <pt x="1020" y="0" on="1"/>
        <pt x="729" y="0" on="1"/>
        <pt x="498" y="569" on="1"/>
      </contour>
      <contour>
        <pt x="401" y="803" on="1"/>
        <pt x="471" y="803" on="1"/>
        <pt x="567" y="803" on="0"/>
        <pt x="651" y="912" on="0"/>
        <pt x="651" y="1020" on="1"/>
        <pt x="651" y="1132" on="0"/>
        <pt x="562" y="1227" on="0"/>
        <pt x="469" y="1227" on="1"/>
        <pt x="401" y="1227" on="1"/>
      </contour>
    </TTGlyph>
    <TTGlyph name="Racute" xMin="129" yMin="0" xMax="1020" yMax="1907">
      <component glyphName="R" x="0" y="0" flags="0x204"/>
      <component glyphName="acute" x="51" y="338" flags="0x4"/>
    </TTGlyph>
    <TTGlyph name="Rcaron" xMin="129" yMin="0" xMax="1020" yMax="1907">
      <component glyphName="R" x="0" y="0" flags="0x204"/>
      <component glyphName="caron" x="-40" y="338" flags="0x4"/>
    </TTGlyph>
    <TTGlyph name="Rcommaaccent" xMin="129" yMin="-453" xMax="1020" yMax="1462">
      <component glyphName="R" x="0" y="0" flags="0x204"/>
      <component glyphName="commaaccent" x="47" y="0" flags="0x4"/>
    </TTGlyph>
    <TTGlyph name="Rho" xMin="129" yMin="0" xMax="926" yMax="1462">
      <component glyphName="P" x="0" y="0" flags="0x204"/>
    </TTGlyph>
    <TTGlyph name="S" xMin="68" yMin="-20" xMax="795" yMax="1483">
      <contour>
        <pt x="795" y="403" on="1"/>
        <pt x="795" y="198" on="0"/>
        <pt x="588" y="-20" on="0"/>
        <pt x="393" y="-20" on="1"/>
        <pt x="202" y="-20" on="0"/>
        <pt x="68" y="55" on="1"/>
        <pt x="68" y="324" on="1"/>
        <pt x="232" y="217" on="0"/>
        <pt x="369" y="217" on="1"/>
        <pt x="447" y="217" on="0"/>
        <pt x="526" y="303" on="0"/>
        <pt x="526" y="377" on="1"/>
        <pt x="526" y="450" on="0"/>
        <pt x="432" y="571" on="0"/>
        <pt x="324" y="645" on="1"/>
        <pt x="230" y="710" on="0"/>
        <pt x="133" y="829" on="0"/>
        <pt x="80" y="977" on="0"/>
        <pt x="80" y="1075" on="1"/>
        <pt x="80" y="1263" on="0"/>
        <pt x="289" y="1483" on="0"/>
        <pt x="465" y="1483" on="1"/>
        <pt x="633" y="1483" on="0"/>
        <pt x="788" y="1389" on="1"/>
        <pt x="698" y="1171" on="1"/>
        <pt x="650" y="1199" on="0"/>
        <pt x="545" y="1243" on="0"/>
        <pt x="485" y="1243" on="1"/>
        <pt x="419" y="1243" on="0"/>
        <pt x="348" y="1156" on="0"/>
        <pt x="348" y="1081" on="1"/>
        <pt x="348" y="1007" on="0"/>
        <pt x="433" y="897" on="0"/>
        <pt x="539" y="827" on="1"/>
        <pt x="682" y="731" on="0"/>
        <pt x="795" y="531" on="0"/>
      </contour>
    </TTGlyph>
    <TTGlyph name="Sacute" xMin="68" yMin="-20" xMax="800" yMax="1907">
      <component glyphName="S" x="0" y="0" flags="0x204"/>
      <component glyphName="acute" x="-1" y="338" flags="0x4"/>
    </TTGlyph>
    <TTGlyph name="Scaron" xMin="68" yMin="-20" xMax="795" yMax="1907">
      <component glyphName="S" x="0" y="0" flags="0x204"/>
      <component glyphName="caron" x="-130" y="338" flags="0x4"/>
    </TTGlyph>
    <TTGlyph name="Scedilla" xMin="68" yMin="-492" xMax="795" yMax="1483">
      <component glyphName="S" x="0" y="0" flags="0x204"/>
      <component glyphName="cedilla" x="215" y="0" flags="0x4"/>
    </TTGlyph>
    <TTGlyph name="Scircumflex" xMin="68" yMin="-20" xMax="795" yMax="1907">
      <component glyphName="S" x="0" y="0" flags="0x204"/>
      <component glyphName="circumflex" x="-130" y="338" flags="0x4"/>
    </TTGlyph>
    <TTGlyph name="Scommaaccent" xMin="68" yMin="-453" xMax="795" yMax="1483">
      <component glyphName="S" x="0" y="0" flags="0x204"/>
      <component glyphName="commaaccent" x="-91" y="0" flags="0x4"/>
    </TTGlyph>
    <TTGlyph name="Sigma" xMin="72" yMin="0" xMax="821" yMax="1462">
      <contour>
        <pt x="72" y="0" on="1"/>
        <pt x="72" y="225" on="1"/>
        <pt x="391" y="766" on="1"/>
        <pt x="80" y="1243" on="1"/>
        <pt x="80" y="1462" on="1"/>
        <pt x="778" y="1462" on="1"/>
        <pt x="778" y="1227" on="1"/>
        <pt x="487" y="1227" on="1"/>
        <pt x="468" y="1227" on="0"/>
        <pt x="360" y="1235" on="1"/>
        <pt x="666" y="768" on="1"/>
        <pt x="342" y="227" on="1"/>
        <pt x="500" y="238" on="1"/>
        <pt x="821" y="238" on="1"/>
        <pt x="821" y="0" on="1"/>
      </contour>
    </TTGlyph>
    <TTGlyph name="T" xMin="27" yMin="0" xMax="858" yMax="1462">
      <contour>
        <pt x="578" y="0" on="1"/>
        <pt x="307" y="0" on="1"/>
        <pt x="307" y="1223" on="1"/>
        <pt x="27" y="1223" on="1"/>
        <pt x="27" y="1462" on="1"/>
        <pt x="858" y="1462" on="1"/>
        <pt x="858" y="1223" on="1"/>
        <pt x="578" y="1223" on="1"/>
      </contour>
    </TTGlyph>
    <TTGlyph name="Tau" xMin="27" yMin="0" xMax="858" yMax="1462">
      <component glyphName="T" x="0" y="0" flags="0x204"/>
    </TTGlyph>
    <TTGlyph name="Tbar" xMin="27" yMin="0" xMax="858" yMax="1462">
      <contour>
        <pt x="578" y="0" on="1"/>
        <pt x="307" y="0" on="1"/>
        <pt x="307" y="610" on="1"/>
        <pt x="119" y="610" on="1"/>
        <pt x="119" y="844" on="1"/>
        <pt x="307" y="844" on="1"/>
        <pt x="307" y="1223" on="1"/>
        <pt x="27" y="1223" on="1"/>
        <pt x="27" y="1462" on="1"/>
        <pt x="858" y="1462" on="1"/>
        <pt x="858" y="1223" on="1"/>
        <pt x="578" y="1223" on="1"/>
        <pt x="578" y="844" on="1"/>
        <pt x="764" y="844" on="1"/>
        <pt x="764" y="610" on="1"/>
        <pt x="578" y="610" on="1"/>
      </contour>
    </TTGlyph>
    <TTGlyph name="Tcaron" xMin="27" yMin="0" xMax="858" yMax="1907">
      <component glyphName="T" x="0" y="0" flags="0x204"/>
      <component glyphName="caron" x="-124" y="338" flags="0x4"/>
    </TTGlyph>
    <TTGlyph name="Tcedilla" xMin="27" yMin="-492" xMax="858" yMax="1462">
      <component glyphName="T" x="0" y="0" flags="0x204"/>
      <component glyphName="cedilla" x="248" y="0" flags="0x4"/>
    </TTGlyph>
    <TTGlyph name="Tcommaaccent" xMin="27" yMin="-453" xMax="858" yMax="1462">
      <component glyphName="T" x="0" y="0" flags="0x204"/>
      <component glyphName="commaaccent" x="-71" y="0" flags="0x4"/>
    </TTGlyph>
    <TTGlyph name="Theta" xMin="84" yMin="-20" xMax="1135" yMax="1485">
      <contour>
        <pt x="453" y="862" on="1"/>
        <pt x="766" y="862" on="1"/>
        <pt x="766" y="625" on="1"/>
        <pt x="453" y="625" on="1"/>
      </contour>
      <contour>
        <pt x="1135" y="733" on="1"/>
        <pt x="1135" y="370" on="0"/>
        <pt x="863" y="-20" on="0"/>
        <pt x="610" y="-20" on="1"/>
        <pt x="356" y="-20" on="0"/>
        <pt x="84" y="369" on="0"/>
        <pt x="84" y="735" on="1"/>
        <pt x="84" y="1098" on="0"/>
        <pt x="356" y="1485" on="0"/>
        <pt x="612" y="1485" on="1"/>
        <pt x="865" y="1485" on="0"/>
        <pt x="1135" y="1096" on="0"/>
      </contour>
      <contour>
        <pt x="362" y="733" on="1"/>
        <pt x="362" y="483" on="0"/>
        <pt x="488" y="221" on="0"/>
        <pt x="610" y="221" on="1"/>
        <pt x="856" y="221" on="0"/>
        <pt x="856" y="733" on="1"/>
        <pt x="856" y="1245" on="0"/>
        <pt x="612" y="1245" on="1"/>
        <pt x="488" y="1245" on="0"/>
        <pt x="362" y="984" on="0"/>
      </contour>
    </TTGlyph>
    <TTGlyph name="Thorn" xMin="129" yMin="0" xMax="926" yMax="1462">
      <contour>
        <pt x="926" y="778" on="1"/>
        <pt x="926" y="545" on="0"/>
        <pt x="692" y="295" on="0"/>
        <pt x="469" y="295" on="1"/>
        <pt x="401" y="295" on="1"/>
        <pt x="401" y="0" on="1"/>
        <pt x="129" y="0" on="1"/>
        <pt x="129" y="1462" on="1"/>
        <pt x="401" y="1462" on="1"/>
        <pt x="401" y="1229" on="1"/>
        <pt x="498" y="1229" on="1"/>
        <pt x="926" y="1229" on="0"/>
      </contour>
      <contour>
        <pt x="401" y="530" on="1"/>
        <pt x="453" y="530" on="1"/>
        <pt x="553" y="530" on="0"/>
        <pt x="651" y="642" on="0"/>
        <pt x="651" y="768" on="1"/>
        <pt x="651" y="995" on="0"/>
        <pt x="469" y="995" on="1"/>
        <pt x="401" y="995" on="1"/>
      </contour>
    </TTGlyph>
    <TTGlyph name="U" xMin="123" yMin="-20" xMax="1028" yMax="1462">
      <contour>
        <pt x="1028" y="1462" on="1"/>
        <pt x="1028" y="516" on="1"/>
        <pt x="1028" y="255" on="0"/>
        <pt x="792" y="-20" on="0"/>
        <pt x="569" y="-20" on="1"/>
        <pt x="351" y="-20" on="0"/>
        <pt x="123" y="253" on="0"/>
        <pt x="123" y="520" on="1"/>
        <pt x="123" y="1462" on="1"/>
        <pt x="393" y="1462" on="1"/>
        <pt x="393" y="500" on="1"/>
        <pt x="393" y="221" on="0"/>
        <pt x="578" y="221" on="1"/>
        <pt x="664" y="221" on="0"/>
        <pt x="758" y="363" on="0"/>
        <pt x="758" y="494" on="1"/>
        <pt x="758" y="1462" on="1"/>
      </contour>
    </TTGlyph>
    <TTGlyph name="Uacute" xMin="123" yMin="-20" xMax="1028" yMax="1907">
      <component glyphName="U" x="0" y="0" flags="0x204"/>
      <component glyphName="acute" x="133" y="338" flags="0x4"/>
    </TTGlyph>
    <TTGlyph name="Ubreve" xMin="123" yMin="-20" xMax="1028" yMax="1905">
      <component glyphName="U" x="0" y="0" flags="0x204"/>
      <component glyphName="breve" x="12" y="338" flags="0x4"/>
    </TTGlyph>
    <TTGlyph name="Ucircumflex" xMin="123" yMin="-20" xMax="1028" yMax="1907">
      <component glyphName="U" x="0" y="0" flags="0x204"/>
      <component glyphName="circumflex" x="8" y="338" flags="0x4"/>
    </TTGlyph>
    <TTGlyph name="Udieresis" xMin="123" yMin="-20" xMax="1028" yMax="1870">
      <component glyphName="U" x="0" y="0" flags="0x204"/>
      <component glyphName="dieresis" x="10" y="338" flags="0x4"/>
    </TTGlyph>
    <TTGlyph name="Ugrave" xMin="123" yMin="-20" xMax="1028" yMax="1907">
      <component glyphName="U" x="0" y="0" flags="0x204"/>
      <component glyphName="grave" x="-101" y="338" flags="0x4"/>
    </TTGlyph>
    <TTGlyph name="Uhorn" xMin="123" yMin="-20" xMax="1475" yMax="1556">
      <contour>
        <pt x="1028" y="1462" on="1"/>
        <pt x="1028" y="1270" on="1"/>
        <pt x="1178" y="1310" on="0"/>
        <pt x="1178" y="1556" on="1"/>
        <pt x="1460" y="1556" on="1"/>
        <pt x="1475" y="1534" on="1"/>
        <pt x="1443" y="1381" on="0"/>
        <pt x="1337" y="1217" on="0"/>
        <pt x="1162" y="1117" on="0"/>
        <pt x="1028" y="1098" on="1"/>
        <pt x="1028" y="516" on="1"/>
        <pt x="1028" y="255" on="0"/>
        <pt x="792" y="-20" on="0"/>
        <pt x="569" y="-20" on="1"/>
        <pt x="351" y="-20" on="0"/>
        <pt x="123" y="253" on="0"/>
        <pt x="123" y="520" on="1"/>
        <pt x="123" y="1462" on="1"/>
        <pt x="393" y="1462" on="1"/>
        <pt x="393" y="500" on="1"/>
        <pt x="393" y="221" on="0"/>
        <pt x="578" y="221" on="1"/>
        <pt x="668" y="221" on="0"/>
        <pt x="758" y="366" on="0"/>
        <pt x="758" y="496" on="1"/>
        <pt x="758" y="1462" on="1"/>
      </contour>
    </TTGlyph>
    <TTGlyph name="Uhungarumlaut" xMin="123" yMin="-20" xMax="1101" yMax="1907">
      <component glyphName="U" x="0" y="0" flags="0x204"/>
      <component glyphName="hungarumlaut" x="104" y="338" flags="0x4"/>
    </TTGlyph>
    <TTGlyph name="Umacron" xMin="123" yMin="-20" xMax="1028" yMax="1813">
      <component glyphName="U" x="0" y="0" flags="0x204"/>
      <component glyphName="macron" x="33" y="338" flags="0x4"/>
    </TTGlyph>
    <TTGlyph name="Uogonek" xMin="123" yMin="-483" xMax="1028" yMax="1462">
      <component glyphName="U" x="0" y="0" flags="0x204"/>
      <component glyphName="ogonek" x="367" y="0" flags="0x4"/>
    </TTGlyph>
    <TTGlyph name="Upsilon" xMin="0" yMin="0" xMax="961" yMax="1462">
      <component glyphName="Y" x="0" y="0" flags="0x204"/>
    </TTGlyph>
    <TTGlyph name="Upsilondieresis" xMin="0" yMin="0" xMax="961" yMax="1870">
      <component glyphName="Y" x="0" y="0" flags="0x204"/>
      <component glyphName="dieresis" x="-83" y="338" flags="0x4"/>
    </TTGlyph>
    <TTGlyph name="Upsilontonos" xMin="-56" yMin="0" xMax="1295" yMax="1462">
      <component glyphName="Y" x="334" y="0" flags="0x4"/>
      <component glyphName="tonos" x="-486" y="-105" flags="0x4"/>
    </TTGlyph>
    <TTGlyph name="Uring" xMin="123" yMin="-20" xMax="1028" yMax="2044">
      <component glyphName="U" x="0" y="0" flags="0x204"/>
      <component glyphName="ring" x="16" y="338" flags="0x4"/>
    </TTGlyph>
    <TTGlyph name="Utilde" xMin="123" yMin="-20" xMax="1028" yMax="1880">
      <component glyphName="U" x="0" y="0" flags="0x204"/>
      <component glyphName="tilde" x="16" y="338" flags="0x4"/>
    </TTGlyph>
    <TTGlyph name="V" xMin="0" yMin="0" xMax="1032" yMax="1462">
      <contour>
        <pt x="758" y="1462" on="1"/>
        <pt x="1032" y="1462" on="1"/>
        <pt x="688" y="0" on="1"/>
        <pt x="342" y="0" on="1"/>
        <pt x="0" y="1462" on="1"/>
        <pt x="274" y="1462" on="1"/>
        <pt x="465" y="569" on="1"/>
        <pt x="491" y="455" on="0"/>
        <pt x="516" y="242" on="1"/>
        <pt x="537" y="423" on="0"/>
        <pt x="569" y="569" on="1"/>
      </contour>
    </TTGlyph>
    <TTGlyph name="W" xMin="18" yMin="0" xMax="1604" yMax="1462">
      <contour>
        <pt x="1341" y="0" on="1"/>
        <pt x="1001" y="0" on="1"/>
        <pt x="858" y="766" on="1"/>
        <pt x="825" y="923" on="0"/>
        <pt x="811" y="1137" on="1"/>
        <pt x="803" y="1063" on="1"/>
        <pt x="762" y="762" on="1"/>
        <pt x="623" y="0" on="1"/>
        <pt x="283" y="0" on="1"/>
        <pt x="18" y="1462" on="1"/>
        <pt x="285" y="1462" on="1"/>
        <pt x="416" y="637" on="1"/>
        <pt x="435" y="513" on="0"/>
        <pt x="467" y="248" on="1"/>
        <pt x="492" y="516" on="0"/>
        <pt x="514" y="631" on="1"/>
        <pt x="670" y="1462" on="1"/>
        <pt x="952" y="1462" on="1"/>
        <pt x="1108" y="631" on="1"/>
        <pt x="1139" y="446" on="0"/>
        <pt x="1157" y="246" on="1"/>
        <pt x="1192" y="542" on="0"/>
        <pt x="1208" y="637" on="1"/>
        <pt x="1335" y="1462" on="1"/>
        <pt x="1604" y="1462" on="1"/>
      </contour>
    </TTGlyph>
    <TTGlyph name="Wacute" xMin="18" yMin="0" xMax="1604" yMax="1907">
      <component glyphName="W" x="0" y="0" flags="0x204"/>
      <component glyphName="acute" x="362" y="338" flags="0x4"/>
    </TTGlyph>
    <TTGlyph name="Wcircumflex" xMin="18" yMin="0" xMax="1604" yMax="1907">
      <component glyphName="W" x="0" y="0" flags="0x204"/>
      <component glyphName="circumflex" x="246" y="338" flags="0x4"/>
    </TTGlyph>
    <TTGlyph name="Wdieresis" xMin="18" yMin="0" xMax="1604" yMax="1870">
      <component glyphName="W" x="0" y="0" flags="0x204"/>
      <component glyphName="dieresis" x="246" y="338" flags="0x4"/>
    </TTGlyph>
    <TTGlyph name="Wgrave" xMin="18" yMin="0" xMax="1604" yMax="1907">
      <component glyphName="W" x="0" y="0" flags="0x204"/>
      <component glyphName="grave" x="147" y="338" flags="0x4"/>
    </TTGlyph>
    <TTGlyph name="X" xMin="0" yMin="0" xMax="969" yMax="1462">
      <contour>
        <pt x="969" y="0" on="1"/>
        <pt x="686" y="0" on="1"/>
        <pt x="477" y="524" on="1"/>
        <pt x="283" y="0" on="1"/>
        <pt x="0" y="0" on="1"/>
        <pt x="334" y="760" on="1"/>
        <pt x="25" y="1462" on="1"/>
        <pt x="299" y="1462" on="1"/>
        <pt x="492" y="981" on="1"/>
        <pt x="659" y="1462" on="1"/>
        <pt x="944" y="1462" on="1"/>
        <pt x="635" y="748" on="1"/>
      </contour>
    </TTGlyph>
    <TTGlyph name="Xi" xMin="57" yMin="0" xMax="780" yMax="1462">
      <contour>
        <pt x="150" y="879" on="1"/>
        <pt x="688" y="879" on="1"/>
        <pt x="688" y="643" on="1"/>
        <pt x="150" y="643" on="1"/>
      </contour>
      <contour>
        <pt x="88" y="1462" on="1"/>
        <pt x="750" y="1462" on="1"/>
        <pt x="750" y="1227" on="1"/>
        <pt x="88" y="1227" on="1"/>
      </contour>
      <contour>
        <pt x="780" y="238" on="1"/>
        <pt x="780" y="0" on="1"/>
        <pt x="57" y="0" on="1"/>
        <pt x="57" y="238" on="1"/>
      </contour>
    </TTGlyph>
    <TTGlyph name="Y" xMin="0" yMin="0" xMax="961" yMax="1462">
      <contour>
        <pt x="481" y="885" on="1"/>
        <pt x="676" y="1462" on="1"/>
        <pt x="961" y="1462" on="1"/>
        <pt x="614" y="586" on="1"/>
        <pt x="614" y="0" on="1"/>
        <pt x="346" y="0" on="1"/>
        <pt x="346" y="575" on="1"/>
        <pt x="0" y="1462" on="1"/>
        <pt x="287" y="1462" on="1"/>
      </contour>
    </TTGlyph>
    <TTGlyph name="Yacute" xMin="0" yMin="0" xMax="961" yMax="1907">
      <component glyphName="Y" x="0" y="0" flags="0x204"/>
      <component glyphName="acute" x="35" y="338" flags="0x4"/>
    </TTGlyph>
    <TTGlyph name="Ycircumflex" xMin="0" yMin="0" xMax="961" yMax="1907">
      <component glyphName="Y" x="0" y="0" flags="0x204"/>
      <component glyphName="circumflex" x="-85" y="338" flags="0x4"/>
    </TTGlyph>
    <TTGlyph name="Ydieresis" xMin="0" yMin="0" xMax="961" yMax="1870">
      <component glyphName="Y" x="0" y="0" flags="0x204"/>
      <component glyphName="dieresis" x="-83" y="338" flags="0x4"/>
    </TTGlyph>
    <TTGlyph name="Ygrave" xMin="0" yMin="0" xMax="961" yMax="1907">
      <component glyphName="Y" x="0" y="0" flags="0x204"/>
      <component glyphName="grave" x="-175" y="338" flags="0x4"/>
    </TTGlyph>
    <TTGlyph name="Z" xMin="43" yMin="0" xMax="834" yMax="1462">
      <contour>
        <pt x="834" y="0" on="1"/>
        <pt x="43" y="0" on="1"/>
        <pt x="43" y="190" on="1"/>
        <pt x="510" y="1225" on="1"/>
        <pt x="57" y="1225" on="1"/>
        <pt x="57" y="1462" on="1"/>
        <pt x="819" y="1462" on="1"/>
        <pt x="819" y="1272" on="1"/>
        <pt x="352" y="238" on="1"/>
        <pt x="834" y="238" on="1"/>
      </contour>
    </TTGlyph>
    <TTGlyph name="Zacute" xMin="43" yMin="0" xMax="834" yMax="1907">
      <component glyphName="Z" x="0" y="0" flags="0x204"/>
      <component glyphName="acute" x="-15" y="338" flags="0x4"/>
    </TTGlyph>
    <TTGlyph name="Zcaron" xMin="43" yMin="0" xMax="834" yMax="1907">
      <component glyphName="Z" x="0" y="0" flags="0x204"/>
      <component glyphName="caron" x="-130" y="338" flags="0x4"/>
    </TTGlyph>
    <TTGlyph name="Zdotaccent" xMin="43" yMin="0" xMax="834" yMax="1886">
      <component glyphName="Z" x="0" y="0" flags="0x204"/>
      <component glyphName="dotaccent" x="152" y="338" flags="0x4"/>
    </TTGlyph>
    <TTGlyph name="Zeta" xMin="43" yMin="0" xMax="834" yMax="1462">
      <component glyphName="Z" x="0" y="0" flags="0x204"/>
    </TTGlyph>
    <TTGlyph name="a" xMin="55" yMin="-20" xMax="854" yMax="1137">
      <contour>
        <pt x="659" y="0" on="1"/>
        <pt x="606" y="152" on="1"/>
        <pt x="600" y="152" on="1"/>
        <pt x="541" y="54" on="0"/>
        <pt x="415" y="-20" on="0"/>
        <pt x="319" y="-20" on="1"/>
        <pt x="196" y="-20" on="0"/>
        <pt x="55" y="164" on="0"/>
        <pt x="55" y="328" on="1"/>
        <pt x="55" y="504" on="0"/>
        <pt x="248" y="675" on="0"/>
        <pt x="440" y="684" on="1"/>
        <pt x="588" y="690" on="1"/>
        <pt x="588" y="770" on="1"/>
        <pt x="588" y="926" on="0"/>
        <pt x="453" y="926" on="1"/>
        <pt x="353" y="926" on="0"/>
        <pt x="223" y="848" on="1"/>
        <pt x="131" y="1032" on="1"/>
        <pt x="297" y="1137" on="0"/>
        <pt x="492" y="1137" on="1"/>
        <pt x="669" y="1137" on="0"/>
        <pt x="854" y="934" on="0"/>
        <pt x="854" y="748" on="1"/>
        <pt x="854" y="0" on="1"/>
      </contour>
      <contour>
        <pt x="428" y="188" on="1"/>
        <pt x="501" y="188" on="0"/>
        <pt x="588" y="319" on="0"/>
        <pt x="588" y="428" on="1"/>
        <pt x="588" y="522" on="1"/>
        <pt x="506" y="518" on="1"/>
        <pt x="415" y="513" on="0"/>
        <pt x="330" y="419" on="0"/>
        <pt x="330" y="326" on="1"/>
        <pt x="330" y="188" on="0"/>
      </contour>
    </TTGlyph>
    <TTGlyph name="aacute" xMin="55" yMin="-20" xMax="854" yMax="1569">
      <component glyphName="a" x="0" y="0" flags="0x204"/>
      <component glyphName="acute" x="51" y="0" flags="0x4"/>
    </TTGlyph>
    <TTGlyph name="abreve" xMin="55" yMin="-20" xMax="854" yMax="1567">
      <component glyphName="a" x="0" y="0" flags="0x204"/>
      <component glyphName="breve" x="-67" y="0" flags="0x4"/>
    </TTGlyph>
    <TTGlyph name="acircumflex" xMin="55" yMin="-20" xMax="854" yMax="1568">
      <component glyphName="a" x="0" y="0" flags="0x204"/>
      <component glyphName="circumflex" x="-71" y="-1" flags="0x4"/>
    </TTGlyph>
    <TTGlyph name="acute" xMin="311" yMin="1241" xMax="801" yMax="1569">
      <contour>
        <pt x="311" y="1241" on="1"/>
        <pt x="311" y="1268" on="1"/>
        <pt x="352" y="1321" on="0"/>
        <pt x="460" y="1517" on="0"/>
        <pt x="483" y="1569" on="1"/>
        <pt x="801" y="1569" on="1"/>
        <pt x="801" y="1548" on="1"/>
        <pt x="777" y="1505" on="0"/>
        <pt x="587" y="1314" on="0"/>
        <pt x="498" y="1241" on="1"/>
      </contour>
    </TTGlyph>
    <TTGlyph name="adieresis" xMin="55" yMin="-20" xMax="854" yMax="1532">
      <component glyphName="a" x="0" y="0" flags="0x204"/>
      <component glyphName="dieresis" x="-69" y="0" flags="0x4"/>
    </TTGlyph>
    <TTGlyph name="ae" xMin="55" yMin="-20" xMax="1382" yMax="1137">
      <contour>
        <pt x="1028" y="-20" on="1"/>
        <pt x="797" y="-20" on="0"/>
        <pt x="684" y="160" on="1"/>
        <pt x="627" y="67" on="0"/>
        <pt x="476" y="-20" on="0"/>
        <pt x="371" y="-20" on="1"/>
        <pt x="217" y="-20" on="0"/>
        <pt x="55" y="157" on="0"/>
        <pt x="55" y="328" on="1"/>
        <pt x="55" y="504" on="0"/>
        <pt x="248" y="675" on="0"/>
        <pt x="440" y="684" on="1"/>
        <pt x="588" y="690" on="1"/>
        <pt x="588" y="768" on="1"/>
        <pt x="588" y="926" on="0"/>
        <pt x="453" y="926" on="1"/>
        <pt x="353" y="926" on="0"/>
        <pt x="223" y="848" on="1"/>
        <pt x="131" y="1032" on="1"/>
        <pt x="297" y="1137" on="0"/>
        <pt x="492" y="1137" on="1"/>
        <pt x="657" y="1137" on="0"/>
        <pt x="750" y="1044" on="1"/>
        <pt x="849" y="1135" on="0"/>
        <pt x="991" y="1135" on="1"/>
        <pt x="1175" y="1135" on="0"/>
        <pt x="1382" y="867" on="0"/>
        <pt x="1382" y="631" on="1"/>
        <pt x="1382" y="489" on="1"/>
        <pt x="848" y="489" on="1"/>
        <pt x="851" y="340" on="0"/>
        <pt x="967" y="195" on="0"/>
        <pt x="1069" y="195" on="1"/>
        <pt x="1204" y="195" on="0"/>
        <pt x="1335" y="276" on="1"/>
        <pt x="1335" y="57" on="1"/>
        <pt x="1208" y="-20" on="0"/>
      </contour>
      <contour>
        <pt x="588" y="522" on="1"/>
        <pt x="506" y="518" on="1"/>
        <pt x="415" y="513" on="0"/>
        <pt x="330" y="419" on="0"/>
        <pt x="330" y="326" on="1"/>
        <pt x="330" y="188" on="0"/>
        <pt x="428" y="188" on="1"/>
        <pt x="501" y="188" on="0"/>
        <pt x="588" y="319" on="0"/>
        <pt x="588" y="428" on="1"/>
      </contour>
      <contour>
        <pt x="991" y="930" on="1"/>
        <pt x="866" y="930" on="0"/>
        <pt x="854" y="682" on="1"/>
        <pt x="1124" y="682" on="1"/>
        <pt x="1122" y="804" on="0"/>
        <pt x="1052" y="930" on="0"/>
      </contour>
    </TTGlyph>
    <TTGlyph name="aeacute" xMin="55" yMin="-20" xMax="1382" yMax="1569">
      <component glyphName="ae" x="0" y="0" flags="0x204"/>
      <component glyphName="acute" x="291" y="0" flags="0x4"/>
    </TTGlyph>
    <TTGlyph name="afii00208" xMin="70" yMin="442" xMax="1507" yMax="659">
      <contour>
        <pt x="70" y="442" on="1"/>
        <pt x="70" y="659" on="1"/>
        <pt x="1507" y="659" on="1"/>
        <pt x="1507" y="442" on="1"/>
      </contour>
    </TTGlyph>
    <TTGlyph name="afii08941" xMin="76" yMin="0" xMax="903" yMax="1483">
      <contour>
        <pt x="598" y="1483" on="1"/>
        <pt x="755" y="1483" on="0"/>
        <pt x="881" y="1411" on="1"/>
        <pt x="797" y="1200" on="1"/>
        <pt x="705" y="1253" on="0"/>
        <pt x="614" y="1253" on="1"/>
        <pt x="500" y="1253" on="0"/>
        <pt x="500" y="1067" on="1"/>
        <pt x="500" y="938" on="1"/>
        <pt x="743" y="938" on="1"/>
        <pt x="743" y="770" on="1"/>
        <pt x="500" y="770" on="1"/>
        <pt x="500" y="647" on="1"/>
        <pt x="743" y="647" on="1"/>
        <pt x="743" y="479" on="1"/>
        <pt x="498" y="479" on="1"/>
        <pt x="498" y="471" on="1"/>
        <pt x="498" y="419" on="0"/>
        <pt x="469" y="343" on="0"/>
        <pt x="426" y="286" on="0"/>
        <pt x="369" y="242" on="1"/>
        <pt x="903" y="242" on="1"/>
        <pt x="903" y="0" on="1"/>
        <pt x="76" y="0" on="1"/>
        <pt x="76" y="229" on="1"/>
        <pt x="168" y="276" on="0"/>
        <pt x="233" y="388" on="0"/>
        <pt x="233" y="471" on="1"/>
        <pt x="233" y="479" on="1"/>
        <pt x="78" y="479" on="1"/>
        <pt x="78" y="647" on="1"/>
        <pt x="233" y="647" on="1"/>
        <pt x="233" y="770" on="1"/>
        <pt x="78" y="770" on="1"/>
        <pt x="78" y="938" on="1"/>
        <pt x="233" y="938" on="1"/>
        <pt x="233" y="1073" on="1"/>
        <pt x="233" y="1273" on="0"/>
        <pt x="422" y="1483" on="0"/>
      </contour>
    </TTGlyph>
    <TTGlyph name="afii10017" xMin="0" yMin="0" xMax="1094" yMax="1468">
      <component glyphName="A" x="0" y="0" flags="0x204"/>
    </TTGlyph>
    <TTGlyph name="afii10018" xMin="129" yMin="0" xMax="936" yMax="1462">
      <contour>
        <pt x="936" y="465" on="1"/>
        <pt x="936" y="243" on="0"/>
        <pt x="709" y="0" on="0"/>
        <pt x="498" y="0" on="1"/>
        <pt x="129" y="0" on="1"/>
        <pt x="129" y="1462" on="1"/>
        <pt x="823" y="1462" on="1"/>
        <pt x="823" y="1225" on="1"/>
        <pt x="401" y="1225" on="1"/>
        <pt x="401" y="891" on="1"/>
        <pt x="487" y="891" on="1"/>
        <pt x="709" y="891" on="0"/>
        <pt x="936" y="677" on="0"/>
      </contour>
      <contour>
        <pt x="401" y="236" on="1"/>
        <pt x="485" y="236" on="1"/>
        <pt x="662" y="236" on="0"/>
        <pt x="662" y="455" on="1"/>
        <pt x="662" y="560" on="0"/>
        <pt x="573" y="653" on="0"/>
        <pt x="467" y="653" on="1"/>
        <pt x="401" y="653" on="1"/>
      </contour>
    </TTGlyph>
    <TTGlyph name="afii10019" xMin="129" yMin="0" xMax="967" yMax="1462">
      <component glyphName="B" x="0" y="0" flags="0x204"/>
    </TTGlyph>
    <TTGlyph name="afii10020" xMin="129" yMin="0" xMax="782" yMax="1462">
      <component glyphName="Gamma" x="0" y="0" flags="0x204"/>
    </TTGlyph>
    <TTGlyph name="afii10021" xMin="10" yMin="-418" xMax="1194" yMax="1462">
      <contour>
        <pt x="1194" y="-418" on="1"/>
        <pt x="930" y="-418" on="1"/>
        <pt x="930" y="0" on="1"/>
        <pt x="274" y="0" on="1"/>
        <pt x="274" y="-418" on="1"/>
        <pt x="10" y="-418" on="1"/>
        <pt x="10" y="240" on="1"/>
        <pt x="96" y="240" on="1"/>
        <pt x="302" y="787" on="0"/>
        <pt x="360" y="1462" on="1"/>
        <pt x="1028" y="1462" on="1"/>
        <pt x="1028" y="240" on="1"/>
        <pt x="1194" y="240" on="1"/>
      </contour>
      <contour>
        <pt x="756" y="240" on="1"/>
        <pt x="756" y="1223" on="1"/>
        <pt x="590" y="1223" on="1"/>
        <pt x="565" y="980" on="0"/>
        <pt x="454" y="457" on="0"/>
        <pt x="379" y="240" on="1"/>
      </contour>
    </TTGlyph>
    <TTGlyph name="afii10022" xMin="129" yMin="0" xMax="788" yMax="1462">
      <component glyphName="E" x="0" y="0" flags="0x204"/>
    </TTGlyph>
    <TTGlyph name="afii10023" xMin="129" yMin="0" xMax="794" yMax="1870">
      <component glyphName="E" x="0" y="0" flags="0x204"/>
      <component glyphName="dieresis" x="-103" y="338" flags="0x4"/>
    </TTGlyph>
    <TTGlyph name="afii10024" xMin="0" yMin="0" xMax="1493" yMax="1462">
      <contour>
        <pt x="365" y="758" on="1"/>
        <pt x="6" y="1462" on="1"/>
        <pt x="285" y="1462" on="1"/>
        <pt x="618" y="754" on="1"/>
        <pt x="618" y="1462" on="1"/>
        <pt x="872" y="1462" on="1"/>
        <pt x="872" y="754" on="1"/>
        <pt x="1206" y="1462" on="1"/>
        <pt x="1487" y="1462" on="1"/>
        <pt x="1128" y="760" on="1"/>
        <pt x="1493" y="0" on="1"/>
        <pt x="1198" y="0" on="1"/>
        <pt x="872" y="741" on="1"/>
        <pt x="872" y="0" on="1"/>
        <pt x="618" y="0" on="1"/>
        <pt x="618" y="741" on="1"/>
        <pt x="295" y="0" on="1"/>
        <pt x="0" y="0" on="1"/>
      </contour>
    </TTGlyph>
    <TTGlyph name="afii10025" xMin="61" yMin="-20" xMax="920" yMax="1483">
      <contour>
        <pt x="887" y="1116" on="1"/>
        <pt x="887" y="980" on="0"/>
        <pt x="726" y="801" on="0"/>
        <pt x="575" y="770" on="1"/>
        <pt x="575" y="762" on="1"/>
        <pt x="739" y="742" on="0"/>
        <pt x="920" y="563" on="0"/>
        <pt x="920" y="414" on="1"/>
        <pt x="920" y="212" on="0"/>
        <pt x="661" y="-20" on="0"/>
        <pt x="438" y="-20" on="1"/>
        <pt x="202" y="-20" on="0"/>
        <pt x="70" y="49" on="1"/>
        <pt x="70" y="287" on="1"/>
        <pt x="218" y="205" on="0"/>
        <pt x="385" y="205" on="1"/>
        <pt x="647" y="205" on="0"/>
        <pt x="647" y="434" on="1"/>
        <pt x="647" y="538" on="0"/>
        <pt x="496" y="647" on="0"/>
        <pt x="348" y="647" on="1"/>
        <pt x="250" y="647" on="1"/>
        <pt x="250" y="870" on="1"/>
        <pt x="338" y="870" on="1"/>
        <pt x="483" y="870" on="0"/>
        <pt x="621" y="971" on="0"/>
        <pt x="621" y="1077" on="1"/>
        <pt x="621" y="1162" on="0"/>
        <pt x="529" y="1253" on="0"/>
        <pt x="442" y="1253" on="1"/>
        <pt x="309" y="1253" on="0"/>
        <pt x="190" y="1145" on="1"/>
        <pt x="61" y="1327" on="1"/>
        <pt x="160" y="1412" on="0"/>
        <pt x="364" y="1483" on="0"/>
        <pt x="489" y="1483" on="1"/>
        <pt x="670" y="1483" on="0"/>
        <pt x="887" y="1282" on="0"/>
      </contour>
    </TTGlyph>
    <TTGlyph name="afii10026" xMin="129" yMin="0" xMax="1153" yMax="1462">
      <contour>
        <pt x="129" y="1462" on="1"/>
        <pt x="381" y="1462" on="1"/>
        <pt x="381" y="659" on="1"/>
        <pt x="381" y="534" on="0"/>
        <pt x="362" y="412" on="1"/>
        <pt x="373" y="412" on="1"/>
        <pt x="819" y="1462" on="1"/>
        <pt x="1153" y="1462" on="1"/>
        <pt x="1153" y="0" on="1"/>
        <pt x="903" y="0" on="1"/>
        <pt x="903" y="801" on="1"/>
        <pt x="903" y="949" on="0"/>
        <pt x="926" y="1061" on="1"/>
        <pt x="913" y="1061" on="1"/>
        <pt x="465" y="0" on="1"/>
        <pt x="129" y="0" on="1"/>
      </contour>
    </TTGlyph>
    <TTGlyph name="afii10027" xMin="129" yMin="0" xMax="1153" yMax="1903">
      <component glyphName="afii10026" x="0" y="0" flags="0x204"/>
      <component glyphName="cyrillicbreve" x="68" y="338" flags="0x4"/>
    </TTGlyph>
    <TTGlyph name="afii10028" xMin="133" yMin="0" xMax="1083" yMax="1462">
      <contour>
        <pt x="1083" y="0" on="1"/>
        <pt x="778" y="0" on="1"/>
        <pt x="403" y="741" on="1"/>
        <pt x="403" y="0" on="1"/>
        <pt x="133" y="0" on="1"/>
        <pt x="133" y="1462" on="1"/>
        <pt x="403" y="1462" on="1"/>
        <pt x="403" y="754" on="1"/>
        <pt x="784" y="1462" on="1"/>
        <pt x="1075" y="1462" on="1"/>
        <pt x="674" y="758" on="1"/>
      </contour>
    </TTGlyph>
    <TTGlyph name="afii10029" xMin="0" yMin="-20" xMax="1032" yMax="1462">
      <contour>
        <pt x="1032" y="0" on="1"/>
        <pt x="760" y="0" on="1"/>
        <pt x="760" y="1223" on="1"/>
        <pt x="541" y="1223" on="1"/>
        <pt x="496" y="717" on="0"/>
        <pt x="451" y="387" on="1"/>
        <pt x="421" y="176" on="0"/>
        <pt x="264" y="-20" on="0"/>
        <pt x="133" y="-20" on="1"/>
        <pt x="52" y="-20" on="0"/>
        <pt x="0" y="2" on="1"/>
        <pt x="0" y="227" on="1"/>
        <pt x="30" y="215" on="0"/>
        <pt x="74" y="215" on="1"/>
        <pt x="130" y="215" on="0"/>
        <pt x="189" y="391" on="0"/>
        <pt x="264" y="1005" on="0"/>
        <pt x="305" y="1462" on="1"/>
        <pt x="1032" y="1462" on="1"/>
      </contour>
    </TTGlyph>
    <TTGlyph name="afii10030" xMin="129" yMin="0" xMax="1477" yMax="1462">
      <component glyphName="M" x="0" y="0" flags="0x204"/>
    </TTGlyph>
    <TTGlyph name="afii10031" xMin="129" yMin="0" xMax="1032" yMax="1462">
      <component glyphName="H" x="0" y="0" flags="0x204"/>
    </TTGlyph>
    <TTGlyph name="afii10032" xMin="84" yMin="-20" xMax="1135" yMax="1485">
      <component glyphName="O" x="0" y="0" flags="0x204"/>
    </TTGlyph>
    <TTGlyph name="afii10033" xMin="129" yMin="0" xMax="1032" yMax="1462">
      <component glyphName="Pi" x="0" y="0" flags="0x204"/>
    </TTGlyph>
    <TTGlyph name="afii10034" xMin="129" yMin="0" xMax="926" yMax="1462">
      <component glyphName="P" x="0" y="0" flags="0x204"/>
    </TTGlyph>
    <TTGlyph name="afii10035" xMin="84" yMin="-20" xMax="911" yMax="1483">
      <component glyphName="C" x="0" y="0" flags="0x204"/>
    </TTGlyph>
    <TTGlyph name="afii10036" xMin="27" yMin="0" xMax="858" yMax="1462">
      <component glyphName="T" x="0" y="0" flags="0x204"/>
    </TTGlyph>
    <TTGlyph name="afii10037" xMin="0" yMin="-20" xMax="971" yMax="1462">
      <contour>
        <pt x="215" y="-20" on="1"/>
        <pt x="110" y="-20" on="0"/>
        <pt x="39" y="8" on="1"/>
        <pt x="39" y="250" on="1"/>
        <pt x="112" y="221" on="0"/>
        <pt x="190" y="221" on="1"/>
        <pt x="310" y="221" on="0"/>
        <pt x="375" y="444" on="1"/>
        <pt x="0" y="1462" on="1"/>
        <pt x="285" y="1462" on="1"/>
        <pt x="471" y="891" on="1"/>
        <pt x="494" y="812" on="0"/>
        <pt x="500" y="756" on="1"/>
        <pt x="508" y="756" on="1"/>
        <pt x="522" y="824" on="1"/>
        <pt x="537" y="891" on="1"/>
        <pt x="696" y="1462" on="1"/>
        <pt x="971" y="1462" on="1"/>
        <pt x="645" y="428" on="1"/>
        <pt x="567" y="183" on="0"/>
        <pt x="366" y="-20" on="0"/>
      </contour>
    </TTGlyph>
    <TTGlyph name="afii10038" xMin="74" yMin="-20" xMax="1356" yMax="1483">
      <component glyphName="Phi" x="0" y="0" flags="0x204"/>
    </TTGlyph>
    <TTGlyph name="afii10039" xMin="0" yMin="0" xMax="969" yMax="1462">
      <component glyphName="X" x="0" y="0" flags="0x204"/>
    </TTGlyph>
    <TTGlyph name="afii10040" xMin="129" yMin="-418" xMax="1198" yMax="1462">
      <contour>
        <pt x="1032" y="229" on="1"/>
        <pt x="1198" y="229" on="1"/>
        <pt x="1198" y="-418" on="1"/>
        <pt x="934" y="-418" on="1"/>
        <pt x="934" y="0" on="1"/>
        <pt x="129" y="0" on="1"/>
        <pt x="129" y="1462" on="1"/>
        <pt x="401" y="1462" on="1"/>
        <pt x="401" y="240" on="1"/>
        <pt x="760" y="240" on="1"/>
        <pt x="760" y="1462" on="1"/>
        <pt x="1032" y="1462" on="1"/>
      </contour>
    </TTGlyph>
    <TTGlyph name="afii10041" xMin="125" yMin="0" xMax="1026" yMax="1462">
      <contour>
        <pt x="1026" y="0" on="1"/>
        <pt x="754" y="0" on="1"/>
        <pt x="754" y="567" on="1"/>
        <pt x="614" y="481" on="0"/>
        <pt x="471" y="481" on="1"/>
        <pt x="306" y="481" on="0"/>
        <pt x="125" y="682" on="0"/>
        <pt x="125" y="862" on="1"/>
        <pt x="125" y="1462" on="1"/>
        <pt x="397" y="1462" on="1"/>
        <pt x="397" y="922" on="1"/>
        <pt x="397" y="817" on="0"/>
        <pt x="460" y="721" on="0"/>
        <pt x="532" y="721" on="1"/>
        <pt x="592" y="721" on="0"/>
        <pt x="698" y="762" on="0"/>
        <pt x="754" y="797" on="1"/>
        <pt x="754" y="1462" on="1"/>
        <pt x="1026" y="1462" on="1"/>
      </contour>
    </TTGlyph>
    <TTGlyph name="afii10042" xMin="129" yMin="0" xMax="1575" yMax="1462">
      <contour>
        <pt x="987" y="240" on="1"/>
        <pt x="1303" y="240" on="1"/>
        <pt x="1303" y="1462" on="1"/>
        <pt x="1575" y="1462" on="1"/>
        <pt x="1575" y="0" on="1"/>
        <pt x="129" y="0" on="1"/>
        <pt x="129" y="1462" on="1"/>
        <pt x="401" y="1462" on="1"/>
        <pt x="401" y="240" on="1"/>
        <pt x="717" y="240" on="1"/>
        <pt x="717" y="1462" on="1"/>
        <pt x="987" y="1462" on="1"/>
      </contour>
    </TTGlyph>
    <TTGlyph name="afii10043" xMin="129" yMin="-418" xMax="1739" yMax="1462">
      <contour>
        <pt x="987" y="240" on="1"/>
        <pt x="1303" y="240" on="1"/>
        <pt x="1303" y="1462" on="1"/>
        <pt x="1573" y="1462" on="1"/>
        <pt x="1573" y="229" on="1"/>
        <pt x="1739" y="229" on="1"/>
        <pt x="1739" y="-418" on="1"/>
        <pt x="1475" y="-418" on="1"/>
        <pt x="1475" y="0" on="1"/>
        <pt x="129" y="0" on="1"/>
        <pt x="129" y="1462" on="1"/>
        <pt x="401" y="1462" on="1"/>
        <pt x="401" y="240" on="1"/>
        <pt x="717" y="240" on="1"/>
        <pt x="717" y="1462" on="1"/>
        <pt x="987" y="1462" on="1"/>
      </contour>
    </TTGlyph>
    <TTGlyph name="afii10044" xMin="29" yMin="0" xMax="1098" yMax="1462">
      <contour>
        <pt x="1098" y="465" on="1"/>
        <pt x="1098" y="244" on="0"/>
        <pt x="864" y="0" on="0"/>
        <pt x="649" y="0" on="1"/>
        <pt x="303" y="0" on="1"/>
        <pt x="303" y="1223" on="1"/>
        <pt x="29" y="1223" on="1"/>
        <pt x="29" y="1462" on="1"/>
        <pt x="575" y="1462" on="1"/>
        <pt x="575" y="891" on="1"/>
        <pt x="643" y="891" on="1"/>
        <pt x="1098" y="891" on="0"/>
      </contour>
      <contour>
        <pt x="575" y="236" on="1"/>
        <pt x="641" y="236" on="1"/>
        <pt x="823" y="236" on="0"/>
        <pt x="823" y="455" on="1"/>
        <pt x="823" y="561" on="0"/>
        <pt x="734" y="653" on="0"/>
        <pt x="627" y="653" on="1"/>
        <pt x="575" y="653" on="1"/>
      </contour>
    </TTGlyph>
    <TTGlyph name="afii10045" xMin="129" yMin="0" xMax="1389" yMax="1462">
      <contour>
        <pt x="129" y="0" on="1"/>
        <pt x="129" y="1462" on="1"/>
        <pt x="401" y="1462" on="1"/>
        <pt x="401" y="891" on="1"/>
        <pt x="471" y="891" on="1"/>
        <pt x="926" y="891" on="0"/>
        <pt x="926" y="465" on="1"/>
        <pt x="926" y="244" on="0"/>
        <pt x="692" y="0" on="0"/>
        <pt x="477" y="0" on="1"/>
      </contour>
      <contour>
        <pt x="401" y="236" on="1"/>
        <pt x="469" y="236" on="1"/>
        <pt x="651" y="236" on="0"/>
        <pt x="651" y="455" on="1"/>
        <pt x="651" y="561" on="0"/>
        <pt x="562" y="653" on="0"/>
        <pt x="455" y="653" on="1"/>
        <pt x="401" y="653" on="1"/>
      </contour>
      <contour>
        <pt x="1389" y="0" on="1"/>
        <pt x="1116" y="0" on="1"/>
        <pt x="1116" y="1462" on="1"/>
        <pt x="1389" y="1462" on="1"/>
      </contour>
    </TTGlyph>
    <TTGlyph name="afii10046" xMin="129" yMin="0" xMax="926" yMax="1462">
      <contour>
        <pt x="926" y="465" on="1"/>
        <pt x="926" y="244" on="0"/>
        <pt x="692" y="0" on="0"/>
        <pt x="477" y="0" on="1"/>
        <pt x="129" y="0" on="1"/>
        <pt x="129" y="1462" on="1"/>
        <pt x="401" y="1462" on="1"/>
        <pt x="401" y="891" on="1"/>
        <pt x="471" y="891" on="1"/>
        <pt x="926" y="891" on="0"/>
      </contour>
      <contour>
        <pt x="401" y="236" on="1"/>
        <pt x="469" y="236" on="1"/>
        <pt x="651" y="236" on="0"/>
        <pt x="651" y="455" on="1"/>
        <pt x="651" y="561" on="0"/>
        <pt x="562" y="653" on="0"/>
        <pt x="455" y="653" on="1"/>
        <pt x="401" y="653" on="1"/>
      </contour>
    </TTGlyph>
    <TTGlyph name="afii10047" xMin="37" yMin="-20" xMax="864" yMax="1485">
      <contour>
        <pt x="344" y="1245" on="1"/>
        <pt x="245" y="1245" on="0"/>
        <pt x="129" y="1163" on="1"/>
        <pt x="37" y="1384" on="1"/>
        <pt x="109" y="1431" on="0"/>
        <pt x="258" y="1485" on="0"/>
        <pt x="352" y="1485" on="1"/>
        <pt x="597" y="1485" on="0"/>
        <pt x="864" y="1096" on="0"/>
        <pt x="864" y="739" on="1"/>
        <pt x="864" y="382" on="0"/>
        <pt x="593" y="-20" on="0"/>
        <pt x="346" y="-20" on="1"/>
        <pt x="177" y="-20" on="0"/>
        <pt x="72" y="51" on="1"/>
        <pt x="72" y="293" on="1"/>
        <pt x="197" y="219" on="0"/>
        <pt x="326" y="219" on="1"/>
        <pt x="559" y="219" on="0"/>
        <pt x="582" y="625" on="1"/>
        <pt x="199" y="625" on="1"/>
        <pt x="199" y="860" on="1"/>
        <pt x="580" y="860" on="1"/>
        <pt x="554" y="1245" on="0"/>
      </contour>
    </TTGlyph>
    <TTGlyph name="afii10048" xMin="129" yMin="-20" xMax="1593" yMax="1485">
      <contour>
        <pt x="1593" y="733" on="1"/>
        <pt x="1593" y="371" on="0"/>
        <pt x="1339" y="-20" on="0"/>
        <pt x="1102" y="-20" on="1"/>
        <pt x="880" y="-20" on="0"/>
        <pt x="627" y="318" on="0"/>
        <pt x="612" y="641" on="1"/>
        <pt x="401" y="641" on="1"/>
        <pt x="401" y="0" on="1"/>
        <pt x="129" y="0" on="1"/>
        <pt x="129" y="1462" on="1"/>
        <pt x="401" y="1462" on="1"/>
        <pt x="401" y="881" on="1"/>
        <pt x="614" y="881" on="1"/>
        <pt x="640" y="1175" on="0"/>
        <pt x="889" y="1485" on="0"/>
        <pt x="1104" y="1485" on="1"/>
        <pt x="1341" y="1485" on="0"/>
        <pt x="1593" y="1094" on="0"/>
      </contour>
      <contour>
        <pt x="889" y="733" on="1"/>
        <pt x="889" y="221" on="0"/>
        <pt x="1102" y="221" on="1"/>
        <pt x="1315" y="221" on="0"/>
        <pt x="1315" y="733" on="1"/>
        <pt x="1315" y="1245" on="0"/>
        <pt x="1104" y="1245" on="1"/>
        <pt x="889" y="1245" on="0"/>
      </contour>
    </TTGlyph>
    <TTGlyph name="afii10049" xMin="4" yMin="0" xMax="895" yMax="1462">
      <contour>
        <pt x="524" y="569" on="1"/>
        <pt x="297" y="0" on="1"/>
        <pt x="4" y="0" on="1"/>
        <pt x="283" y="639" on="1"/>
        <pt x="186" y="699" on="0"/>
        <pt x="98" y="882" on="0"/>
        <pt x="98" y="1014" on="1"/>
        <pt x="98" y="1462" on="0"/>
        <pt x="543" y="1462" on="1"/>
        <pt x="895" y="1462" on="1"/>
        <pt x="895" y="0" on="1"/>
        <pt x="623" y="0" on="1"/>
        <pt x="623" y="569" on="1"/>
      </contour>
      <contour>
        <pt x="623" y="1227" on="1"/>
        <pt x="557" y="1227" on="1"/>
        <pt x="464" y="1227" on="0"/>
        <pt x="375" y="1132" on="0"/>
        <pt x="375" y="1020" on="1"/>
        <pt x="375" y="912" on="0"/>
        <pt x="456" y="803" on="0"/>
        <pt x="553" y="803" on="1"/>
        <pt x="623" y="803" on="1"/>
      </contour>
    </TTGlyph>
    <TTGlyph name="afii10050" xMin="129" yMin="0" xMax="807" yMax="1769">
      <contour>
        <pt x="399" y="0" on="1"/>
        <pt x="129" y="0" on="1"/>
        <pt x="129" y="1462" on="1"/>
        <pt x="543" y="1462" on="1"/>
        <pt x="543" y="1769" on="1"/>
        <pt x="807" y="1769" on="1"/>
        <pt x="807" y="1227" on="1"/>
        <pt x="399" y="1227" on="1"/>
      </contour>
    </TTGlyph>
    <TTGlyph name="afii10051" xMin="27" yMin="-18" xMax="1165" yMax="1462">
      <contour>
        <pt x="850" y="-18" on="1"/>
        <pt x="771" y="-18" on="0"/>
        <pt x="702" y="6" on="1"/>
        <pt x="702" y="233" on="1"/>
        <pt x="751" y="215" on="0"/>
        <pt x="791" y="215" on="1"/>
        <pt x="848" y="215" on="0"/>
        <pt x="895" y="299" on="0"/>
        <pt x="895" y="383" on="1"/>
        <pt x="895" y="514" on="1"/>
        <pt x="895" y="606" on="0"/>
        <pt x="820" y="686" on="0"/>
        <pt x="731" y="686" on="1"/>
        <pt x="565" y="686" on="1"/>
        <pt x="565" y="0" on="1"/>
        <pt x="295" y="0" on="1"/>
        <pt x="295" y="1223" on="1"/>
        <pt x="27" y="1223" on="1"/>
        <pt x="27" y="1462" on="1"/>
        <pt x="846" y="1462" on="1"/>
        <pt x="846" y="1223" on="1"/>
        <pt x="565" y="1223" on="1"/>
        <pt x="565" y="926" on="1"/>
        <pt x="766" y="926" on="1"/>
        <pt x="973" y="926" on="0"/>
        <pt x="1165" y="740" on="0"/>
        <pt x="1165" y="541" on="1"/>
        <pt x="1165" y="381" on="1"/>
        <pt x="1165" y="-18" on="0"/>
      </contour>
    </TTGlyph>
    <TTGlyph name="afii10052" xMin="129" yMin="0" xMax="782" yMax="1907">
      <component glyphName="Gamma" x="0" y="0" flags="0x204"/>
      <component glyphName="acute" x="-19" y="338" flags="0x4"/>
    </TTGlyph>
    <TTGlyph name="afii10053" xMin="84" yMin="-20" xMax="911" yMax="1483">
      <contour>
        <pt x="612" y="1245" on="1"/>
        <pt x="511" y="1245" on="0"/>
        <pt x="385" y="1041" on="0"/>
        <pt x="369" y="860" on="1"/>
        <pt x="748" y="860" on="1"/>
        <pt x="748" y="625" on="1"/>
        <pt x="367" y="625" on="1"/>
        <pt x="390" y="219" on="0"/>
        <pt x="625" y="219" on="1"/>
        <pt x="741" y="219" on="0"/>
        <pt x="868" y="293" on="1"/>
        <pt x="868" y="51" on="1"/>
        <pt x="761" y="-20" on="0"/>
        <pt x="594" y="-20" on="1"/>
        <pt x="347" y="-20" on="0"/>
        <pt x="84" y="371" on="0"/>
        <pt x="84" y="729" on="1"/>
        <pt x="84" y="1085" on="0"/>
        <pt x="357" y="1483" on="0"/>
        <pt x="598" y="1483" on="1"/>
        <pt x="679" y="1483" on="0"/>
        <pt x="829" y="1438" on="0"/>
        <pt x="911" y="1384" on="1"/>
        <pt x="819" y="1163" on="1"/>
        <pt x="774" y="1194" on="0"/>
        <pt x="672" y="1245" on="0"/>
      </contour>
    </TTGlyph>
    <TTGlyph name="afii10054" xMin="68" yMin="-20" xMax="795" yMax="1483">
      <component glyphName="S" x="0" y="0" flags="0x204"/>
    </TTGlyph>
    <TTGlyph name="afii10055" xMin="178" yMin="0" xMax="434" yMax="1462">
      <component glyphName="I" x="0" y="0" flags="0x204"/>
    </TTGlyph>
    <TTGlyph name="afii10055.alt" xMin="63" yMin="0" xMax="549" yMax="1462">
      <component glyphName="I.alt" x="0" y="0" flags="0x204"/>
    </TTGlyph>
    <TTGlyph name="afii10056" xMin="-24" yMin="0" xMax="640" yMax="1870">
      <component glyphName="I" x="0" y="0" flags="0x204"/>
      <component glyphName="dieresis" x="-257" y="338" flags="0x4"/>
    </TTGlyph>
    <TTGlyph name="afii10056.alt" xMin="-18" yMin="0" xMax="646" yMax="1870">
      <component glyphName="I.alt" x="0" y="0" flags="0x204"/>
      <component glyphName="dieresis" x="-251" y="338" flags="0x4"/>
    </TTGlyph>
    <TTGlyph name="afii10057" xMin="-154" yMin="-422" xMax="401" yMax="1462">
      <component glyphName="J" x="0" y="0" flags="0x204"/>
    </TTGlyph>
    <TTGlyph name="afii10058" xMin="0" yMin="-20" xMax="1497" yMax="1462">
      <contour>
        <pt x="1497" y="461" on="1"/>
        <pt x="1497" y="243" on="0"/>
        <pt x="1264" y="0" on="0"/>
        <pt x="1047" y="0" on="1"/>
        <pt x="700" y="0" on="1"/>
        <pt x="700" y="1223" on="1"/>
        <pt x="541" y="1223" on="1"/>
        <pt x="496" y="717" on="0"/>
        <pt x="451" y="387" on="1"/>
        <pt x="421" y="176" on="0"/>
        <pt x="264" y="-20" on="0"/>
        <pt x="133" y="-20" on="1"/>
        <pt x="52" y="-20" on="0"/>
        <pt x="0" y="2" on="1"/>
        <pt x="0" y="227" on="1"/>
        <pt x="30" y="215" on="0"/>
        <pt x="74" y="215" on="1"/>
        <pt x="130" y="215" on="0"/>
        <pt x="189" y="391" on="0"/>
        <pt x="264" y="1005" on="0"/>
        <pt x="305" y="1462" on="1"/>
        <pt x="973" y="1462" on="1"/>
        <pt x="973" y="881" on="1"/>
        <pt x="1040" y="881" on="1"/>
        <pt x="1497" y="881" on="0"/>
      </contour>
      <contour>
        <pt x="973" y="236" on="1"/>
        <pt x="1038" y="236" on="1"/>
        <pt x="1223" y="236" on="0"/>
        <pt x="1223" y="451" on="1"/>
        <pt x="1223" y="553" on="0"/>
        <pt x="1132" y="643" on="0"/>
        <pt x="1024" y="643" on="1"/>
        <pt x="973" y="643" on="1"/>
      </contour>
    </TTGlyph>
    <TTGlyph name="afii10059" xMin="129" yMin="0" xMax="1497" yMax="1462">
      <contour>
        <pt x="1497" y="461" on="1"/>
        <pt x="1497" y="243" on="0"/>
        <pt x="1264" y="0" on="0"/>
        <pt x="1047" y="0" on="1"/>
        <pt x="702" y="0" on="1"/>
        <pt x="702" y="641" on="1"/>
        <pt x="401" y="641" on="1"/>
        <pt x="401" y="0" on="1"/>
        <pt x="129" y="0" on="1"/>
        <pt x="129" y="1462" on="1"/>
        <pt x="401" y="1462" on="1"/>
        <pt x="401" y="881" on="1"/>
        <pt x="702" y="881" on="1"/>
        <pt x="702" y="1462" on="1"/>
        <pt x="975" y="1462" on="1"/>
        <pt x="975" y="881" on="1"/>
        <pt x="1040" y="881" on="1"/>
        <pt x="1497" y="881" on="0"/>
      </contour>
      <contour>
        <pt x="975" y="236" on="1"/>
        <pt x="1038" y="236" on="1"/>
        <pt x="1223" y="236" on="0"/>
        <pt x="1223" y="451" on="1"/>
        <pt x="1223" y="553" on="0"/>
        <pt x="1132" y="643" on="0"/>
        <pt x="1024" y="643" on="1"/>
        <pt x="975" y="643" on="1"/>
      </contour>
    </TTGlyph>
    <TTGlyph name="afii10060" xMin="27" yMin="0" xMax="1165" yMax="1462">
      <contour>
        <pt x="565" y="926" on="1"/>
        <pt x="764" y="926" on="1"/>
        <pt x="972" y="926" on="0"/>
        <pt x="1165" y="740" on="0"/>
        <pt x="1165" y="541" on="1"/>
        <pt x="1165" y="0" on="1"/>
        <pt x="895" y="0" on="1"/>
        <pt x="895" y="514" on="1"/>
        <pt x="895" y="606" on="0"/>
        <pt x="820" y="686" on="0"/>
        <pt x="731" y="686" on="1"/>
        <pt x="565" y="686" on="1"/>
        <pt x="565" y="0" on="1"/>
        <pt x="295" y="0" on="1"/>
        <pt x="295" y="1223" on="1"/>
        <pt x="27" y="1223" on="1"/>
        <pt x="27" y="1462" on="1"/>
        <pt x="848" y="1462" on="1"/>
        <pt x="848" y="1223" on="1"/>
        <pt x="565" y="1223" on="1"/>
      </contour>
    </TTGlyph>
    <TTGlyph name="afii10061" xMin="133" yMin="0" xMax="1083" yMax="1907">
      <component glyphName="afii10028" x="0" y="0" flags="0x204"/>
      <component glyphName="acute" x="63" y="338" flags="0x4"/>
    </TTGlyph>
    <TTGlyph name="afii10062" xMin="0" yMin="-20" xMax="971" yMax="1903">
      <component glyphName="afii10037" x="0" y="0" flags="0x204"/>
      <component glyphName="cyrillicbreve" x="-67" y="338" flags="0x4"/>
    </TTGlyph>
    <TTGlyph name="afii10065" xMin="55" yMin="-20" xMax="854" yMax="1137">
      <component glyphName="a" x="0" y="0" flags="0x204"/>
    </TTGlyph>
    <TTGlyph name="afii10066" xMin="74" yMin="-20" xMax="938" yMax="1567">
      <contour>
        <pt x="74" y="645" on="1"/>
        <pt x="74" y="1025" on="0"/>
        <pt x="291" y="1425" on="0"/>
        <pt x="537" y="1497" on="1"/>
        <pt x="665" y="1533" on="0"/>
        <pt x="907" y="1567" on="1"/>
        <pt x="938" y="1333" on="1"/>
        <pt x="761" y="1305" on="1"/>
        <pt x="592" y="1277" on="0"/>
        <pt x="425" y="1188" on="0"/>
        <pt x="342" y="1013" on="0"/>
        <pt x="334" y="868" on="1"/>
        <pt x="342" y="868" on="1"/>
        <pt x="389" y="952" on="0"/>
        <pt x="523" y="1038" on="0"/>
        <pt x="602" y="1038" on="1"/>
        <pt x="762" y="1038" on="0"/>
        <pt x="938" y="780" on="0"/>
        <pt x="938" y="549" on="1"/>
        <pt x="938" y="281" on="0"/>
        <pt x="710" y="-20" on="0"/>
        <pt x="506" y="-20" on="1"/>
        <pt x="298" y="-20" on="0"/>
        <pt x="74" y="326" on="0"/>
      </contour>
      <contour>
        <pt x="516" y="207" on="1"/>
        <pt x="666" y="207" on="0"/>
        <pt x="666" y="522" on="1"/>
        <pt x="666" y="827" on="0"/>
        <pt x="530" y="827" on="1"/>
        <pt x="471" y="827" on="0"/>
        <pt x="369" y="732" on="0"/>
        <pt x="346" y="659" on="1"/>
        <pt x="346" y="207" on="0"/>
      </contour>
    </TTGlyph>
    <TTGlyph name="afii10067" xMin="113" yMin="0" xMax="940" yMax="1114">
      <contour>
        <pt x="907" y="825" on="1"/>
        <pt x="907" y="731" on="0"/>
        <pt x="796" y="606" on="0"/>
        <pt x="690" y="588" on="1"/>
        <pt x="690" y="580" on="1"/>
        <pt x="807" y="565" on="0"/>
        <pt x="940" y="434" on="0"/>
        <pt x="940" y="330" on="1"/>
        <pt x="940" y="170" on="0"/>
        <pt x="714" y="0" on="0"/>
        <pt x="504" y="0" on="1"/>
        <pt x="113" y="0" on="1"/>
        <pt x="113" y="1114" on="1"/>
        <pt x="502" y="1114" on="1"/>
        <pt x="907" y="1114" on="0"/>
      </contour>
      <contour>
        <pt x="664" y="346" on="1"/>
        <pt x="664" y="417" on="0"/>
        <pt x="572" y="479" on="0"/>
        <pt x="479" y="479" on="1"/>
        <pt x="379" y="479" on="1"/>
        <pt x="379" y="199" on="1"/>
        <pt x="483" y="199" on="1"/>
        <pt x="664" y="199" on="0"/>
      </contour>
      <contour>
        <pt x="635" y="801" on="1"/>
        <pt x="635" y="911" on="0"/>
        <pt x="489" y="911" on="1"/>
        <pt x="379" y="911" on="1"/>
        <pt x="379" y="676" on="1"/>
        <pt x="459" y="676" on="1"/>
        <pt x="547" y="676" on="0"/>
        <pt x="635" y="733" on="0"/>
      </contour>
    </TTGlyph>
    <TTGlyph name="afii10068" xMin="113" yMin="0" xMax="692" yMax="1114">
      <contour>
        <pt x="692" y="1114" on="1"/>
        <pt x="692" y="899" on="1"/>
        <pt x="379" y="899" on="1"/>
        <pt x="379" y="0" on="1"/>
        <pt x="113" y="0" on="1"/>
        <pt x="113" y="1114" on="1"/>
      </contour>
    </TTGlyph>
    <TTGlyph name="afii10069" xMin="29" yMin="-397" xMax="1065" yMax="1114">
      <contour>
        <pt x="651" y="209" on="1"/>
        <pt x="651" y="903" on="1"/>
        <pt x="520" y="903" on="1"/>
        <pt x="482" y="471" on="0"/>
        <pt x="375" y="209" on="1"/>
      </contour>
      <contour>
        <pt x="1065" y="-397" on="1"/>
        <pt x="801" y="-397" on="1"/>
        <pt x="801" y="0" on="1"/>
        <pt x="293" y="0" on="1"/>
        <pt x="293" y="-397" on="1"/>
        <pt x="29" y="-397" on="1"/>
        <pt x="29" y="209" on="1"/>
        <pt x="96" y="209" on="1"/>
        <pt x="176" y="370" on="0"/>
        <pt x="270" y="836" on="0"/>
        <pt x="283" y="1114" on="1"/>
        <pt x="920" y="1114" on="1"/>
        <pt x="920" y="209" on="1"/>
        <pt x="1065" y="209" on="1"/>
      </contour>
    </TTGlyph>
    <TTGlyph name="afii10070" xMin="74" yMin="-20" xMax="879" yMax="1135">
      <component glyphName="e" x="0" y="0" flags="0x204"/>
    </TTGlyph>
    <TTGlyph name="afii10071" xMin="74" yMin="-20" xMax="879" yMax="1532">
      <component glyphName="e" x="0" y="0" flags="0x204"/>
      <component glyphName="dieresis" x="-77" y="0" flags="0x4"/>
    </TTGlyph>
    <TTGlyph name="afii10072" xMin="0" yMin="0" xMax="1405" yMax="1114">
      <contour>
        <pt x="575" y="580" on="1"/>
        <pt x="575" y="1114" on="1"/>
        <pt x="831" y="1114" on="1"/>
        <pt x="831" y="580" on="1"/>
        <pt x="1110" y="1114" on="1"/>
        <pt x="1386" y="1114" on="1"/>
        <pt x="1087" y="586" on="1"/>
        <pt x="1405" y="0" on="1"/>
        <pt x="1116" y="0" on="1"/>
        <pt x="831" y="573" on="1"/>
        <pt x="831" y="0" on="1"/>
        <pt x="575" y="0" on="1"/>
        <pt x="575" y="573" on="1"/>
        <pt x="289" y="0" on="1"/>
        <pt x="0" y="0" on="1"/>
        <pt x="317" y="586" on="1"/>
        <pt x="20" y="1114" on="1"/>
        <pt x="297" y="1114" on="1"/>
      </contour>
    </TTGlyph>
    <TTGlyph name="afii10073" xMin="55" yMin="-20" xMax="795" yMax="1135">
      <contour>
        <pt x="340" y="680" on="1"/>
        <pt x="431" y="680" on="0"/>
        <pt x="520" y="738" on="0"/>
        <pt x="520" y="809" on="1"/>
        <pt x="520" y="924" on="0"/>
        <pt x="367" y="924" on="1"/>
        <pt x="313" y="924" on="0"/>
        <pt x="221" y="893" on="0"/>
        <pt x="168" y="860" on="1"/>
        <pt x="72" y="1053" on="1"/>
        <pt x="211" y="1135" on="0"/>
        <pt x="381" y="1135" on="1"/>
        <pt x="558" y="1135" on="0"/>
        <pt x="768" y="977" on="0"/>
        <pt x="768" y="840" on="1"/>
        <pt x="768" y="649" on="0"/>
        <pt x="557" y="590" on="1"/>
        <pt x="557" y="582" on="1"/>
        <pt x="673" y="555" on="0"/>
        <pt x="795" y="411" on="0"/>
        <pt x="795" y="299" on="1"/>
        <pt x="795" y="151" on="0"/>
        <pt x="570" y="-20" on="0"/>
        <pt x="371" y="-20" on="1"/>
        <pt x="279" y="-20" on="0"/>
        <pt x="112" y="21" on="0"/>
        <pt x="55" y="53" on="1"/>
        <pt x="55" y="276" on="1"/>
        <pt x="194" y="199" on="0"/>
        <pt x="346" y="199" on="1"/>
        <pt x="528" y="199" on="0"/>
        <pt x="528" y="334" on="1"/>
        <pt x="528" y="406" on="0"/>
        <pt x="441" y="481" on="0"/>
        <pt x="340" y="481" on="1"/>
        <pt x="231" y="481" on="1"/>
        <pt x="231" y="680" on="1"/>
      </contour>
    </TTGlyph>
    <TTGlyph name="afii10074" xMin="113" yMin="0" xMax="1024" yMax="1114">
      <contour>
        <pt x="360" y="1114" on="1"/>
        <pt x="360" y="598" on="1"/>
        <pt x="360" y="502" on="0"/>
        <pt x="336" y="279" on="1"/>
        <pt x="698" y="1114" on="1"/>
        <pt x="1024" y="1114" on="1"/>
        <pt x="1024" y="0" on="1"/>
        <pt x="776" y="0" on="1"/>
        <pt x="776" y="524" on="1"/>
        <pt x="776" y="642" on="0"/>
        <pt x="799" y="842" on="1"/>
        <pt x="436" y="0" on="1"/>
        <pt x="113" y="0" on="1"/>
        <pt x="113" y="1114" on="1"/>
      </contour>
    </TTGlyph>
    <TTGlyph name="afii10075" xMin="113" yMin="0" xMax="1024" yMax="1565">
      <component glyphName="afii10074" x="0" y="0" flags="0x204"/>
      <component glyphName="cyrillicbreve" x="-5" y="0" flags="0x4"/>
    </TTGlyph>
    <TTGlyph name="afii10076" xMin="113" yMin="0" xMax="963" yMax="1114">
      <contour>
        <pt x="664" y="1114" on="1"/>
        <pt x="944" y="1114" on="1"/>
        <pt x="639" y="586" on="1"/>
        <pt x="963" y="0" on="1"/>
        <pt x="670" y="0" on="1"/>
        <pt x="379" y="573" on="1"/>
        <pt x="379" y="0" on="1"/>
        <pt x="113" y="0" on="1"/>
        <pt x="113" y="1114" on="1"/>
        <pt x="379" y="1114" on="1"/>
        <pt x="379" y="582" on="1"/>
      </contour>
    </TTGlyph>
    <TTGlyph name="afii10077" xMin="0" yMin="-18" xMax="920" yMax="1114">
      <contour>
        <pt x="920" y="0" on="1"/>
        <pt x="653" y="0" on="1"/>
        <pt x="653" y="899" on="1"/>
        <pt x="504" y="899" on="1"/>
        <pt x="484" y="560" on="0"/>
        <pt x="395" y="162" on="0"/>
        <pt x="246" y="-18" on="0"/>
        <pt x="123" y="-18" on="1"/>
        <pt x="48" y="-18" on="0"/>
        <pt x="0" y="4" on="1"/>
        <pt x="0" y="223" on="1"/>
        <pt x="30" y="213" on="0"/>
        <pt x="61" y="213" on="1"/>
        <pt x="145" y="213" on="0"/>
        <pt x="239" y="642" on="0"/>
        <pt x="264" y="1114" on="1"/>
        <pt x="920" y="1114" on="1"/>
      </contour>
    </TTGlyph>
    <TTGlyph name="afii10078" xMin="113" yMin="0" xMax="1264" yMax="1114">
      <contour>
        <pt x="1264" y="0" on="1"/>
        <pt x="1026" y="0" on="1"/>
        <pt x="1026" y="905" on="1"/>
        <pt x="997" y="743" on="0"/>
        <pt x="944" y="541" on="1"/>
        <pt x="799" y="0" on="1"/>
        <pt x="573" y="0" on="1"/>
        <pt x="428" y="543" on="1"/>
        <pt x="381" y="718" on="0"/>
        <pt x="346" y="905" on="1"/>
        <pt x="346" y="0" on="1"/>
        <pt x="113" y="0" on="1"/>
        <pt x="113" y="1114" on="1"/>
        <pt x="496" y="1114" on="1"/>
        <pt x="631" y="594" on="1"/>
        <pt x="675" y="420" on="0"/>
        <pt x="684" y="270" on="1"/>
        <pt x="688" y="321" on="0"/>
        <pt x="723" y="505" on="0"/>
        <pt x="745" y="594" on="1"/>
        <pt x="883" y="1114" on="1"/>
        <pt x="1264" y="1114" on="1"/>
      </contour>
    </TTGlyph>
    <TTGlyph name="afii10079" xMin="113" yMin="0" xMax="948" yMax="1114">
      <contour>
        <pt x="379" y="1114" on="1"/>
        <pt x="379" y="680" on="1"/>
        <pt x="680" y="680" on="1"/>
        <pt x="680" y="1114" on="1"/>
        <pt x="948" y="1114" on="1"/>
        <pt x="948" y="0" on="1"/>
        <pt x="680" y="0" on="1"/>
        <pt x="680" y="467" on="1"/>
        <pt x="379" y="467" on="1"/>
        <pt x="379" y="0" on="1"/>
        <pt x="113" y="0" on="1"/>
        <pt x="113" y="1114" on="1"/>
      </contour>
    </TTGlyph>
    <TTGlyph name="afii10080" xMin="74" yMin="-20" xMax="938" yMax="1135">
      <component glyphName="o" x="0" y="0" flags="0x204"/>
    </TTGlyph>
    <TTGlyph name="afii10081" xMin="113" yMin="0" xMax="948" yMax="1114">
      <contour>
        <pt x="948" y="1114" on="1"/>
        <pt x="948" y="0" on="1"/>
        <pt x="680" y="0" on="1"/>
        <pt x="680" y="899" on="1"/>
        <pt x="379" y="899" on="1"/>
        <pt x="379" y="0" on="1"/>
        <pt x="113" y="0" on="1"/>
        <pt x="113" y="1114" on="1"/>
      </contour>
    </TTGlyph>
    <TTGlyph name="afii10082" xMin="113" yMin="-492" xMax="942" yMax="1135">
      <component glyphName="p" x="0" y="0" flags="0x204"/>
    </TTGlyph>
    <TTGlyph name="afii10083" xMin="74" yMin="-20" xMax="729" yMax="1135">
      <component glyphName="c" x="0" y="0" flags="0x204"/>
    </TTGlyph>
    <TTGlyph name="afii10084" xMin="37" yMin="0" xMax="799" yMax="1114">
      <contour>
        <pt x="799" y="1114" on="1"/>
        <pt x="799" y="899" on="1"/>
        <pt x="551" y="899" on="1"/>
        <pt x="551" y="0" on="1"/>
        <pt x="285" y="0" on="1"/>
        <pt x="285" y="899" on="1"/>
        <pt x="37" y="899" on="1"/>
        <pt x="37" y="1114" on="1"/>
      </contour>
    </TTGlyph>
    <TTGlyph name="afii10085" xMin="0" yMin="-492" xMax="913" yMax="1114">
      <component glyphName="y" x="0" y="0" flags="0x204"/>
    </TTGlyph>
    <TTGlyph name="afii10086" xMin="74" yMin="-492" xMax="1264" yMax="1556">
      <contour>
        <pt x="547" y="-20" on="1"/>
        <pt x="326" y="-18" on="0"/>
        <pt x="74" y="286" on="0"/>
        <pt x="74" y="559" on="1"/>
        <pt x="74" y="832" on="0"/>
        <pt x="323" y="1131" on="0"/>
        <pt x="547" y="1135" on="1"/>
        <pt x="547" y="1556" on="1"/>
        <pt x="791" y="1556" on="1"/>
        <pt x="791" y="1135" on="1"/>
        <pt x="1021" y="1131" on="0"/>
        <pt x="1264" y="836" on="0"/>
        <pt x="1264" y="559" on="1"/>
        <pt x="1264" y="287" on="0"/>
        <pt x="1016" y="-18" on="0"/>
        <pt x="791" y="-20" on="1"/>
        <pt x="791" y="-492" on="1"/>
        <pt x="547" y="-492" on="1"/>
      </contour>
      <contour>
        <pt x="334" y="559" on="1"/>
        <pt x="334" y="387" on="0"/>
        <pt x="447" y="196" on="0"/>
        <pt x="547" y="193" on="1"/>
        <pt x="547" y="922" on="1"/>
        <pt x="447" y="919" on="0"/>
        <pt x="334" y="732" on="0"/>
      </contour>
      <contour>
        <pt x="791" y="193" on="1"/>
        <pt x="890" y="195" on="0"/>
        <pt x="1004" y="390" on="0"/>
        <pt x="1004" y="559" on="1"/>
        <pt x="1004" y="732" on="0"/>
        <pt x="893" y="919" on="0"/>
        <pt x="791" y="922" on="1"/>
      </contour>
    </TTGlyph>
    <TTGlyph name="afii10087" xMin="14" yMin="0" xMax="874" yMax="1114">
      <component glyphName="x" x="0" y="0" flags="0x204"/>
    </TTGlyph>
    <TTGlyph name="afii10088" xMin="113" yMin="-397" xMax="1096" yMax="1114">
      <contour>
        <pt x="946" y="209" on="1"/>
        <pt x="1096" y="209" on="1"/>
        <pt x="1096" y="-397" on="1"/>
        <pt x="831" y="-397" on="1"/>
        <pt x="831" y="0" on="1"/>
        <pt x="113" y="0" on="1"/>
        <pt x="113" y="1114" on="1"/>
        <pt x="379" y="1114" on="1"/>
        <pt x="379" y="215" on="1"/>
        <pt x="678" y="215" on="1"/>
        <pt x="678" y="1114" on="1"/>
        <pt x="946" y="1114" on="1"/>
      </contour>
    </TTGlyph>
    <TTGlyph name="afii10089" xMin="102" yMin="0" xMax="926" yMax="1114">
      <contour>
        <pt x="369" y="1114" on="1"/>
        <pt x="369" y="700" on="1"/>
        <pt x="369" y="623" on="0"/>
        <pt x="419" y="553" on="0"/>
        <pt x="473" y="553" on="1"/>
        <pt x="529" y="553" on="0"/>
        <pt x="614" y="599" on="0"/>
        <pt x="657" y="633" on="1"/>
        <pt x="657" y="1114" on="1"/>
        <pt x="926" y="1114" on="1"/>
        <pt x="926" y="0" on="1"/>
        <pt x="657" y="0" on="1"/>
        <pt x="657" y="451" on="1"/>
        <pt x="519" y="344" on="0"/>
        <pt x="381" y="344" on="1"/>
        <pt x="244" y="344" on="0"/>
        <pt x="102" y="512" on="0"/>
        <pt x="102" y="678" on="1"/>
        <pt x="102" y="1114" on="1"/>
      </contour>
    </TTGlyph>
    <TTGlyph name="afii10090" xMin="113" yMin="0" xMax="1419" yMax="1114">
      <contour>
        <pt x="1419" y="0" on="1"/>
        <pt x="113" y="0" on="1"/>
        <pt x="113" y="1114" on="1"/>
        <pt x="379" y="1114" on="1"/>
        <pt x="379" y="215" on="1"/>
        <pt x="631" y="215" on="1"/>
        <pt x="631" y="1114" on="1"/>
        <pt x="899" y="1114" on="1"/>
        <pt x="899" y="215" on="1"/>
        <pt x="1151" y="215" on="1"/>
        <pt x="1151" y="1114" on="1"/>
        <pt x="1419" y="1114" on="1"/>
      </contour>
    </TTGlyph>
    <TTGlyph name="afii10091" xMin="113" yMin="-397" xMax="1569" yMax="1114">
      <contour>
        <pt x="113" y="0" on="1"/>
        <pt x="113" y="1114" on="1"/>
        <pt x="379" y="1114" on="1"/>
        <pt x="379" y="215" on="1"/>
        <pt x="631" y="215" on="1"/>
        <pt x="631" y="1114" on="1"/>
        <pt x="899" y="1114" on="1"/>
        <pt x="899" y="215" on="1"/>
        <pt x="1151" y="215" on="1"/>
        <pt x="1151" y="1114" on="1"/>
        <pt x="1419" y="1114" on="1"/>
        <pt x="1419" y="209" on="1"/>
        <pt x="1569" y="209" on="1"/>
        <pt x="1569" y="-397" on="1"/>
        <pt x="1305" y="-397" on="1"/>
        <pt x="1305" y="0" on="1"/>
      </contour>
    </TTGlyph>
    <TTGlyph name="afii10092" xMin="37" yMin="0" xMax="1087" yMax="1114">
      <contour>
        <pt x="561" y="678" on="1"/>
        <pt x="653" y="678" on="1"/>
        <pt x="876" y="678" on="0"/>
        <pt x="1087" y="516" on="0"/>
        <pt x="1087" y="352" on="1"/>
        <pt x="1087" y="0" on="0"/>
        <pt x="645" y="0" on="1"/>
        <pt x="293" y="0" on="1"/>
        <pt x="293" y="899" on="1"/>
        <pt x="37" y="899" on="1"/>
        <pt x="37" y="1114" on="1"/>
        <pt x="561" y="1114" on="1"/>
      </contour>
      <contour>
        <pt x="815" y="346" on="1"/>
        <pt x="815" y="417" on="0"/>
        <pt x="728" y="479" on="0"/>
        <pt x="635" y="479" on="1"/>
        <pt x="561" y="479" on="1"/>
        <pt x="561" y="199" on="1"/>
        <pt x="639" y="199" on="1"/>
        <pt x="724" y="199" on="0"/>
        <pt x="815" y="266" on="0"/>
      </contour>
    </TTGlyph>
    <TTGlyph name="afii10093" xMin="113" yMin="0" xMax="1315" yMax="1114">
      <contour>
        <pt x="379" y="678" on="1"/>
        <pt x="459" y="678" on="1"/>
        <pt x="680" y="678" on="0"/>
        <pt x="891" y="516" on="0"/>
        <pt x="891" y="352" on="1"/>
        <pt x="891" y="0" on="0"/>
        <pt x="451" y="0" on="1"/>
        <pt x="113" y="0" on="1"/>
        <pt x="113" y="1114" on="1"/>
        <pt x="379" y="1114" on="1"/>
      </contour>
      <contour>
        <pt x="618" y="346" on="1"/>
        <pt x="618" y="417" on="0"/>
        <pt x="531" y="479" on="0"/>
        <pt x="438" y="479" on="1"/>
        <pt x="379" y="479" on="1"/>
        <pt x="379" y="199" on="1"/>
        <pt x="442" y="199" on="1"/>
        <pt x="527" y="199" on="0"/>
        <pt x="618" y="266" on="0"/>
      </contour>
      <contour>
        <pt x="1315" y="0" on="1"/>
        <pt x="1047" y="0" on="1"/>
        <pt x="1047" y="1114" on="1"/>
        <pt x="1315" y="1114" on="1"/>
      </contour>
    </TTGlyph>
    <TTGlyph name="afii10094" xMin="113" yMin="0" xMax="907" yMax="1114">
      <contour>
        <pt x="379" y="678" on="1"/>
        <pt x="473" y="678" on="1"/>
        <pt x="696" y="678" on="0"/>
        <pt x="907" y="516" on="0"/>
        <pt x="907" y="352" on="1"/>
        <pt x="907" y="0" on="0"/>
        <pt x="465" y="0" on="1"/>
        <pt x="113" y="0" on="1"/>
        <pt x="113" y="1114" on="1"/>
        <pt x="379" y="1114" on="1"/>
      </contour>
      <contour>
        <pt x="633" y="346" on="1"/>
        <pt x="633" y="417" on="0"/>
        <pt x="548" y="479" on="0"/>
        <pt x="455" y="479" on="1"/>
        <pt x="379" y="479" on="1"/>
        <pt x="379" y="199" on="1"/>
        <pt x="459" y="199" on="1"/>
        <pt x="542" y="199" on="0"/>
        <pt x="633" y="266" on="0"/>
      </contour>
    </TTGlyph>
    <TTGlyph name="afii10095" xMin="53" yMin="-20" xMax="805" yMax="1135">
      <contour>
        <pt x="324" y="-20" on="1"/>
        <pt x="172" y="-20" on="0"/>
        <pt x="53" y="51" on="1"/>
        <pt x="53" y="270" on="1"/>
        <pt x="152" y="222" on="0"/>
        <pt x="260" y="195" on="0"/>
        <pt x="311" y="195" on="1"/>
        <pt x="406" y="195" on="0"/>
        <pt x="520" y="337" on="0"/>
        <pt x="530" y="467" on="1"/>
        <pt x="213" y="467" on="1"/>
        <pt x="213" y="662" on="1"/>
        <pt x="530" y="662" on="1"/>
        <pt x="527" y="792" on="0"/>
        <pt x="430" y="924" on="0"/>
        <pt x="342" y="924" on="1"/>
        <pt x="285" y="924" on="0"/>
        <pt x="190" y="890" on="0"/>
        <pt x="133" y="862" on="1"/>
        <pt x="59" y="1061" on="1"/>
        <pt x="203" y="1135" on="0"/>
        <pt x="350" y="1135" on="1"/>
        <pt x="805" y="1135" on="0"/>
        <pt x="805" y="569" on="1"/>
        <pt x="805" y="287" on="0"/>
        <pt x="559" y="-20" on="0"/>
      </contour>
    </TTGlyph>
    <TTGlyph name="afii10096" xMin="113" yMin="-20" xMax="1374" yMax="1135">
      <contour>
        <pt x="1374" y="559" on="1"/>
        <pt x="1374" y="284" on="0"/>
        <pt x="1155" y="-20" on="0"/>
        <pt x="954" y="-20" on="1"/>
        <pt x="776" y="-20" on="0"/>
        <pt x="560" y="237" on="0"/>
        <pt x="543" y="467" on="1"/>
        <pt x="379" y="467" on="1"/>
        <pt x="379" y="0" on="1"/>
        <pt x="113" y="0" on="1"/>
        <pt x="113" y="1114" on="1"/>
        <pt x="379" y="1114" on="1"/>
        <pt x="379" y="680" on="1"/>
        <pt x="545" y="680" on="1"/>
        <pt x="566" y="896" on="0"/>
        <pt x="781" y="1135" on="0"/>
        <pt x="958" y="1135" on="1"/>
        <pt x="1155" y="1135" on="0"/>
        <pt x="1374" y="834" on="0"/>
      </contour>
      <contour>
        <pt x="811" y="559" on="1"/>
        <pt x="811" y="207" on="0"/>
        <pt x="956" y="207" on="1"/>
        <pt x="1032" y="207" on="0"/>
        <pt x="1102" y="385" on="0"/>
        <pt x="1102" y="559" on="1"/>
        <pt x="1102" y="734" on="0"/>
        <pt x="1032" y="907" on="0"/>
        <pt x="956" y="907" on="1"/>
        <pt x="881" y="907" on="0"/>
        <pt x="811" y="734" on="0"/>
      </contour>
    </TTGlyph>
    <TTGlyph name="afii10097" xMin="6" yMin="0" xMax="899" yMax="1114">
      <contour>
        <pt x="307" y="0" on="1"/>
        <pt x="6" y="0" on="1"/>
        <pt x="283" y="457" on="1"/>
        <pt x="82" y="537" on="0"/>
        <pt x="82" y="768" on="1"/>
        <pt x="82" y="931" on="0"/>
        <pt x="299" y="1114" on="0"/>
        <pt x="489" y="1114" on="1"/>
        <pt x="899" y="1114" on="1"/>
        <pt x="899" y="0" on="1"/>
        <pt x="633" y="0" on="1"/>
        <pt x="633" y="420" on="1"/>
        <pt x="537" y="420" on="1"/>
      </contour>
      <contour>
        <pt x="352" y="766" on="1"/>
        <pt x="352" y="616" on="0"/>
        <pt x="518" y="616" on="1"/>
        <pt x="633" y="616" on="1"/>
        <pt x="633" y="915" on="1"/>
        <pt x="496" y="915" on="1"/>
        <pt x="352" y="915" on="0"/>
      </contour>
    </TTGlyph>
    <TTGlyph name="afii10098" xMin="113" yMin="0" xMax="717" yMax="1421">
      <contour>
        <pt x="379" y="0" on="1"/>
        <pt x="113" y="0" on="1"/>
        <pt x="113" y="1114" on="1"/>
        <pt x="453" y="1114" on="1"/>
        <pt x="453" y="1421" on="1"/>
        <pt x="717" y="1421" on="1"/>
        <pt x="717" y="899" on="1"/>
        <pt x="379" y="899" on="1"/>
      </contour>
    </TTGlyph>
    <TTGlyph name="afii10099" xMin="0" yMin="-492" xMax="948" yMax="1556">
      <contour>
        <pt x="948" y="-129" on="1"/>
        <pt x="948" y="-303" on="0"/>
        <pt x="787" y="-492" on="0"/>
        <pt x="641" y="-492" on="1"/>
        <pt x="555" y="-492" on="0"/>
        <pt x="500" y="-467" on="1"/>
        <pt x="500" y="-246" on="1"/>
        <pt x="546" y="-264" on="0"/>
        <pt x="588" y="-264" on="1"/>
        <pt x="635" y="-264" on="0"/>
        <pt x="680" y="-181" on="0"/>
        <pt x="680" y="-94" on="1"/>
        <pt x="680" y="627" on="1"/>
        <pt x="680" y="858" on="0"/>
        <pt x="557" y="858" on="1"/>
        <pt x="470" y="858" on="0"/>
        <pt x="391" y="689" on="0"/>
        <pt x="391" y="506" on="1"/>
        <pt x="391" y="0" on="1"/>
        <pt x="125" y="0" on="1"/>
        <pt x="125" y="1204" on="1"/>
        <pt x="0" y="1204" on="1"/>
        <pt x="0" y="1391" on="1"/>
        <pt x="125" y="1391" on="1"/>
        <pt x="125" y="1556" on="1"/>
        <pt x="391" y="1556" on="1"/>
        <pt x="391" y="1391" on="1"/>
        <pt x="635" y="1391" on="1"/>
        <pt x="635" y="1204" on="1"/>
        <pt x="391" y="1204" on="1"/>
        <pt x="391" y="1147" on="1"/>
        <pt x="391" y="1060" on="0"/>
        <pt x="379" y="920" on="1"/>
        <pt x="393" y="920" on="1"/>
        <pt x="430" y="1001" on="0"/>
        <pt x="557" y="1085" on="0"/>
        <pt x="639" y="1085" on="1"/>
        <pt x="792" y="1085" on="0"/>
        <pt x="948" y="887" on="0"/>
        <pt x="948" y="696" on="1"/>
      </contour>
    </TTGlyph>
    <TTGlyph name="afii10100" xMin="113" yMin="0" xMax="726" yMax="1569">
      <component glyphName="afii10068" x="0" y="0" flags="0x204"/>
      <component glyphName="acute" x="-75" y="0" flags="0x4"/>
    </TTGlyph>
    <TTGlyph name="afii10101" xMin="74" yMin="-20" xMax="825" yMax="1135">
      <contour>
        <pt x="522" y="-20" on="1"/>
        <pt x="294" y="-20" on="0"/>
        <pt x="74" y="260" on="0"/>
        <pt x="74" y="547" on="1"/>
        <pt x="74" y="836" on="0"/>
        <pt x="305" y="1135" on="0"/>
        <pt x="530" y="1135" on="1"/>
        <pt x="684" y="1135" on="0"/>
        <pt x="825" y="1059" on="1"/>
        <pt x="748" y="856" on="1"/>
        <pt x="691" y="887" on="0"/>
        <pt x="592" y="924" on="0"/>
        <pt x="537" y="924" on="1"/>
        <pt x="362" y="924" on="0"/>
        <pt x="346" y="662" on="1"/>
        <pt x="666" y="662" on="1"/>
        <pt x="666" y="467" on="1"/>
        <pt x="346" y="467" on="1"/>
        <pt x="364" y="195" on="0"/>
        <pt x="539" y="195" on="1"/>
        <pt x="614" y="195" on="0"/>
        <pt x="735" y="236" on="0"/>
        <pt x="797" y="270" on="1"/>
        <pt x="797" y="51" on="1"/>
        <pt x="666" y="-20" on="0"/>
      </contour>
    </TTGlyph>
    <TTGlyph name="afii10102" xMin="61" yMin="-20" xMax="711" yMax="1135">
      <component glyphName="s" x="0" y="0" flags="0x204"/>
    </TTGlyph>
    <TTGlyph name="afii10103" xMin="104" yMin="0" xMax="393" yMax="1548">
      <component glyphName="i" x="0" y="0" flags="0x204"/>
    </TTGlyph>
    <TTGlyph name="afii10104" xMin="-79" yMin="0" xMax="585" yMax="1532">
      <component glyphName="dotlessi" x="0" y="0" flags="0x204"/>
      <component glyphName="dieresis" x="-312" y="0" flags="0x4"/>
    </TTGlyph>
    <TTGlyph name="afii10105" xMin="-59" yMin="-492" xMax="399" yMax="1548">
      <component glyphName="j" x="0" y="0" flags="0x204"/>
    </TTGlyph>
    <TTGlyph name="afii10106" xMin="0" yMin="-18" xMax="1450" yMax="1114">
      <contour>
        <pt x="922" y="678" on="1"/>
        <pt x="1016" y="678" on="1"/>
        <pt x="1239" y="678" on="0"/>
        <pt x="1450" y="516" on="0"/>
        <pt x="1450" y="352" on="1"/>
        <pt x="1450" y="0" on="0"/>
        <pt x="1008" y="0" on="1"/>
        <pt x="653" y="0" on="1"/>
        <pt x="653" y="899" on="1"/>
        <pt x="504" y="899" on="1"/>
        <pt x="484" y="560" on="0"/>
        <pt x="395" y="162" on="0"/>
        <pt x="246" y="-18" on="0"/>
        <pt x="123" y="-18" on="1"/>
        <pt x="48" y="-18" on="0"/>
        <pt x="0" y="4" on="1"/>
        <pt x="0" y="223" on="1"/>
        <pt x="30" y="213" on="0"/>
        <pt x="61" y="213" on="1"/>
        <pt x="145" y="213" on="0"/>
        <pt x="239" y="642" on="0"/>
        <pt x="264" y="1114" on="1"/>
        <pt x="922" y="1114" on="1"/>
      </contour>
      <contour>
        <pt x="1176" y="346" on="1"/>
        <pt x="1176" y="417" on="0"/>
        <pt x="1090" y="479" on="0"/>
        <pt x="997" y="479" on="1"/>
        <pt x="922" y="479" on="1"/>
        <pt x="922" y="199" on="1"/>
        <pt x="1001" y="199" on="1"/>
        <pt x="1086" y="199" on="0"/>
        <pt x="1176" y="266" on="0"/>
      </contour>
    </TTGlyph>
    <TTGlyph name="afii10107" xMin="113" yMin="0" xMax="1446" yMax="1114">
      <contour>
        <pt x="915" y="678" on="1"/>
        <pt x="1012" y="678" on="1"/>
        <pt x="1233" y="678" on="0"/>
        <pt x="1446" y="516" on="0"/>
        <pt x="1446" y="352" on="1"/>
        <pt x="1446" y="0" on="0"/>
        <pt x="1004" y="0" on="1"/>
        <pt x="647" y="0" on="1"/>
        <pt x="647" y="467" on="1"/>
        <pt x="379" y="467" on="1"/>
        <pt x="379" y="0" on="1"/>
        <pt x="113" y="0" on="1"/>
        <pt x="113" y="1114" on="1"/>
        <pt x="379" y="1114" on="1"/>
        <pt x="379" y="680" on="1"/>
        <pt x="647" y="680" on="1"/>
        <pt x="647" y="1114" on="1"/>
        <pt x="915" y="1114" on="1"/>
      </contour>
      <contour>
        <pt x="1171" y="346" on="1"/>
        <pt x="1171" y="417" on="0"/>
        <pt x="1085" y="479" on="0"/>
        <pt x="991" y="479" on="1"/>
        <pt x="915" y="479" on="1"/>
        <pt x="915" y="199" on="1"/>
        <pt x="995" y="199" on="1"/>
        <pt x="1080" y="199" on="0"/>
        <pt x="1171" y="266" on="0"/>
      </contour>
    </TTGlyph>
    <TTGlyph name="afii10108" xMin="-12" yMin="0" xMax="936" yMax="1556">
      <component glyphName="hbar" x="0" y="0" flags="0x204"/>
    </TTGlyph>
    <TTGlyph name="afii10109" xMin="113" yMin="0" xMax="963" yMax="1569">
      <component glyphName="afii10076" x="0" y="0" flags="0x204"/>
      <component glyphName="acute" x="68" y="0" flags="0x4"/>
    </TTGlyph>
    <TTGlyph name="afii10110" xMin="0" yMin="-492" xMax="913" yMax="1565">
      <component glyphName="y" x="0" y="0" flags="0x204"/>
      <component glyphName="cyrillicbreve" x="-116" y="0" flags="0x4"/>
    </TTGlyph>
    <TTGlyph name="afii10145" xMin="129" yMin="-418" xMax="1032" yMax="1462">
      <contour>
        <pt x="1032" y="0" on="1"/>
        <pt x="719" y="0" on="1"/>
        <pt x="719" y="-418" on="1"/>
        <pt x="446" y="-418" on="1"/>
        <pt x="446" y="0" on="1"/>
        <pt x="129" y="0" on="1"/>
        <pt x="129" y="1462" on="1"/>
        <pt x="401" y="1462" on="1"/>
        <pt x="401" y="240" on="1"/>
        <pt x="760" y="240" on="1"/>
        <pt x="760" y="1462" on="1"/>
        <pt x="1032" y="1462" on="1"/>
      </contour>
    </TTGlyph>
    <TTGlyph name="afii10193" xMin="113" yMin="-397" xMax="946" yMax="1114">
      <contour>
        <pt x="113" y="0" on="1"/>
        <pt x="113" y="1114" on="1"/>
        <pt x="379" y="1114" on="1"/>
        <pt x="379" y="215" on="1"/>
        <pt x="678" y="215" on="1"/>
        <pt x="678" y="1114" on="1"/>
        <pt x="946" y="1114" on="1"/>
        <pt x="946" y="0" on="1"/>
        <pt x="662" y="0" on="1"/>
        <pt x="662" y="-397" on="1"/>
        <pt x="397" y="-397" on="1"/>
        <pt x="397" y="0" on="1"/>
      </contour>
    </TTGlyph>
    <TTGlyph name="afii61248" xMin="121" yMin="-18" xMax="1370" yMax="1473">
      <contour>
        <pt x="1120" y="1462" on="1"/>
        <pt x="516" y="0" on="1"/>
        <pt x="307" y="0" on="1"/>
        <pt x="911" y="1462" on="1"/>
      </contour>
      <contour>
        <pt x="1370" y="342" on="1"/>
        <pt x="1370" y="175" on="0"/>
        <pt x="1221" y="-18" on="0"/>
        <pt x="1087" y="-18" on="1"/>
        <pt x="963" y="-18" on="0"/>
        <pt x="809" y="177" on="0"/>
        <pt x="809" y="342" on="1"/>
        <pt x="809" y="509" on="0"/>
        <pt x="959" y="700" on="0"/>
        <pt x="1092" y="700" on="1"/>
        <pt x="1217" y="700" on="0"/>
        <pt x="1370" y="503" on="0"/>
      </contour>
      <contour>
        <pt x="1008" y="342" on="1"/>
        <pt x="1008" y="242" on="0"/>
        <pt x="1045" y="135" on="0"/>
        <pt x="1090" y="135" on="1"/>
        <pt x="1171" y="135" on="0"/>
        <pt x="1171" y="342" on="1"/>
        <pt x="1171" y="444" on="0"/>
        <pt x="1133" y="547" on="0"/>
        <pt x="1090" y="547" on="1"/>
        <pt x="1045" y="547" on="0"/>
        <pt x="1008" y="444" on="0"/>
      </contour>
      <contour>
        <pt x="406" y="762" on="1"/>
        <pt x="271" y="762" on="0"/>
        <pt x="121" y="946" on="0"/>
        <pt x="121" y="1114" on="1"/>
        <pt x="121" y="1286" on="0"/>
        <pt x="266" y="1473" on="0"/>
        <pt x="408" y="1473" on="1"/>
        <pt x="498" y="1473" on="0"/>
        <pt x="575" y="1425" on="1"/>
        <pt x="539" y="1280" on="1"/>
        <pt x="472" y="1319" on="0"/>
        <pt x="426" y="1319" on="1"/>
        <pt x="319" y="1319" on="0"/>
        <pt x="319" y="1116" on="1"/>
        <pt x="319" y="918" on="0"/>
        <pt x="422" y="918" on="1"/>
        <pt x="504" y="918" on="0"/>
        <pt x="561" y="958" on="1"/>
        <pt x="561" y="805" on="1"/>
        <pt x="495" y="762" on="0"/>
      </contour>
    </TTGlyph>
    <TTGlyph name="afii61289" xMin="51" yMin="-18" xMax="934" yMax="1481">
      <contour>
        <pt x="618" y="176" on="1"/>
        <pt x="670" y="176" on="0"/>
        <pt x="743" y="275" on="0"/>
        <pt x="748" y="379" on="1"/>
        <pt x="934" y="379" on="1"/>
        <pt x="923" y="170" on="0"/>
        <pt x="755" y="-18" on="0"/>
        <pt x="588" y="-18" on="1"/>
        <pt x="419" y="-18" on="0"/>
        <pt x="236" y="188" on="0"/>
        <pt x="236" y="375" on="1"/>
        <pt x="236" y="522" on="1"/>
        <pt x="51" y="471" on="1"/>
        <pt x="51" y="653" on="1"/>
        <pt x="123" y="671" on="0"/>
        <pt x="236" y="709" on="1"/>
        <pt x="236" y="1137" on="1"/>
        <pt x="236" y="1314" on="0"/>
        <pt x="407" y="1481" on="0"/>
        <pt x="582" y="1481" on="1"/>
        <pt x="728" y="1481" on="0"/>
        <pt x="895" y="1308" on="0"/>
        <pt x="895" y="1161" on="1"/>
        <pt x="895" y="988" on="0"/>
        <pt x="723" y="746" on="0"/>
        <pt x="504" y="633" on="1"/>
        <pt x="504" y="369" on="1"/>
        <pt x="504" y="276" on="0"/>
        <pt x="562" y="176" on="0"/>
      </contour>
      <contour>
        <pt x="657" y="1155" on="1"/>
        <pt x="657" y="1305" on="0"/>
        <pt x="582" y="1305" on="1"/>
        <pt x="543" y="1305" on="0"/>
        <pt x="504" y="1236" on="0"/>
        <pt x="504" y="1155" on="1"/>
        <pt x="504" y="831" on="1"/>
        <pt x="585" y="878" on="0"/>
        <pt x="657" y="1037" on="0"/>
      </contour>
    </TTGlyph>
    <TTGlyph name="afii61352" xMin="129" yMin="0" xMax="1686" yMax="1462">
      <contour>
        <pt x="1024" y="0" on="1"/>
        <pt x="684" y="0" on="1"/>
        <pt x="354" y="1102" on="1"/>
        <pt x="344" y="1102" on="1"/>
        <pt x="362" y="850" on="0"/>
        <pt x="362" y="715" on="1"/>
        <pt x="362" y="0" on="1"/>
        <pt x="129" y="0" on="1"/>
        <pt x="129" y="1462" on="1"/>
        <pt x="469" y="1462" on="1"/>
        <pt x="795" y="369" on="1"/>
        <pt x="803" y="369" on="1"/>
        <pt x="791" y="649" on="0"/>
        <pt x="791" y="743" on="1"/>
        <pt x="791" y="1462" on="1"/>
        <pt x="1024" y="1462" on="1"/>
      </contour>
      <contour>
        <pt x="1686" y="635" on="1"/>
        <pt x="1686" y="452" on="0"/>
        <pt x="1535" y="274" on="0"/>
        <pt x="1403" y="274" on="1"/>
        <pt x="1120" y="274" on="0"/>
        <pt x="1120" y="635" on="1"/>
        <pt x="1120" y="807" on="0"/>
        <pt x="1268" y="995" on="0"/>
        <pt x="1405" y="995" on="1"/>
        <pt x="1542" y="995" on="0"/>
        <pt x="1686" y="811" on="0"/>
      </contour>
      <contour>
        <pt x="1309" y="635" on="1"/>
        <pt x="1309" y="430" on="0"/>
        <pt x="1403" y="430" on="1"/>
        <pt x="1454" y="430" on="0"/>
        <pt x="1497" y="532" on="0"/>
        <pt x="1497" y="635" on="1"/>
        <pt x="1497" y="740" on="0"/>
        <pt x="1452" y="840" on="0"/>
        <pt x="1403" y="840" on="1"/>
        <pt x="1309" y="840" on="0"/>
      </contour>
      <contour>
        <pt x="1636" y="0" on="1"/>
        <pt x="1171" y="0" on="1"/>
        <pt x="1171" y="180" on="1"/>
        <pt x="1636" y="180" on="1"/>
      </contour>
    </TTGlyph>
    <TTGlyph name="agrave" xMin="55" yMin="-20" xMax="854" yMax="1569">
      <component glyphName="a" x="0" y="0" flags="0x204"/>
      <component glyphName="grave" x="-165" y="0" flags="0x4"/>
    </TTGlyph>
    <TTGlyph name="alpha" xMin="74" yMin="-20" xMax="1026" yMax="1135">
      <contour>
        <pt x="414" y="-20" on="1"/>
        <pt x="251" y="-20" on="0"/>
        <pt x="74" y="262" on="0"/>
        <pt x="74" y="545" on="1"/>
        <pt x="74" y="828" on="0"/>
        <pt x="263" y="1135" on="0"/>
        <pt x="436" y="1135" on="1"/>
        <pt x="520" y="1135" on="0"/>
        <pt x="633" y="1060" on="0"/>
        <pt x="682" y="967" on="1"/>
        <pt x="692" y="967" on="1"/>
        <pt x="711" y="1051" on="0"/>
        <pt x="752" y="1116" on="1"/>
        <pt x="971" y="1116" on="1"/>
        <pt x="945" y="1045" on="0"/>
        <pt x="905" y="785" on="0"/>
        <pt x="905" y="664" on="1"/>
        <pt x="905" y="332" on="1"/>
        <pt x="905" y="268" on="0"/>
        <pt x="936" y="215" on="0"/>
        <pt x="973" y="215" on="1"/>
        <pt x="999" y="215" on="0"/>
        <pt x="1026" y="225" on="1"/>
        <pt x="1026" y="6" on="1"/>
        <pt x="1010" y="-4" on="0"/>
        <pt x="930" y="-20" on="0"/>
        <pt x="903" y="-20" on="1"/>
        <pt x="814" y="-20" on="0"/>
        <pt x="712" y="60" on="0"/>
        <pt x="688" y="147" on="1"/>
        <pt x="680" y="147" on="1"/>
        <pt x="585" y="-20" on="0"/>
      </contour>
      <contour>
        <pt x="487" y="205" on="1"/>
        <pt x="569" y="205" on="0"/>
        <pt x="637" y="352" on="0"/>
        <pt x="637" y="530" on="1"/>
        <pt x="637" y="555" on="1"/>
        <pt x="637" y="751" on="0"/>
        <pt x="566" y="905" on="0"/>
        <pt x="489" y="905" on="1"/>
        <pt x="348" y="905" on="0"/>
        <pt x="348" y="551" on="1"/>
        <pt x="348" y="378" on="0"/>
        <pt x="415" y="205" on="0"/>
      </contour>
    </TTGlyph>
    <TTGlyph name="alphatonos" xMin="74" yMin="-20" xMax="1026" yMax="1567">
      <component glyphName="alpha" x="0" y="0" flags="0x204"/>
      <component glyphName="tonos" x="-9" y="0" flags="0x4"/>
    </TTGlyph>
    <TTGlyph name="amacron" xMin="55" yMin="-20" xMax="854" yMax="1475">
      <component glyphName="a" x="0" y="0" flags="0x204"/>
      <component glyphName="macron" x="-46" y="0" flags="0x4"/>
    </TTGlyph>
    <TTGlyph name="ampersand" xMin="59" yMin="-20" xMax="1171" yMax="1483">
      <contour>
        <pt x="872" y="0" on="1"/>
        <pt x="801" y="102" on="1"/>
        <pt x="665" y="-20" on="0"/>
        <pt x="463" y="-20" on="1"/>
        <pt x="271" y="-20" on="0"/>
        <pt x="59" y="198" on="0"/>
        <pt x="59" y="391" on="1"/>
        <pt x="59" y="639" on="0"/>
        <pt x="303" y="807" on="1"/>
        <pt x="226" y="926" on="0"/>
        <pt x="176" y="1064" on="0"/>
        <pt x="176" y="1141" on="1"/>
        <pt x="176" y="1297" on="0"/>
        <pt x="370" y="1483" on="0"/>
        <pt x="528" y="1483" on="1"/>
        <pt x="680" y="1483" on="0"/>
        <pt x="860" y="1310" on="0"/>
        <pt x="860" y="1157" on="1"/>
        <pt x="860" y="1052" on="0"/>
        <pt x="750" y="863" on="0"/>
        <pt x="621" y="766" on="1"/>
        <pt x="825" y="479" on="1"/>
        <pt x="859" y="541" on="0"/>
        <pt x="897" y="693" on="0"/>
        <pt x="911" y="768" on="1"/>
        <pt x="1143" y="768" on="1"/>
        <pt x="1105" y="488" on="0"/>
        <pt x="977" y="270" on="1"/>
        <pt x="1171" y="0" on="1"/>
      </contour>
      <contour>
        <pt x="328" y="416" on="1"/>
        <pt x="328" y="323" on="0"/>
        <pt x="416" y="217" on="0"/>
        <pt x="492" y="217" on="1"/>
        <pt x="592" y="217" on="0"/>
        <pt x="668" y="291" on="1"/>
        <pt x="428" y="637" on="1"/>
        <pt x="328" y="547" on="0"/>
      </contour>
      <contour>
        <pt x="614" y="1133" on="1"/>
        <pt x="614" y="1198" on="0"/>
        <pt x="561" y="1257" on="0"/>
        <pt x="524" y="1257" on="1"/>
        <pt x="478" y="1257" on="0"/>
        <pt x="424" y="1192" on="0"/>
        <pt x="424" y="1130" on="1"/>
        <pt x="424" y="1075" on="0"/>
        <pt x="471" y="982" on="0"/>
        <pt x="506" y="934" on="1"/>
        <pt x="567" y="981" on="0"/>
        <pt x="614" y="1069" on="0"/>
      </contour>
    </TTGlyph>
    <TTGlyph name="anoteleia" xMin="111" yMin="559" xMax="442" yMax="887">
      <component glyphName="periodcentered" x="0" y="0" flags="0x204"/>
    </TTGlyph>
    <TTGlyph name="aogonek" xMin="55" yMin="-483" xMax="887" yMax="1137">
      <component glyphName="a" x="0" y="0" flags="0x204"/>
      <component glyphName="ogonek" x="506" y="0" flags="0x4"/>
    </TTGlyph>
    <TTGlyph name="approxequal" xMin="74" yMin="365" xMax="844" yMax="1086">
      <component glyphName="asciitilde" x="0" y="-192" flags="0x4"/>
      <component glyphName="asciitilde" x="0" y="199" flags="0x4"/>
    </TTGlyph>
    <TTGlyph name="aring" xMin="55" yMin="-20" xMax="854" yMax="1706">
      <component glyphName="a" x="0" y="0" flags="0x204"/>
      <component glyphName="ring" x="-62" y="0" flags="0x4"/>
    </TTGlyph>
    <TTGlyph name="aringacute" xMin="55" yMin="-20" xMax="870" yMax="1962">
      <contour>
        <pt x="379" y="1743" on="1"/>
        <pt x="379" y="1759" on="1"/>
        <pt x="428" y="1805" on="0"/>
        <pt x="525" y="1923" on="0"/>
        <pt x="553" y="1962" on="1"/>
        <pt x="870" y="1962" on="1"/>
        <pt x="870" y="1950" on="1"/>
        <pt x="842" y="1919" on="0"/>
        <pt x="650" y="1787" on="0"/>
        <pt x="565" y="1743" on="1"/>
      </contour>
      <contour>
        <pt x="659" y="0" on="1"/>
        <pt x="608" y="152" on="1"/>
        <pt x="600" y="152" on="1"/>
        <pt x="541" y="54" on="0"/>
        <pt x="415" y="-20" on="0"/>
        <pt x="319" y="-20" on="1"/>
        <pt x="196" y="-20" on="0"/>
        <pt x="55" y="164" on="0"/>
        <pt x="55" y="328" on="1"/>
        <pt x="55" y="504" on="0"/>
        <pt x="248" y="675" on="0"/>
        <pt x="440" y="684" on="1"/>
        <pt x="586" y="690" on="1"/>
        <pt x="586" y="768" on="1"/>
        <pt x="586" y="926" on="0"/>
        <pt x="453" y="926" on="1"/>
        <pt x="355" y="926" on="0"/>
        <pt x="225" y="848" on="1"/>
        <pt x="131" y="1032" on="1"/>
        <pt x="297" y="1137" on="0"/>
        <pt x="492" y="1137" on="1"/>
        <pt x="669" y="1137" on="0"/>
        <pt x="854" y="934" on="0"/>
        <pt x="854" y="748" on="1"/>
        <pt x="854" y="0" on="1"/>
      </contour>
      <contour>
        <pt x="588" y="522" on="1"/>
        <pt x="506" y="518" on="1"/>
        <pt x="417" y="513" on="0"/>
        <pt x="330" y="419" on="0"/>
        <pt x="330" y="326" on="1"/>
        <pt x="330" y="188" on="0"/>
        <pt x="428" y="188" on="1"/>
        <pt x="501" y="188" on="0"/>
        <pt x="588" y="319" on="0"/>
        <pt x="588" y="428" on="1"/>
      </contour>
      <contour>
        <pt x="741" y="1458" on="1"/>
        <pt x="741" y="1352" on="0"/>
        <pt x="602" y="1223" on="0"/>
        <pt x="492" y="1223" on="1"/>
        <pt x="382" y="1223" on="0"/>
        <pt x="250" y="1349" on="0"/>
        <pt x="250" y="1456" on="1"/>
        <pt x="250" y="1565" on="0"/>
        <pt x="383" y="1690" on="0"/>
        <pt x="492" y="1690" on="1"/>
        <pt x="602" y="1690" on="0"/>
        <pt x="741" y="1561" on="0"/>
      </contour>
      <contour>
        <pt x="592" y="1456" on="1"/>
        <pt x="592" y="1503" on="0"/>
        <pt x="535" y="1554" on="0"/>
        <pt x="492" y="1554" on="1"/>
        <pt x="448" y="1554" on="0"/>
        <pt x="393" y="1503" on="0"/>
        <pt x="393" y="1456" on="1"/>
        <pt x="393" y="1410" on="0"/>
        <pt x="442" y="1356" on="0"/>
        <pt x="492" y="1356" on="1"/>
        <pt x="535" y="1356" on="0"/>
        <pt x="592" y="1410" on="0"/>
      </contour>
    </TTGlyph>
    <TTGlyph name="asciicircum" xMin="14" yMin="526" xMax="1079" yMax="1470">
      <contour>
        <pt x="14" y="526" on="1"/>
        <pt x="451" y="1470" on="1"/>
        <pt x="586" y="1470" on="1"/>
        <pt x="1079" y="526" on="1"/>
        <pt x="854" y="526" on="1"/>
        <pt x="524" y="1186" on="1"/>
        <pt x="236" y="526" on="1"/>
      </contour>
    </TTGlyph>
    <TTGlyph name="asciitilde" xMin="74" yMin="557" xMax="844" yMax="887">
      <contour>
        <pt x="264" y="678" on="1"/>
        <pt x="176" y="678" on="0"/>
        <pt x="74" y="557" on="1"/>
        <pt x="74" y="776" on="1"/>
        <pt x="164" y="885" on="0"/>
        <pt x="281" y="885" on="1"/>
        <pt x="324" y="885" on="0"/>
        <pt x="399" y="864" on="0"/>
        <pt x="485" y="821" on="1"/>
        <pt x="552" y="787" on="0"/>
        <pt x="616" y="766" on="0"/>
        <pt x="657" y="766" on="1"/>
        <pt x="744" y="766" on="0"/>
        <pt x="844" y="887" on="1"/>
        <pt x="844" y="668" on="1"/>
        <pt x="763" y="559" on="0"/>
        <pt x="637" y="559" on="1"/>
        <pt x="586" y="559" on="0"/>
        <pt x="489" y="592" on="0"/>
        <pt x="430" y="623" on="1"/>
        <pt x="348" y="664" on="0"/>
        <pt x="296" y="678" on="0"/>
      </contour>
    </TTGlyph>
    <TTGlyph name="asterisk" xMin="53" yMin="737" xMax="901" yMax="1556">
      <contour>
        <pt x="594" y="1556" on="1"/>
        <pt x="557" y="1249" on="1"/>
        <pt x="868" y="1335" on="1"/>
        <pt x="901" y="1110" on="1"/>
        <pt x="616" y="1092" on="1"/>
        <pt x="801" y="846" on="1"/>
        <pt x="602" y="737" on="1"/>
        <pt x="473" y="997" on="1"/>
        <pt x="356" y="737" on="1"/>
        <pt x="152" y="846" on="1"/>
        <pt x="334" y="1092" on="1"/>
        <pt x="53" y="1114" on="1"/>
        <pt x="90" y="1335" on="1"/>
        <pt x="393" y="1249" on="1"/>
        <pt x="356" y="1556" on="1"/>
      </contour>
    </TTGlyph>
    <TTGlyph name="at" xMin="74" yMin="-168" xMax="1411" yMax="1477">
      <contour>
        <pt x="1411" y="748" on="1"/>
        <pt x="1411" y="504" on="0"/>
        <pt x="1246" y="231" on="0"/>
        <pt x="1098" y="231" on="1"/>
        <pt x="1029" y="231" on="0"/>
        <pt x="925" y="308" on="0"/>
        <pt x="909" y="371" on="1"/>
        <pt x="901" y="371" on="1"/>
        <pt x="867" y="308" on="0"/>
        <pt x="761" y="231" on="0"/>
        <pt x="692" y="231" on="1"/>
        <pt x="569" y="231" on="0"/>
        <pt x="430" y="416" on="0"/>
        <pt x="430" y="604" on="1"/>
        <pt x="430" y="827" on="0"/>
        <pt x="627" y="1094" on="0"/>
        <pt x="793" y="1094" on="1"/>
        <pt x="911" y="1094" on="0"/>
        <pt x="1049" y="1051" on="1"/>
        <pt x="1028" y="585" on="1"/>
        <pt x="1028" y="547" on="1"/>
        <pt x="1028" y="465" on="0"/>
        <pt x="1063" y="403" on="0"/>
        <pt x="1100" y="403" on="1"/>
        <pt x="1150" y="403" on="0"/>
        <pt x="1208" y="590" on="0"/>
        <pt x="1208" y="750" on="1"/>
        <pt x="1208" y="1024" on="0"/>
        <pt x="988" y="1298" on="0"/>
        <pt x="786" y="1298" on="1"/>
        <pt x="637" y="1298" on="0"/>
        <pt x="405" y="1122" on="0"/>
        <pt x="279" y="803" on="0"/>
        <pt x="279" y="604" on="1"/>
        <pt x="279" y="325" on="0"/>
        <pt x="524" y="12" on="0"/>
        <pt x="739" y="12" on="1"/>
        <pt x="917" y="12" on="0"/>
        <pt x="1104" y="102" on="1"/>
        <pt x="1104" y="-80" on="1"/>
        <pt x="939" y="-168" on="0"/>
        <pt x="737" y="-168" on="1"/>
        <pt x="535" y="-168" on="0"/>
        <pt x="234" y="15" on="0"/>
        <pt x="74" y="361" on="0"/>
        <pt x="74" y="594" on="1"/>
        <pt x="74" y="854" on="0"/>
        <pt x="253" y="1258" on="0"/>
        <pt x="581" y="1477" on="0"/>
        <pt x="791" y="1477" on="1"/>
        <pt x="1085" y="1477" on="0"/>
        <pt x="1411" y="1093" on="0"/>
      </contour>
      <contour>
        <pt x="637" y="604" on="1"/>
        <pt x="637" y="508" on="0"/>
        <pt x="682" y="403" on="0"/>
        <pt x="725" y="403" on="1"/>
        <pt x="775" y="403" on="0"/>
        <pt x="823" y="540" on="0"/>
        <pt x="831" y="682" on="1"/>
        <pt x="844" y="911" on="1"/>
        <pt x="820" y="922" on="0"/>
        <pt x="782" y="922" on="1"/>
        <pt x="717" y="922" on="0"/>
        <pt x="637" y="742" on="0"/>
      </contour>
    </TTGlyph>
    <TTGlyph name="atilde" xMin="55" yMin="-20" xMax="855" yMax="1542">
      <component glyphName="a" x="0" y="0" flags="0x204"/>
      <component glyphName="tilde" x="-60" y="0" flags="0x4"/>
    </TTGlyph>
    <TTGlyph name="b" xMin="113" yMin="-20" xMax="942" yMax="1556">
      <contour>
        <pt x="616" y="1135" on="1"/>
        <pt x="768" y="1135" on="0"/>
        <pt x="942" y="833" on="0"/>
        <pt x="942" y="559" on="1"/>
        <pt x="942" y="282" on="0"/>
        <pt x="767" y="-20" on="0"/>
        <pt x="612" y="-20" on="1"/>
        <pt x="537" y="-20" on="0"/>
        <pt x="422" y="45" on="0"/>
        <pt x="371" y="127" on="1"/>
        <pt x="354" y="127" on="1"/>
        <pt x="309" y="0" on="1"/>
        <pt x="113" y="0" on="1"/>
        <pt x="113" y="1556" on="1"/>
        <pt x="379" y="1556" on="1"/>
        <pt x="379" y="1192" on="1"/>
        <pt x="379" y="1169" on="0"/>
        <pt x="377" y="1119" on="0"/>
        <pt x="365" y="969" on="1"/>
        <pt x="379" y="969" on="1"/>
        <pt x="428" y="1061" on="0"/>
        <pt x="542" y="1135" on="0"/>
      </contour>
      <contour>
        <pt x="524" y="909" on="1"/>
        <pt x="448" y="909" on="0"/>
        <pt x="381" y="767" on="0"/>
        <pt x="379" y="588" on="1"/>
        <pt x="379" y="561" on="1"/>
        <pt x="379" y="367" on="0"/>
        <pt x="448" y="209" on="0"/>
        <pt x="526" y="209" on="1"/>
        <pt x="670" y="209" on="0"/>
        <pt x="670" y="563" on="1"/>
        <pt x="670" y="909" on="0"/>
      </contour>
    </TTGlyph>
    <TTGlyph name="backslash" xMin="14" yMin="0" xMax="817" yMax="1462">
      <contour>
        <pt x="272" y="1462" on="1"/>
        <pt x="817" y="0" on="1"/>
        <pt x="559" y="0" on="1"/>
        <pt x="14" y="1462" on="1"/>
      </contour>
    </TTGlyph>
    <TTGlyph name="bar" xMin="416" yMin="-471" xMax="623" yMax="1552">
      <contour>
        <pt x="416" y="1552" on="1"/>
        <pt x="623" y="1552" on="1"/>
        <pt x="623" y="-471" on="1"/>
        <pt x="416" y="-471" on="1"/>
      </contour>
    </TTGlyph>
    <TTGlyph name="beta" xMin="113" yMin="-492" xMax="1001" yMax="1567">
      <contour>
        <pt x="539" y="1567" on="1"/>
        <pt x="730" y="1567" on="0"/>
        <pt x="944" y="1359" on="0"/>
        <pt x="944" y="1174" on="1"/>
        <pt x="944" y="1036" on="0"/>
        <pt x="818" y="866" on="0"/>
        <pt x="682" y="821" on="1"/>
        <pt x="682" y="813" on="1"/>
        <pt x="842" y="787" on="0"/>
        <pt x="1001" y="610" on="0"/>
        <pt x="1001" y="444" on="1"/>
        <pt x="1001" y="226" on="0"/>
        <pt x="798" y="-20" on="0"/>
        <pt x="616" y="-20" on="1"/>
        <pt x="535" y="-20" on="0"/>
        <pt x="425" y="12" on="0"/>
        <pt x="379" y="43" on="1"/>
        <pt x="379" y="-492" on="1"/>
        <pt x="113" y="-492" on="1"/>
        <pt x="113" y="1096" on="1"/>
        <pt x="113" y="1325" on="0"/>
        <pt x="330" y="1567" on="0"/>
      </contour>
      <contour>
        <pt x="537" y="1346" on="1"/>
        <pt x="453" y="1346" on="0"/>
        <pt x="379" y="1210" on="0"/>
        <pt x="379" y="1077" on="1"/>
        <pt x="379" y="266" on="1"/>
        <pt x="460" y="205" on="0"/>
        <pt x="547" y="205" on="1"/>
        <pt x="727" y="205" on="0"/>
        <pt x="727" y="453" on="1"/>
        <pt x="727" y="571" on="0"/>
        <pt x="620" y="694" on="0"/>
        <pt x="520" y="694" on="1"/>
        <pt x="477" y="694" on="1"/>
        <pt x="477" y="920" on="1"/>
        <pt x="520" y="920" on="1"/>
        <pt x="595" y="920" on="0"/>
        <pt x="678" y="1038" on="0"/>
        <pt x="678" y="1143" on="1"/>
        <pt x="678" y="1246" on="0"/>
        <pt x="602" y="1346" on="0"/>
      </contour>
    </TTGlyph>
    <TTGlyph name="braceleft" xMin="25" yMin="-324" xMax="705" yMax="1462">
      <contour>
        <pt x="283" y="276" on="1"/>
        <pt x="283" y="375" on="0"/>
        <pt x="149" y="457" on="0"/>
        <pt x="25" y="457" on="1"/>
        <pt x="25" y="680" on="1"/>
        <pt x="149" y="680" on="0"/>
        <pt x="283" y="760" on="0"/>
        <pt x="283" y="852" on="1"/>
        <pt x="283" y="860" on="1"/>
        <pt x="283" y="1180" on="1"/>
        <pt x="283" y="1288" on="0"/>
        <pt x="366" y="1407" on="0"/>
        <pt x="549" y="1462" on="0"/>
        <pt x="705" y="1462" on="1"/>
        <pt x="705" y="1251" on="1"/>
        <pt x="604" y="1248" on="0"/>
        <pt x="530" y="1179" on="0"/>
        <pt x="530" y="1106" on="1"/>
        <pt x="530" y="803" on="1"/>
        <pt x="527" y="609" on="0"/>
        <pt x="299" y="575" on="1"/>
        <pt x="299" y="563" on="1"/>
        <pt x="530" y="529" on="0"/>
        <pt x="530" y="348" on="1"/>
        <pt x="530" y="336" on="1"/>
        <pt x="530" y="33" on="1"/>
        <pt x="530" y="-40" on="0"/>
        <pt x="603" y="-110" on="0"/>
        <pt x="705" y="-113" on="1"/>
        <pt x="705" y="-324" on="1"/>
        <pt x="547" y="-324" on="0"/>
        <pt x="366" y="-269" on="0"/>
        <pt x="283" y="-149" on="0"/>
        <pt x="283" y="-41" on="1"/>
      </contour>
    </TTGlyph>
    <TTGlyph name="braceright" xMin="33" yMin="-324" xMax="713" yMax="1462">
      <contour>
        <pt x="457" y="-41" on="1"/>
        <pt x="457" y="-197" on="0"/>
        <pt x="266" y="-324" on="0"/>
        <pt x="33" y="-324" on="1"/>
        <pt x="33" y="-113" on="1"/>
        <pt x="135" y="-110" on="0"/>
        <pt x="209" y="-41" on="0"/>
        <pt x="209" y="33" on="1"/>
        <pt x="209" y="336" on="1"/>
        <pt x="209" y="345" on="1"/>
        <pt x="209" y="436" on="0"/>
        <pt x="328" y="546" on="0"/>
        <pt x="442" y="563" on="1"/>
        <pt x="442" y="575" on="1"/>
        <pt x="213" y="609" on="0"/>
        <pt x="209" y="803" on="1"/>
        <pt x="209" y="1106" on="1"/>
        <pt x="209" y="1180" on="0"/>
        <pt x="135" y="1248" on="0"/>
        <pt x="33" y="1251" on="1"/>
        <pt x="33" y="1462" on="1"/>
        <pt x="267" y="1462" on="0"/>
        <pt x="457" y="1335" on="0"/>
        <pt x="457" y="1180" on="1"/>
        <pt x="457" y="860" on="1"/>
        <pt x="457" y="852" on="1"/>
        <pt x="457" y="760" on="0"/>
        <pt x="588" y="680" on="0"/>
        <pt x="713" y="680" on="1"/>
        <pt x="713" y="457" on="1"/>
        <pt x="588" y="457" on="0"/>
        <pt x="457" y="375" on="0"/>
        <pt x="457" y="276" on="1"/>
      </contour>
    </TTGlyph>
    <TTGlyph name="bracketleft" xMin="133" yMin="-324" xMax="602" yMax="1462">
      <contour>
        <pt x="602" y="-324" on="1"/>
        <pt x="133" y="-324" on="1"/>
        <pt x="133" y="1462" on="1"/>
        <pt x="602" y="1462" on="1"/>
        <pt x="602" y="1264" on="1"/>
        <pt x="379" y="1264" on="1"/>
        <pt x="379" y="-125" on="1"/>
        <pt x="602" y="-125" on="1"/>
      </contour>
    </TTGlyph>
    <TTGlyph name="bracketright" xMin="47" yMin="-324" xMax="516" yMax="1462">
      <contour>
        <pt x="47" y="-125" on="1"/>
        <pt x="270" y="-125" on="1"/>
        <pt x="270" y="1264" on="1"/>
        <pt x="47" y="1264" on="1"/>
        <pt x="47" y="1462" on="1"/>
        <pt x="516" y="1462" on="1"/>
        <pt x="516" y="-324" on="1"/>
        <pt x="47" y="-324" on="1"/>
      </contour>
    </TTGlyph>
    <TTGlyph name="breve" xMin="252" yMin="1241" xMax="872" yMax="1567">
      <contour>
        <pt x="872" y="1567" on="1"/>
        <pt x="861" y="1410" on="0"/>
        <pt x="698" y="1241" on="0"/>
        <pt x="559" y="1241" on="1"/>
        <pt x="413" y="1241" on="0"/>
        <pt x="258" y="1412" on="0"/>
        <pt x="252" y="1567" on="1"/>
        <pt x="412" y="1567" on="1"/>
        <pt x="419" y="1496" on="0"/>
        <pt x="478" y="1442" on="0"/>
        <pt x="561" y="1442" on="1"/>
        <pt x="639" y="1442" on="0"/>
        <pt x="701" y="1499" on="0"/>
        <pt x="711" y="1567" on="1"/>
      </contour>
    </TTGlyph>
    <TTGlyph name="breveacutecomb" xMin="-1051" yMin="1241" xMax="-360" yMax="1729">
      <contour>
        <pt x="-803" y="1528" on="1"/>
        <pt x="-725" y="1643" on="0"/>
        <pt x="-684" y="1729" on="1"/>
        <pt x="-471" y="1729" on="1"/>
        <pt x="-471" y="1708" on="1"/>
        <pt x="-556" y="1603" on="0"/>
        <pt x="-682" y="1501" on="1"/>
        <pt x="-803" y="1501" on="1"/>
      </contour>
      <contour>
        <pt x="-360" y="1565" on="1"/>
        <pt x="-371" y="1407" on="0"/>
        <pt x="-545" y="1241" on="0"/>
        <pt x="-702" y="1241" on="1"/>
        <pt x="-858" y="1241" on="0"/>
        <pt x="-1040" y="1411" on="0"/>
        <pt x="-1051" y="1565" on="1"/>
        <pt x="-907" y="1565" on="1"/>
        <pt x="-898" y="1483" on="0"/>
        <pt x="-788" y="1403" on="0"/>
        <pt x="-705" y="1403" on="1"/>
        <pt x="-623" y="1403" on="0"/>
        <pt x="-512" y="1480" on="0"/>
        <pt x="-504" y="1565" on="1"/>
      </contour>
    </TTGlyph>
    <TTGlyph name="brevegravecomb" xMin="-1051" yMin="1241" xMax="-360" yMax="1729">
      <contour>
        <pt x="-616" y="1501" on="1"/>
        <pt x="-739" y="1501" on="1"/>
        <pt x="-870" y="1607" on="0"/>
        <pt x="-948" y="1708" on="1"/>
        <pt x="-948" y="1729" on="1"/>
        <pt x="-735" y="1729" on="1"/>
        <pt x="-683" y="1621" on="0"/>
        <pt x="-616" y="1528" on="1"/>
      </contour>
      <contour>
        <pt x="-907" y="1565" on="1"/>
        <pt x="-898" y="1483" on="0"/>
        <pt x="-788" y="1403" on="0"/>
        <pt x="-705" y="1403" on="1"/>
        <pt x="-623" y="1403" on="0"/>
        <pt x="-512" y="1480" on="0"/>
        <pt x="-504" y="1565" on="1"/>
        <pt x="-360" y="1565" on="1"/>
        <pt x="-371" y="1407" on="0"/>
        <pt x="-545" y="1241" on="0"/>
        <pt x="-702" y="1241" on="1"/>
        <pt x="-858" y="1241" on="0"/>
        <pt x="-1040" y="1411" on="0"/>
        <pt x="-1051" y="1565" on="1"/>
      </contour>
    </TTGlyph>
    <TTGlyph name="brevehookcomb" xMin="-1051" yMin="1241" xMax="-360" yMax="1798">
      <contour>
        <pt x="-557" y="1661" on="1"/>
        <pt x="-557" y="1563" on="0"/>
        <pt x="-666" y="1528" on="1"/>
        <pt x="-672" y="1487" on="1"/>
        <pt x="-774" y="1487" on="1"/>
        <pt x="-784" y="1593" on="1"/>
        <pt x="-729" y="1603" on="0"/>
        <pt x="-688" y="1630" on="0"/>
        <pt x="-688" y="1655" on="1"/>
        <pt x="-688" y="1700" on="0"/>
        <pt x="-756" y="1700" on="1"/>
        <pt x="-807" y="1700" on="0"/>
        <pt x="-836" y="1692" on="1"/>
        <pt x="-836" y="1792" on="1"/>
        <pt x="-814" y="1798" on="0"/>
        <pt x="-745" y="1798" on="1"/>
        <pt x="-657" y="1798" on="0"/>
        <pt x="-557" y="1730" on="0"/>
      </contour>
      <contour>
        <pt x="-702" y="1241" on="1"/>
        <pt x="-858" y="1241" on="0"/>
        <pt x="-1040" y="1411" on="0"/>
        <pt x="-1051" y="1565" on="1"/>
        <pt x="-907" y="1565" on="1"/>
        <pt x="-898" y="1483" on="0"/>
        <pt x="-788" y="1403" on="0"/>
        <pt x="-705" y="1403" on="1"/>
        <pt x="-623" y="1403" on="0"/>
        <pt x="-512" y="1480" on="0"/>
        <pt x="-504" y="1565" on="1"/>
        <pt x="-360" y="1565" on="1"/>
        <pt x="-371" y="1407" on="0"/>
        <pt x="-545" y="1241" on="0"/>
      </contour>
    </TTGlyph>
    <TTGlyph name="brevetildecomb" xMin="-1051" yMin="1241" xMax="-356" yMax="1808">
      <contour>
        <pt x="-553" y="1587" on="1"/>
        <pt x="-589" y="1587" on="0"/>
        <pt x="-663" y="1613" on="0"/>
        <pt x="-735" y="1643" on="0"/>
        <pt x="-801" y="1669" on="0"/>
        <pt x="-829" y="1669" on="1"/>
        <pt x="-870" y="1669" on="0"/>
        <pt x="-913" y="1632" on="0"/>
        <pt x="-926" y="1585" on="1"/>
        <pt x="-1034" y="1585" on="1"/>
        <pt x="-1026" y="1687" on="0"/>
        <pt x="-924" y="1806" on="0"/>
        <pt x="-838" y="1806" on="1"/>
        <pt x="-800" y="1806" on="0"/>
        <pt x="-724" y="1780" on="0"/>
        <pt x="-652" y="1748" on="0"/>
        <pt x="-587" y="1722" on="0"/>
        <pt x="-561" y="1722" on="1"/>
        <pt x="-521" y="1722" on="0"/>
        <pt x="-479" y="1759" on="0"/>
        <pt x="-465" y="1808" on="1"/>
        <pt x="-356" y="1808" on="1"/>
        <pt x="-367" y="1704" on="0"/>
        <pt x="-466" y="1587" on="0"/>
      </contour>
      <contour>
        <pt x="-907" y="1532" on="1"/>
        <pt x="-893" y="1403" on="0"/>
        <pt x="-705" y="1403" on="1"/>
        <pt x="-608" y="1403" on="0"/>
        <pt x="-511" y="1467" on="0"/>
        <pt x="-504" y="1532" on="1"/>
        <pt x="-360" y="1532" on="1"/>
        <pt x="-371" y="1392" on="0"/>
        <pt x="-545" y="1241" on="0"/>
        <pt x="-702" y="1241" on="1"/>
        <pt x="-856" y="1241" on="0"/>
        <pt x="-1040" y="1394" on="0"/>
        <pt x="-1051" y="1532" on="1"/>
      </contour>
    </TTGlyph>
    <TTGlyph name="brokenbar" xMin="416" yMin="-471" xMax="623" yMax="1552">
      <contour>
        <pt x="416" y="1552" on="1"/>
        <pt x="623" y="1552" on="1"/>
        <pt x="623" y="743" on="1"/>
        <pt x="416" y="743" on="1"/>
      </contour>
      <contour>
        <pt x="416" y="338" on="1"/>
        <pt x="623" y="338" on="1"/>
        <pt x="623" y="-471" on="1"/>
        <pt x="416" y="-471" on="1"/>
      </contour>
    </TTGlyph>
    <TTGlyph name="bullet" xMin="98" yMin="440" xMax="651" yMax="1055">
      <contour>
        <pt x="98" y="748" on="1"/>
        <pt x="98" y="896" on="0"/>
        <pt x="241" y="1055" on="0"/>
        <pt x="375" y="1055" on="1"/>
        <pt x="507" y="1055" on="0"/>
        <pt x="651" y="894" on="0"/>
        <pt x="651" y="748" on="1"/>
        <pt x="651" y="603" on="0"/>
        <pt x="505" y="440" on="0"/>
        <pt x="375" y="440" on="1"/>
        <pt x="242" y="440" on="0"/>
        <pt x="98" y="602" on="0"/>
      </contour>
    </TTGlyph>
    <TTGlyph name="c" xMin="74" yMin="-20" xMax="729" yMax="1135">
      <contour>
        <pt x="481" y="-20" on="1"/>
        <pt x="282" y="-20" on="0"/>
        <pt x="74" y="270" on="0"/>
        <pt x="74" y="551" on="1"/>
        <pt x="74" y="845" on="0"/>
        <pt x="271" y="1135" on="0"/>
        <pt x="477" y="1135" on="1"/>
        <pt x="539" y="1135" on="0"/>
        <pt x="675" y="1099" on="0"/>
        <pt x="729" y="1065" on="1"/>
        <pt x="653" y="858" on="1"/>
        <pt x="570" y="907" on="0"/>
        <pt x="506" y="907" on="1"/>
        <pt x="421" y="907" on="0"/>
        <pt x="346" y="730" on="0"/>
        <pt x="346" y="553" on="1"/>
        <pt x="346" y="380" on="0"/>
        <pt x="420" y="209" on="0"/>
        <pt x="504" y="209" on="1"/>
        <pt x="604" y="209" on="0"/>
        <pt x="713" y="279" on="1"/>
        <pt x="713" y="45" on="1"/>
        <pt x="608" y="-20" on="0"/>
      </contour>
    </TTGlyph>
    <TTGlyph name="cacute" xMin="74" yMin="-20" xMax="777" yMax="1569">
      <component glyphName="c" x="0" y="0" flags="0x204"/>
      <component glyphName="acute" x="-24" y="0" flags="0x4"/>
    </TTGlyph>
    <TTGlyph name="caron" xMin="211" yMin="1241" xMax="922" yMax="1569">
      <contour>
        <pt x="922" y="1569" on="1"/>
        <pt x="922" y="1542" on="1"/>
        <pt x="757" y="1334" on="0"/>
        <pt x="705" y="1241" on="1"/>
        <pt x="428" y="1241" on="1"/>
        <pt x="384" y="1323" on="0"/>
        <pt x="211" y="1542" on="1"/>
        <pt x="211" y="1569" on="1"/>
        <pt x="379" y="1569" on="1"/>
        <pt x="474" y="1500" on="0"/>
        <pt x="569" y="1391" on="1"/>
        <pt x="662" y="1494" on="0"/>
        <pt x="754" y="1569" on="1"/>
      </contour>
    </TTGlyph>
    <TTGlyph name="caroncommaaccent" xMin="324" yMin="1229" xMax="647" yMax="1556">
      <contour>
        <pt x="324" y="1255" on="1"/>
        <pt x="369" y="1424" on="0"/>
        <pt x="385" y="1556" on="1"/>
        <pt x="647" y="1556" on="1"/>
        <pt x="647" y="1536" on="1"/>
        <pt x="572" y="1365" on="0"/>
        <pt x="485" y="1229" on="1"/>
        <pt x="324" y="1229" on="1"/>
      </contour>
    </TTGlyph>
    <TTGlyph name="ccaron" xMin="74" yMin="-20" xMax="798" yMax="1569">
      <component glyphName="c" x="0" y="0" flags="0x204"/>
      <component glyphName="caron" x="-124" y="0" flags="0x4"/>
    </TTGlyph>
    <TTGlyph name="ccedilla" xMin="74" yMin="-492" xMax="729" yMax="1135">
      <component glyphName="c" x="0" y="0" flags="0x204"/>
      <component glyphName="cedilla" x="246" y="0" flags="0x4"/>
    </TTGlyph>
    <TTGlyph name="ccircumflex" xMin="74" yMin="-20" xMax="800" yMax="1569">
      <component glyphName="c" x="0" y="0" flags="0x204"/>
      <component glyphName="circumflex" x="-122" y="0" flags="0x4"/>
    </TTGlyph>
    <TTGlyph name="cdot" xMin="74" yMin="-20" xMax="729" yMax="1548">
      <component glyphName="c" x="0" y="0" flags="0x204"/>
      <component glyphName="dotaccent" x="162" y="0" flags="0x4"/>
    </TTGlyph>
    <TTGlyph name="cedilla" xMin="-25" yMin="-492" xMax="397" yMax="0">
      <contour>
        <pt x="397" y="-260" on="1"/>
        <pt x="397" y="-367" on="0"/>
        <pt x="255" y="-492" on="0"/>
        <pt x="106" y="-492" on="1"/>
        <pt x="33" y="-492" on="0"/>
        <pt x="-25" y="-471" on="1"/>
        <pt x="-25" y="-317" on="1"/>
        <pt x="36" y="-334" on="0"/>
        <pt x="96" y="-334" on="1"/>
        <pt x="184" y="-334" on="0"/>
        <pt x="184" y="-268" on="1"/>
        <pt x="184" y="-184" on="0"/>
        <pt x="27" y="-158" on="1"/>
        <pt x="106" y="0" on="1"/>
        <pt x="279" y="0" on="1"/>
        <pt x="242" y="-76" on="1"/>
        <pt x="310" y="-93" on="0"/>
        <pt x="397" y="-185" on="0"/>
      </contour>
    </TTGlyph>
    <TTGlyph name="cent" xMin="147" yMin="-20" xMax="805" yMax="1479">
      <contour>
        <pt x="786" y="233" on="1"/>
        <pt x="709" y="183" on="0"/>
        <pt x="612" y="172" on="1"/>
        <pt x="612" y="-20" on="1"/>
        <pt x="446" y="-20" on="1"/>
        <pt x="446" y="180" on="1"/>
        <pt x="147" y="259" on="0"/>
        <pt x="147" y="737" on="1"/>
        <pt x="147" y="989" on="0"/>
        <pt x="294" y="1275" on="0"/>
        <pt x="446" y="1311" on="1"/>
        <pt x="446" y="1479" on="1"/>
        <pt x="612" y="1479" on="1"/>
        <pt x="612" y="1319" on="1"/>
        <pt x="718" y="1303" on="0"/>
        <pt x="805" y="1253" on="1"/>
        <pt x="727" y="1044" on="1"/>
        <pt x="642" y="1094" on="0"/>
        <pt x="580" y="1094" on="1"/>
        <pt x="495" y="1094" on="0"/>
        <pt x="420" y="919" on="0"/>
        <pt x="420" y="739" on="1"/>
        <pt x="420" y="568" on="0"/>
        <pt x="494" y="395" on="0"/>
        <pt x="578" y="395" on="1"/>
        <pt x="678" y="395" on="0"/>
        <pt x="786" y="467" on="1"/>
      </contour>
    </TTGlyph>
    <TTGlyph name="chi" xMin="6" yMin="-492" xMax="1008" yMax="1126">
      <contour>
        <pt x="158" y="1126" on="1"/>
        <pt x="250" y="1126" on="0"/>
        <pt x="367" y="1063" on="0"/>
        <pt x="447" y="928" on="0"/>
        <pt x="483" y="786" on="1"/>
        <pt x="532" y="594" on="1"/>
        <pt x="743" y="1114" on="1"/>
        <pt x="1008" y="1114" on="1"/>
        <pt x="647" y="342" on="1"/>
        <pt x="770" y="-86" on="1"/>
        <pt x="800" y="-190" on="0"/>
        <pt x="859" y="-256" on="0"/>
        <pt x="922" y="-256" on="1"/>
        <pt x="952" y="-256" on="0"/>
        <pt x="999" y="-246" on="1"/>
        <pt x="999" y="-475" on="1"/>
        <pt x="939" y="-492" on="0"/>
        <pt x="877" y="-492" on="1"/>
        <pt x="784" y="-492" on="0"/>
        <pt x="663" y="-427" on="0"/>
        <pt x="580" y="-285" on="0"/>
        <pt x="545" y="-147" on="1"/>
        <pt x="492" y="61" on="1"/>
        <pt x="270" y="-492" on="1"/>
        <pt x="6" y="-492" on="1"/>
        <pt x="379" y="328" on="1"/>
        <pt x="262" y="725" on="1"/>
        <pt x="241" y="795" on="0"/>
        <pt x="204" y="864" on="0"/>
        <pt x="155" y="891" on="0"/>
        <pt x="113" y="891" on="1"/>
        <pt x="85" y="891" on="0"/>
        <pt x="35" y="881" on="1"/>
        <pt x="35" y="1110" on="1"/>
        <pt x="96" y="1126" on="0"/>
      </contour>
    </TTGlyph>
    <TTGlyph name="circumflex" xMin="211" yMin="1241" xMax="922" yMax="1569">
      <contour>
        <pt x="754" y="1241" on="1"/>
        <pt x="658" y="1313" on="0"/>
        <pt x="565" y="1419" on="1"/>
        <pt x="476" y="1319" on="0"/>
        <pt x="379" y="1241" on="1"/>
        <pt x="211" y="1241" on="1"/>
        <pt x="211" y="1268" on="1"/>
        <pt x="388" y="1491" on="0"/>
        <pt x="428" y="1569" on="1"/>
        <pt x="705" y="1569" on="1"/>
        <pt x="752" y="1482" on="0"/>
        <pt x="922" y="1268" on="1"/>
        <pt x="922" y="1241" on="1"/>
      </contour>
    </TTGlyph>
    <TTGlyph name="circumflexacutecomb" xMin="-1059" yMin="1241" xMax="-63" yMax="1663">
      <contour>
        <pt x="-346" y="1241" on="1"/>
        <pt x="-496" y="1241" on="1"/>
        <pt x="-601" y="1314" on="0"/>
        <pt x="-702" y="1407" on="1"/>
        <pt x="-817" y="1305" on="0"/>
        <pt x="-909" y="1241" on="1"/>
        <pt x="-1059" y="1241" on="1"/>
        <pt x="-1059" y="1268" on="1"/>
        <pt x="-953" y="1391" on="0"/>
        <pt x="-848" y="1544" on="1"/>
        <pt x="-557" y="1544" on="1"/>
        <pt x="-438" y="1371" on="0"/>
        <pt x="-346" y="1268" on="1"/>
      </contour>
      <contour>
        <pt x="-428" y="1462" on="1"/>
        <pt x="-348" y="1550" on="0"/>
        <pt x="-293" y="1663" on="1"/>
        <pt x="-63" y="1663" on="1"/>
        <pt x="-63" y="1642" on="1"/>
        <pt x="-132" y="1550" on="0"/>
        <pt x="-291" y="1436" on="1"/>
        <pt x="-428" y="1436" on="1"/>
      </contour>
    </TTGlyph>
    <TTGlyph name="circumflexgravecomb" xMin="-1366" yMin="1241" xMax="-371" yMax="1663">
      <contour>
        <pt x="-1085" y="1268" on="1"/>
        <pt x="-1032" y="1330" on="0"/>
        <pt x="-904" y="1497" on="0"/>
        <pt x="-872" y="1544" on="1"/>
        <pt x="-582" y="1544" on="1"/>
        <pt x="-477" y="1391" on="0"/>
        <pt x="-371" y="1268" on="1"/>
        <pt x="-371" y="1241" on="1"/>
        <pt x="-520" y="1241" on="1"/>
        <pt x="-606" y="1300" on="0"/>
        <pt x="-727" y="1407" on="1"/>
        <pt x="-839" y="1306" on="0"/>
        <pt x="-934" y="1241" on="1"/>
        <pt x="-1085" y="1241" on="1"/>
      </contour>
      <contour>
        <pt x="-1001" y="1436" on="1"/>
        <pt x="-1139" y="1436" on="1"/>
        <pt x="-1296" y="1548" on="0"/>
        <pt x="-1366" y="1642" on="1"/>
        <pt x="-1366" y="1663" on="1"/>
        <pt x="-1137" y="1663" on="1"/>
        <pt x="-1084" y="1553" on="0"/>
        <pt x="-1001" y="1462" on="1"/>
      </contour>
    </TTGlyph>
    <TTGlyph name="circumflexhookcomb" xMin="-1063" yMin="1241" xMax="-147" yMax="1784">
      <contour>
        <pt x="-342" y="1241" on="1"/>
        <pt x="-492" y="1241" on="1"/>
        <pt x="-601" y="1313" on="0"/>
        <pt x="-702" y="1407" on="1"/>
        <pt x="-816" y="1306" on="0"/>
        <pt x="-913" y="1241" on="1"/>
        <pt x="-1063" y="1241" on="1"/>
        <pt x="-1063" y="1268" on="1"/>
        <pt x="-937" y="1414" on="0"/>
        <pt x="-848" y="1544" on="1"/>
        <pt x="-557" y="1544" on="1"/>
        <pt x="-517" y="1486" on="0"/>
        <pt x="-381" y="1311" on="0"/>
        <pt x="-342" y="1268" on="1"/>
      </contour>
      <contour>
        <pt x="-147" y="1634" on="1"/>
        <pt x="-147" y="1523" on="0"/>
        <pt x="-272" y="1497" on="1"/>
        <pt x="-279" y="1432" on="1"/>
        <pt x="-397" y="1432" on="1"/>
        <pt x="-408" y="1550" on="1"/>
        <pt x="-287" y="1557" on="0"/>
        <pt x="-287" y="1616" on="1"/>
        <pt x="-287" y="1669" on="0"/>
        <pt x="-371" y="1669" on="1"/>
        <pt x="-405" y="1669" on="0"/>
        <pt x="-442" y="1659" on="1"/>
        <pt x="-442" y="1778" on="1"/>
        <pt x="-420" y="1784" on="0"/>
        <pt x="-352" y="1784" on="1"/>
        <pt x="-147" y="1784" on="0"/>
      </contour>
    </TTGlyph>
    <TTGlyph name="circumflextildecomb" xMin="-1053" yMin="1241" xMax="-340" yMax="1808">
      <contour>
        <pt x="-551" y="1571" on="1"/>
        <pt x="-587" y="1571" on="0"/>
        <pt x="-661" y="1597" on="0"/>
        <pt x="-733" y="1627" on="0"/>
        <pt x="-799" y="1653" on="0"/>
        <pt x="-827" y="1653" on="1"/>
        <pt x="-868" y="1653" on="0"/>
        <pt x="-910" y="1617" on="0"/>
        <pt x="-924" y="1569" on="1"/>
        <pt x="-1032" y="1569" on="1"/>
        <pt x="-1023" y="1675" on="0"/>
        <pt x="-919" y="1806" on="0"/>
        <pt x="-836" y="1806" on="1"/>
        <pt x="-798" y="1806" on="0"/>
        <pt x="-722" y="1780" on="0"/>
        <pt x="-650" y="1748" on="0"/>
        <pt x="-585" y="1722" on="0"/>
        <pt x="-559" y="1722" on="1"/>
        <pt x="-519" y="1722" on="0"/>
        <pt x="-477" y="1759" on="0"/>
        <pt x="-463" y="1808" on="1"/>
        <pt x="-354" y="1808" on="1"/>
        <pt x="-365" y="1699" on="0"/>
        <pt x="-468" y="1571" on="0"/>
      </contour>
      <contour>
        <pt x="-340" y="1241" on="1"/>
        <pt x="-473" y="1241" on="1"/>
        <pt x="-610" y="1315" on="0"/>
        <pt x="-696" y="1395" on="1"/>
        <pt x="-785" y="1315" on="0"/>
        <pt x="-920" y="1241" on="1"/>
        <pt x="-1053" y="1241" on="1"/>
        <pt x="-1053" y="1268" on="1"/>
        <pt x="-895" y="1426" on="0"/>
        <pt x="-825" y="1528" on="1"/>
        <pt x="-567" y="1528" on="1"/>
        <pt x="-519" y="1459" on="0"/>
        <pt x="-397" y="1327" on="0"/>
        <pt x="-340" y="1268" on="1"/>
      </contour>
    </TTGlyph>
    <TTGlyph name="colon" xMin="111" yMin="-27" xMax="442" yMax="1137">
      <contour>
        <pt x="111" y="137" on="1"/>
        <pt x="111" y="215" on="0"/>
        <pt x="194" y="301" on="0"/>
        <pt x="276" y="301" on="1"/>
        <pt x="358" y="301" on="0"/>
        <pt x="442" y="216" on="0"/>
        <pt x="442" y="137" on="1"/>
        <pt x="442" y="59" on="0"/>
        <pt x="355" y="-27" on="0"/>
        <pt x="276" y="-27" on="1"/>
        <pt x="195" y="-27" on="0"/>
        <pt x="111" y="60" on="0"/>
      </contour>
      <contour>
        <pt x="111" y="973" on="1"/>
        <pt x="111" y="1051" on="0"/>
        <pt x="194" y="1137" on="0"/>
        <pt x="276" y="1137" on="1"/>
        <pt x="358" y="1137" on="0"/>
        <pt x="442" y="1052" on="0"/>
        <pt x="442" y="973" on="1"/>
        <pt x="442" y="895" on="0"/>
        <pt x="355" y="809" on="0"/>
        <pt x="276" y="809" on="1"/>
        <pt x="195" y="809" on="0"/>
        <pt x="111" y="896" on="0"/>
      </contour>
    </TTGlyph>
    <TTGlyph name="comma" xMin="51" yMin="-264" xMax="430" yMax="238">
      <contour>
        <pt x="430" y="215" on="1"/>
        <pt x="378" y="13" on="0"/>
        <pt x="254" y="-264" on="1"/>
        <pt x="51" y="-264" on="1"/>
        <pt x="116" y="2" on="0"/>
        <pt x="152" y="238" on="1"/>
        <pt x="416" y="238" on="1"/>
      </contour>
    </TTGlyph>
    <TTGlyph name="commaaccent" xMin="319" yMin="-453" xMax="647" yMax="-125">
      <contour>
        <pt x="319" y="-426" on="1"/>
        <pt x="339" y="-360" on="0"/>
        <pt x="378" y="-183" on="0"/>
        <pt x="385" y="-125" on="1"/>
        <pt x="647" y="-125" on="1"/>
        <pt x="647" y="-145" on="1"/>
        <pt x="571" y="-321" on="0"/>
        <pt x="481" y="-453" on="1"/>
        <pt x="319" y="-453" on="1"/>
      </contour>
    </TTGlyph>
    <TTGlyph name="commaaccentrotate" xMin="309" yMin="1241" xMax="639" yMax="1569">
      <contour>
        <pt x="639" y="1542" on="1"/>
        <pt x="619" y="1476" on="0"/>
        <pt x="580" y="1299" on="0"/>
        <pt x="573" y="1241" on="1"/>
        <pt x="309" y="1241" on="1"/>
        <pt x="309" y="1262" on="1"/>
        <pt x="377" y="1421" on="0"/>
        <pt x="475" y="1569" on="1"/>
        <pt x="639" y="1569" on="1"/>
      </contour>
    </TTGlyph>
    <TTGlyph name="copyright" xMin="92" yMin="-20" xMax="1595" yMax="1483">
      <contour>
        <pt x="887" y="1018" on="1"/>
        <pt x="785" y="1018" on="0"/>
        <pt x="674" y="867" on="0"/>
        <pt x="674" y="731" on="1"/>
        <pt x="674" y="591" on="0"/>
        <pt x="773" y="442" on="0"/>
        <pt x="887" y="442" on="1"/>
        <pt x="943" y="442" on="0"/>
        <pt x="1079" y="475" on="0"/>
        <pt x="1126" y="500" on="1"/>
        <pt x="1126" y="319" on="1"/>
        <pt x="1010" y="264" on="0"/>
        <pt x="881" y="264" on="1"/>
        <pt x="680" y="264" on="0"/>
        <pt x="457" y="511" on="0"/>
        <pt x="457" y="733" on="1"/>
        <pt x="457" y="952" on="0"/>
        <pt x="677" y="1196" on="0"/>
        <pt x="874" y="1196" on="1"/>
        <pt x="1016" y="1196" on="0"/>
        <pt x="1169" y="1122" on="1"/>
        <pt x="1098" y="961" on="1"/>
        <pt x="987" y="1018" on="0"/>
      </contour>
      <contour>
        <pt x="92" y="731" on="1"/>
        <pt x="92" y="931" on="0"/>
        <pt x="292" y="1281" on="0"/>
        <pt x="642" y="1483" on="0"/>
        <pt x="844" y="1483" on="1"/>
        <pt x="1041" y="1483" on="0"/>
        <pt x="1387" y="1289" on="0"/>
        <pt x="1595" y="939" on="0"/>
        <pt x="1595" y="731" on="1"/>
        <pt x="1595" y="527" on="0"/>
        <pt x="1394" y="182" on="0"/>
        <pt x="1049" y="-20" on="0"/>
        <pt x="844" y="-20" on="1"/>
        <pt x="637" y="-20" on="0"/>
        <pt x="287" y="187" on="0"/>
        <pt x="92" y="533" on="0"/>
      </contour>
      <contour>
        <pt x="227" y="731" on="1"/>
        <pt x="227" y="566" on="0"/>
        <pt x="393" y="279" on="0"/>
        <pt x="678" y="115" on="0"/>
        <pt x="844" y="115" on="1"/>
        <pt x="1010" y="115" on="0"/>
        <pt x="1296" y="279" on="0"/>
        <pt x="1460" y="565" on="0"/>
        <pt x="1460" y="731" on="1"/>
        <pt x="1460" y="897" on="0"/>
        <pt x="1296" y="1182" on="0"/>
        <pt x="1010" y="1348" on="0"/>
        <pt x="844" y="1348" on="1"/>
        <pt x="679" y="1348" on="0"/>
        <pt x="392" y="1183" on="0"/>
        <pt x="227" y="897" on="0"/>
      </contour>
    </TTGlyph>
    <TTGlyph name="currency" xMin="90" yMin="260" xMax="1022" yMax="1188">
      <contour>
        <pt x="162" y="723" on="1"/>
        <pt x="162" y="825" on="0"/>
        <pt x="219" y="924" on="1"/>
        <pt x="90" y="1051" on="1"/>
        <pt x="227" y="1188" on="1"/>
        <pt x="354" y="1061" on="1"/>
        <pt x="447" y="1116" on="0"/>
        <pt x="555" y="1116" on="1"/>
        <pt x="662" y="1116" on="0"/>
        <pt x="754" y="1059" on="1"/>
        <pt x="883" y="1188" on="1"/>
        <pt x="1022" y="1055" on="1"/>
        <pt x="893" y="926" on="1"/>
        <pt x="948" y="833" on="0"/>
        <pt x="948" y="723" on="1"/>
        <pt x="948" y="609" on="0"/>
        <pt x="893" y="520" on="1"/>
        <pt x="1018" y="395" on="1"/>
        <pt x="883" y="260" on="1"/>
        <pt x="754" y="385" on="1"/>
        <pt x="661" y="332" on="0"/>
        <pt x="555" y="332" on="1"/>
        <pt x="435" y="332" on="0"/>
        <pt x="352" y="385" on="1"/>
        <pt x="227" y="262" on="1"/>
        <pt x="92" y="397" on="1"/>
        <pt x="219" y="522" on="1"/>
        <pt x="162" y="614" on="0"/>
      </contour>
      <contour>
        <pt x="356" y="723" on="1"/>
        <pt x="356" y="640" on="0"/>
        <pt x="472" y="524" on="0"/>
        <pt x="555" y="524" on="1"/>
        <pt x="640" y="524" on="0"/>
        <pt x="758" y="641" on="0"/>
        <pt x="758" y="723" on="1"/>
        <pt x="758" y="807" on="0"/>
        <pt x="640" y="924" on="0"/>
        <pt x="555" y="924" on="1"/>
        <pt x="472" y="924" on="0"/>
        <pt x="356" y="808" on="0"/>
      </contour>
    </TTGlyph>
    <TTGlyph name="cyrillicbighookLC" xMin="16" yMin="-477" xMax="518" yMax="242">
      <contour>
        <pt x="188" y="-477" on="1"/>
        <pt x="84" y="-477" on="0"/>
        <pt x="16" y="-453" on="1"/>
        <pt x="16" y="-231" on="1"/>
        <pt x="83" y="-250" on="0"/>
        <pt x="133" y="-250" on="1"/>
        <pt x="250" y="-250" on="0"/>
        <pt x="250" y="-94" on="1"/>
        <pt x="250" y="242" on="1"/>
        <pt x="518" y="242" on="1"/>
        <pt x="518" y="-125" on="1"/>
        <pt x="518" y="-293" on="0"/>
        <pt x="350" y="-477" on="0"/>
      </contour>
    </TTGlyph>
    <TTGlyph name="cyrillicbighookUC" xMin="16" yMin="-477" xMax="518" yMax="276">
      <contour>
        <pt x="188" y="-477" on="1"/>
        <pt x="84" y="-477" on="0"/>
        <pt x="16" y="-453" on="1"/>
        <pt x="16" y="-231" on="1"/>
        <pt x="83" y="-250" on="0"/>
        <pt x="133" y="-250" on="1"/>
        <pt x="250" y="-250" on="0"/>
        <pt x="250" y="-94" on="1"/>
        <pt x="250" y="276" on="1"/>
        <pt x="518" y="276" on="1"/>
        <pt x="518" y="-125" on="1"/>
        <pt x="518" y="-293" on="0"/>
        <pt x="350" y="-477" on="0"/>
      </contour>
    </TTGlyph>
    <TTGlyph name="cyrillicbreve" xMin="209" yMin="1241" xMax="938" yMax="1565">
      <contour>
        <pt x="938" y="1565" on="1"/>
        <pt x="918" y="1397" on="0"/>
        <pt x="739" y="1241" on="0"/>
        <pt x="565" y="1241" on="1"/>
        <pt x="395" y="1241" on="0"/>
        <pt x="225" y="1394" on="0"/>
        <pt x="209" y="1565" on="1"/>
        <pt x="430" y="1565" on="1"/>
        <pt x="441" y="1465" on="0"/>
        <pt x="504" y="1395" on="0"/>
        <pt x="571" y="1395" on="1"/>
        <pt x="637" y="1395" on="0"/>
        <pt x="702" y="1475" on="0"/>
        <pt x="713" y="1565" on="1"/>
      </contour>
    </TTGlyph>
    <TTGlyph name="cyrillichookleft" xMin="18" yMin="-483" xMax="408" yMax="0">
      <contour>
        <pt x="207" y="-229" on="1"/>
        <pt x="207" y="-177" on="0"/>
        <pt x="131" y="-66" on="0"/>
        <pt x="61" y="0" on="1"/>
        <pt x="229" y="0" on="1"/>
        <pt x="328" y="-72" on="0"/>
        <pt x="408" y="-194" on="0"/>
        <pt x="408" y="-260" on="1"/>
        <pt x="408" y="-360" on="0"/>
        <pt x="277" y="-483" on="0"/>
        <pt x="166" y="-483" on="1"/>
        <pt x="94" y="-483" on="0"/>
        <pt x="18" y="-461" on="1"/>
        <pt x="18" y="-297" on="1"/>
        <pt x="79" y="-313" on="0"/>
        <pt x="127" y="-313" on="1"/>
        <pt x="162" y="-313" on="0"/>
        <pt x="207" y="-271" on="0"/>
      </contour>
    </TTGlyph>
    <TTGlyph name="cyrotmarkcomb" xMin="-414" yMin="1212" xMax="414" yMax="1462">
      <contour>
        <pt x="414" y="1462" on="1"/>
        <pt x="414" y="1374" on="1"/>
        <pt x="334" y="1212" on="1"/>
        <pt x="301" y="1212" on="1"/>
        <pt x="252" y="1305" on="1"/>
        <pt x="66" y="1305" on="1"/>
        <pt x="16" y="1212" on="1"/>
        <pt x="-16" y="1212" on="1"/>
        <pt x="-66" y="1305" on="1"/>
        <pt x="-254" y="1305" on="1"/>
        <pt x="-301" y="1212" on="1"/>
        <pt x="-334" y="1212" on="1"/>
        <pt x="-414" y="1374" on="1"/>
        <pt x="-414" y="1462" on="1"/>
      </contour>
    </TTGlyph>
    <TTGlyph name="d" xMin="74" yMin="-20" xMax="905" yMax="1556">
      <contour>
        <pt x="406" y="-20" on="1"/>
        <pt x="252" y="-20" on="0"/>
        <pt x="74" y="284" on="0"/>
        <pt x="74" y="555" on="1"/>
        <pt x="74" y="827" on="0"/>
        <pt x="248" y="1135" on="0"/>
        <pt x="401" y="1135" on="1"/>
        <pt x="477" y="1135" on="0"/>
        <pt x="588" y="1060" on="0"/>
        <pt x="635" y="971" on="1"/>
        <pt x="651" y="971" on="1"/>
        <pt x="639" y="1123" on="0"/>
        <pt x="639" y="1184" on="1"/>
        <pt x="639" y="1556" on="1"/>
        <pt x="905" y="1556" on="1"/>
        <pt x="905" y="0" on="1"/>
        <pt x="707" y="0" on="1"/>
        <pt x="662" y="145" on="1"/>
        <pt x="653" y="145" on="1"/>
        <pt x="568" y="-20" on="0"/>
      </contour>
      <contour>
        <pt x="492" y="205" on="1"/>
        <pt x="566" y="205" on="0"/>
        <pt x="634" y="340" on="0"/>
        <pt x="637" y="518" on="1"/>
        <pt x="637" y="553" on="1"/>
        <pt x="637" y="747" on="0"/>
        <pt x="568" y="905" on="0"/>
        <pt x="489" y="905" on="1"/>
        <pt x="415" y="905" on="0"/>
        <pt x="348" y="724" on="0"/>
        <pt x="348" y="551" on="1"/>
        <pt x="348" y="378" on="0"/>
        <pt x="416" y="205" on="0"/>
      </contour>
    </TTGlyph>
    <TTGlyph name="dagger" xMin="113" yMin="0" xMax="911" yMax="1556">
      <contour>
        <pt x="911" y="940" on="1"/>
        <pt x="580" y="971" on="1"/>
        <pt x="635" y="0" on="1"/>
        <pt x="369" y="0" on="1"/>
        <pt x="424" y="971" on="1"/>
        <pt x="113" y="940" on="1"/>
        <pt x="113" y="1169" on="1"/>
        <pt x="424" y="1139" on="1"/>
        <pt x="369" y="1556" on="1"/>
        <pt x="635" y="1556" on="1"/>
        <pt x="580" y="1139" on="1"/>
        <pt x="911" y="1169" on="1"/>
      </contour>
    </TTGlyph>
    <TTGlyph name="daggerdbl" xMin="102" yMin="0" xMax="922" yMax="1556">
      <contour>
        <pt x="590" y="545" on="1"/>
        <pt x="922" y="575" on="1"/>
        <pt x="922" y="346" on="1"/>
        <pt x="590" y="377" on="1"/>
        <pt x="645" y="0" on="1"/>
        <pt x="379" y="0" on="1"/>
        <pt x="434" y="377" on="1"/>
        <pt x="102" y="346" on="1"/>
        <pt x="102" y="575" on="1"/>
        <pt x="434" y="545" on="1"/>
        <pt x="387" y="786" on="1"/>
        <pt x="434" y="1012" on="1"/>
        <pt x="102" y="981" on="1"/>
        <pt x="102" y="1210" on="1"/>
        <pt x="434" y="1180" on="1"/>
        <pt x="379" y="1556" on="1"/>
        <pt x="645" y="1556" on="1"/>
        <pt x="590" y="1180" on="1"/>
        <pt x="922" y="1210" on="1"/>
        <pt x="922" y="981" on="1"/>
        <pt x="590" y="1012" on="1"/>
        <pt x="637" y="786" on="1"/>
      </contour>
    </TTGlyph>
    <TTGlyph name="dasiaoxia" xMin="115" yMin="1128" xMax="782" yMax="1479">
      <contour>
        <pt x="115" y="1264" on="1"/>
        <pt x="115" y="1346" on="0"/>
        <pt x="260" y="1457" on="0"/>
        <pt x="397" y="1479" on="1"/>
        <pt x="397" y="1405" on="1"/>
        <pt x="326" y="1383" on="0"/>
        <pt x="260" y="1344" on="0"/>
        <pt x="260" y="1315" on="1"/>
        <pt x="260" y="1297" on="0"/>
        <pt x="296" y="1279" on="0"/>
        <pt x="339" y="1262" on="0"/>
        <pt x="375" y="1236" on="0"/>
        <pt x="375" y="1208" on="1"/>
        <pt x="375" y="1128" on="0"/>
        <pt x="252" y="1128" on="1"/>
        <pt x="193" y="1128" on="0"/>
        <pt x="115" y="1196" on="0"/>
      </contour>
      <contour>
        <pt x="449" y="1163" on="1"/>
        <pt x="491" y="1309" on="1"/>
        <pt x="532" y="1464" on="1"/>
        <pt x="782" y="1464" on="1"/>
        <pt x="782" y="1444" on="1"/>
        <pt x="736" y="1339" on="0"/>
        <pt x="573" y="1137" on="1"/>
        <pt x="449" y="1137" on="1"/>
      </contour>
    </TTGlyph>
    <TTGlyph name="dcaron" xMin="74" yMin="-20" xMax="1319" yMax="1556">
      <component glyphName="d" x="0" y="0" flags="0x4"/>
      <component glyphName="caroncommaaccent" x="672" y="0" flags="0x4"/>
    </TTGlyph>
    <TTGlyph name="dcroat" xMin="74" yMin="-20" xMax="1028" yMax="1556">
      <contour>
        <pt x="406" y="-20" on="1"/>
        <pt x="253" y="-20" on="0"/>
        <pt x="74" y="268" on="0"/>
        <pt x="74" y="530" on="1"/>
        <pt x="74" y="789" on="0"/>
        <pt x="248" y="1085" on="0"/>
        <pt x="403" y="1085" on="1"/>
        <pt x="478" y="1085" on="0"/>
        <pt x="589" y="1010" on="0"/>
        <pt x="635" y="922" on="1"/>
        <pt x="651" y="922" on="1"/>
        <pt x="639" y="1070" on="0"/>
        <pt x="639" y="1171" on="1"/>
        <pt x="639" y="1204" on="1"/>
        <pt x="399" y="1204" on="1"/>
        <pt x="399" y="1391" on="1"/>
        <pt x="639" y="1391" on="1"/>
        <pt x="639" y="1556" on="1"/>
        <pt x="905" y="1556" on="1"/>
        <pt x="905" y="1391" on="1"/>
        <pt x="1028" y="1391" on="1"/>
        <pt x="1028" y="1204" on="1"/>
        <pt x="905" y="1204" on="1"/>
        <pt x="905" y="0" on="1"/>
        <pt x="707" y="0" on="1"/>
        <pt x="664" y="145" on="1"/>
        <pt x="653" y="145" on="1"/>
        <pt x="568" y="-20" on="0"/>
      </contour>
      <contour>
        <pt x="492" y="205" on="1"/>
        <pt x="574" y="205" on="0"/>
        <pt x="637" y="362" on="0"/>
        <pt x="637" y="520" on="1"/>
        <pt x="637" y="549" on="1"/>
        <pt x="637" y="718" on="0"/>
        <pt x="569" y="856" on="0"/>
        <pt x="489" y="856" on="1"/>
        <pt x="346" y="856" on="0"/>
        <pt x="346" y="526" on="1"/>
        <pt x="346" y="365" on="0"/>
        <pt x="416" y="205" on="0"/>
      </contour>
    </TTGlyph>
    <TTGlyph name="degree" xMin="76" yMin="805" xMax="756" yMax="1483">
      <contour>
        <pt x="76" y="1143" on="1"/>
        <pt x="76" y="1282" on="0"/>
        <pt x="274" y="1483" on="0"/>
        <pt x="416" y="1483" on="1"/>
        <pt x="555" y="1483" on="0"/>
        <pt x="756" y="1283" on="0"/>
        <pt x="756" y="1143" on="1"/>
        <pt x="756" y="1002" on="0"/>
        <pt x="558" y="805" on="0"/>
        <pt x="416" y="805" on="1"/>
        <pt x="273" y="805" on="0"/>
        <pt x="76" y="1002" on="0"/>
      </contour>
      <contour>
        <pt x="252" y="1143" on="1"/>
        <pt x="252" y="1076" on="0"/>
        <pt x="350" y="981" on="0"/>
        <pt x="416" y="981" on="1"/>
        <pt x="482" y="981" on="0"/>
        <pt x="578" y="1076" on="0"/>
        <pt x="578" y="1143" on="1"/>
        <pt x="578" y="1211" on="0"/>
        <pt x="483" y="1307" on="0"/>
        <pt x="416" y="1307" on="1"/>
        <pt x="349" y="1307" on="0"/>
        <pt x="252" y="1209" on="0"/>
      </contour>
    </TTGlyph>
    <TTGlyph name="delta" xMin="74" yMin="-20" xMax="938" yMax="1567">
      <contour>
        <pt x="381" y="920" on="1"/>
        <pt x="267" y="1003" on="0"/>
        <pt x="176" y="1154" on="0"/>
        <pt x="176" y="1245" on="1"/>
        <pt x="176" y="1392" on="0"/>
        <pt x="390" y="1567" on="0"/>
        <pt x="575" y="1567" on="1"/>
        <pt x="666" y="1567" on="0"/>
        <pt x="821" y="1534" on="0"/>
        <pt x="928" y="1487" on="1"/>
        <pt x="846" y="1282" on="1"/>
        <pt x="698" y="1356" on="0"/>
        <pt x="580" y="1356" on="1"/>
        <pt x="440" y="1356" on="0"/>
        <pt x="440" y="1255" on="1"/>
        <pt x="440" y="1206" on="0"/>
        <pt x="501" y="1129" on="0"/>
        <pt x="647" y="1020" on="1"/>
        <pt x="803" y="904" on="0"/>
        <pt x="938" y="657" on="0"/>
        <pt x="938" y="496" on="1"/>
        <pt x="938" y="249" on="0"/>
        <pt x="709" y="-20" on="0"/>
        <pt x="502" y="-20" on="1"/>
        <pt x="307" y="-20" on="0"/>
        <pt x="74" y="228" on="0"/>
        <pt x="74" y="438" on="1"/>
        <pt x="74" y="619" on="0"/>
        <pt x="219" y="852" on="0"/>
      </contour>
      <contour>
        <pt x="666" y="489" on="1"/>
        <pt x="666" y="685" on="0"/>
        <pt x="532" y="801" on="1"/>
        <pt x="346" y="716" on="0"/>
        <pt x="346" y="453" on="1"/>
        <pt x="346" y="342" on="0"/>
        <pt x="429" y="207" on="0"/>
        <pt x="504" y="207" on="1"/>
        <pt x="582" y="207" on="0"/>
        <pt x="666" y="352" on="0"/>
      </contour>
    </TTGlyph>
    <TTGlyph name="dieresis" xMin="233" yMin="1276" xMax="897" yMax="1532">
      <contour>
        <pt x="233" y="1403" on="1"/>
        <pt x="233" y="1464" on="0"/>
        <pt x="303" y="1532" on="0"/>
        <pt x="365" y="1532" on="1"/>
        <pt x="427" y="1532" on="0"/>
        <pt x="498" y="1461" on="0"/>
        <pt x="498" y="1403" on="1"/>
        <pt x="498" y="1346" on="0"/>
        <pt x="427" y="1276" on="0"/>
        <pt x="365" y="1276" on="1"/>
        <pt x="303" y="1276" on="0"/>
        <pt x="233" y="1343" on="0"/>
      </contour>
      <contour>
        <pt x="631" y="1403" on="1"/>
        <pt x="631" y="1463" on="0"/>
        <pt x="701" y="1532" on="0"/>
        <pt x="764" y="1532" on="1"/>
        <pt x="825" y="1532" on="0"/>
        <pt x="897" y="1464" on="0"/>
        <pt x="897" y="1403" on="1"/>
        <pt x="897" y="1344" on="0"/>
        <pt x="826" y="1276" on="0"/>
        <pt x="764" y="1276" on="1"/>
        <pt x="702" y="1276" on="0"/>
        <pt x="631" y="1345" on="0"/>
      </contour>
    </TTGlyph>
    <TTGlyph name="dieresistonos" xMin="184" yMin="1276" xMax="956" yMax="1716">
      <contour>
        <pt x="471" y="1389" on="1"/>
        <pt x="471" y="1415" on="1"/>
        <pt x="518" y="1570" on="0"/>
        <pt x="539" y="1716" on="1"/>
        <pt x="791" y="1716" on="1"/>
        <pt x="791" y="1696" on="1"/>
        <pt x="726" y="1559" on="0"/>
        <pt x="598" y="1389" on="1"/>
      </contour>
      <contour>
        <pt x="184" y="1403" on="1"/>
        <pt x="184" y="1471" on="0"/>
        <pt x="251" y="1532" on="0"/>
        <pt x="305" y="1532" on="1"/>
        <pt x="359" y="1532" on="0"/>
        <pt x="430" y="1471" on="0"/>
        <pt x="430" y="1403" on="1"/>
        <pt x="430" y="1338" on="0"/>
        <pt x="359" y="1276" on="0"/>
        <pt x="305" y="1276" on="1"/>
        <pt x="251" y="1276" on="0"/>
        <pt x="184" y="1338" on="0"/>
      </contour>
      <contour>
        <pt x="709" y="1403" on="1"/>
        <pt x="709" y="1532" on="0"/>
        <pt x="834" y="1532" on="1"/>
        <pt x="886" y="1532" on="0"/>
        <pt x="956" y="1470" on="0"/>
        <pt x="956" y="1403" on="1"/>
        <pt x="956" y="1338" on="0"/>
        <pt x="886" y="1276" on="0"/>
        <pt x="834" y="1276" on="1"/>
        <pt x="777" y="1276" on="0"/>
        <pt x="709" y="1338" on="0"/>
      </contour>
    </TTGlyph>
    <TTGlyph name="divide" xMin="106" yMin="227" xMax="811" yMax="1217">
      <contour>
        <pt x="106" y="618" on="1"/>
        <pt x="106" y="825" on="1"/>
        <pt x="811" y="825" on="1"/>
        <pt x="811" y="618" on="1"/>
      </contour>
      <contour>
        <pt x="332" y="373" on="1"/>
        <pt x="332" y="518" on="0"/>
        <pt x="457" y="518" on="1"/>
        <pt x="518" y="518" on="0"/>
        <pt x="580" y="443" on="0"/>
        <pt x="580" y="373" on="1"/>
        <pt x="580" y="305" on="0"/>
        <pt x="515" y="227" on="0"/>
        <pt x="457" y="227" on="1"/>
        <pt x="403" y="227" on="0"/>
        <pt x="332" y="296" on="0"/>
      </contour>
      <contour>
        <pt x="332" y="1071" on="1"/>
        <pt x="332" y="1217" on="0"/>
        <pt x="457" y="1217" on="1"/>
        <pt x="518" y="1217" on="0"/>
        <pt x="580" y="1142" on="0"/>
        <pt x="580" y="1071" on="1"/>
        <pt x="580" y="1004" on="0"/>
        <pt x="515" y="926" on="0"/>
        <pt x="457" y="926" on="1"/>
        <pt x="403" y="926" on="0"/>
        <pt x="332" y="994" on="0"/>
      </contour>
    </TTGlyph>
</ttFont>
